<svg width="400" height="60" viewBox="0 0 400 60" fill="none" xmlns="http://www.w3.org/2000/svg">
<g clip-path="url(#clip0)">
<path d="M118.811 18.4623H123.705C125.977 18.4623 127.624 17.5275 127.624 14.9798C127.624 12.3597 125.938 11.3028 123.705 11.3028H118.811V18.4623ZM111.523 5.46875H124.803C130.012 5.46875 134.912 7.85929 134.912 14.4729C134.912 21.399 130.954 24.1019 124.803 24.1019H118.811V33.4138H111.523V5.46875Z" fill="#FFFFFF"/>
<path d="M160.693 21.8715C160.693 29.9699 156.974 34.0031 148.511 34.0031C140.048 34.0031 136.328 29.9699 136.328 21.8715V5.46875H143.612V22.2998C143.612 25.8994 144.948 27.7392 148.511 27.7392C152.074 27.7392 153.406 25.8994 153.406 22.2998V5.46875H160.693V21.8715Z" fill="#FFFFFF"/>
<path d="M171.054 17.6049H177.167C179.36 17.6049 180.535 16.4306 180.535 14.3173C180.535 12.243 178.892 11.3025 176.854 11.3025H171.054V17.6049ZM163.77 5.46875H178.029C182.963 5.46875 187.822 7.69987 187.822 13.3383C187.822 16.3532 186.375 19.2068 183.435 20.3429V20.4203C186.414 21.1255 187.273 24.4531 187.51 27.1114C187.588 28.2907 187.706 32.3956 188.686 33.4139H181.476C180.847 32.4776 180.73 29.7365 180.652 28.9524C180.457 26.137 179.988 23.2399 176.581 23.2399H171.054V33.4139H163.77V5.46875Z" fill="#FFFFFF"/>
<path d="M190.137 5.46875H212.425V11.3025H197.42V16.1926H211.133V21.8322H197.42V27.1549H212.819V33.4138H190.137V5.46875Z" fill="#FFFFFF"/>
<path d="M225.684 5.46875H232.972V27.1549H246.017V33.4138H225.684V5.46875Z" fill="#FFFFFF"/>
<path d="M260.471 27.5422C265.17 27.5422 266.974 23.3931 266.974 19.2443C266.974 15.1002 265.17 10.9507 260.471 10.9507C255.772 10.9507 253.968 15.1002 253.968 19.2443C253.968 23.3931 255.772 27.5422 260.471 27.5422ZM260.471 4.6875C269.285 4.6875 274.261 11.1452 274.261 19.2443C274.261 27.3477 269.285 33.8061 260.471 33.8061C251.657 33.8061 246.68 27.3477 246.68 19.2443C246.68 11.1452 251.657 4.6875 260.471 4.6875Z" fill="#FFFFFF"/>
<path d="M290.619 23.0058V33.4138H283.331V23.0058L273.145 5.46875H281.411L286.973 16.8208L292.535 5.46875H300.802L290.619 23.0058Z" fill="#FFFFFF"/>
<path d="M305.852 23.0058H312.198L309.108 13.2224H309.026L305.852 23.0058ZM305.384 5.46875H312.789L323.249 33.4138H315.65L313.925 28.4062H304.17L302.405 33.4138H294.922L305.384 5.46875Z" fill="#FFFFFF"/>
<path d="M323.535 5.46875H330.822V27.1549H343.867V33.4138H323.535V5.46875Z" fill="#FFFFFF"/>
<path d="M362.749 11.7319H354.403V33.4138H347.115V11.7319H338.77V5.46875H362.749V11.7319Z" fill="#FFFFFF"/>
<path d="M378.319 23.0058V33.4138H371.031V23.0058L360.84 5.46875H369.108L374.673 16.8208L380.233 5.46875H388.502L378.319 23.0058Z" fill="#FFFFFF"/>
<path d="M7.28757 27.5877H13.1232C15.434 27.5877 17.0423 26.765 17.0423 24.4561C17.0423 21.9904 15.3169 21.1685 13.1232 21.1685H7.28757V27.5877ZM7.28757 16.4732H12.9283C14.1812 16.4732 15.907 15.8062 15.907 13.8092C15.907 11.7741 14.4535 11.1117 12.9283 11.1117H7.28757V16.4732ZM0 5.47208H13.0839C17.905 5.39427 23.1945 6.65019 23.1945 12.4801C23.1945 14.9831 21.7029 17.0186 19.5092 18.1151C22.4878 18.9767 24.3303 21.5583 24.3303 24.7295C24.3303 31.3859 19.4302 33.421 13.439 33.421H0V5.47208Z" fill="#0A1E3F"/>
<path d="M25.5859 5.46875H32.8735V27.1549H45.9189V33.4176H25.5859V5.46875Z" fill="#FFFFFF"/>
<path d="M70.9459 21.8715C70.9459 29.9699 67.227 34.0031 58.7632 34.0031C50.3017 34.0031 46.582 29.9699 46.582 21.8715V5.46875H53.8646V22.2998C53.8646 25.8994 55.1995 27.7392 58.7632 27.7392C62.3273 27.7392 63.6583 25.8994 63.6583 22.2998V5.46875H70.9459V21.8715Z" fill="#FFFFFF"/>
<path d="M92.663 15.8723C91.9429 11.9005 90.2313 9.80481 86.4239 9.80481C81.4551 9.80481 80.0165 13.6633 79.9082 15.8723H92.663ZM79.9082 20.8357C80.1294 25.7995 82.557 28.06 86.9181 28.06C90.0665 28.06 92.6066 26.1286 93.1054 24.3662H100.002C97.7957 31.0966 93.1054 33.9642 86.6458 33.9642C77.6451 33.9642 72.0703 27.7873 72.0703 18.9608C72.0703 10.4105 77.9746 3.90625 86.6458 3.90625C96.3609 3.90625 101.052 12.0653 100.501 20.8357H79.9082Z" fill="#FFFFFF"/>
<path d="M396.241 3.03699H396.592C396.992 3.03699 397.324 2.89778 397.324 2.56826C397.324 2.27841 397.111 2.08848 396.649 2.08848C396.451 2.08848 396.317 2.10603 396.241 2.12739V3.03699ZM396.222 4.81198H395.486V1.64149C395.776 1.60259 396.184 1.54614 396.703 1.54614C397.305 1.54614 397.576 1.64149 397.786 1.79825C397.984 1.93173 398.118 2.16552 398.118 2.47407C398.118 2.85851 397.828 3.11099 397.458 3.22731V3.26659C397.771 3.36194 397.923 3.61251 398.022 4.03738C398.118 4.52212 398.194 4.69642 398.251 4.81198H397.481C397.385 4.69642 397.324 4.42639 397.229 4.03738C397.168 3.71244 396.977 3.55607 396.569 3.55607H396.222V4.81198ZM394.266 3.17048C394.266 4.57818 395.333 5.70099 396.745 5.70099C398.118 5.72159 399.163 4.57819 399.163 3.18765C399.163 1.77689 398.118 0.636912 396.703 0.636912C395.333 0.636912 394.266 1.77688 394.266 3.17048ZM399.971 3.17048C399.971 4.9466 398.541 6.35812 396.726 6.35812C394.903 6.35812 393.457 4.9466 393.457 3.17048C393.457 1.3913 394.902 0 396.745 0C398.541 0 399.971 1.3913 399.971 3.17048Z" fill="#FFFFFF"/>
<path d="M196.579 55.3043H194.851L197.635 42.1422H193.555L193.886 40.625H203.785L203.483 42.1422H199.382L196.579 55.3043Z" fill="#FFFFFF"/>
<path d="M209.272 55.0759L210.76 48.1282C210.88 47.4985 210.941 47.0481 210.941 46.7731C210.941 45.7819 210.449 45.2868 209.464 45.2868C208.866 45.2868 208.286 45.4852 207.72 45.8788C207.153 46.275 206.654 46.8486 206.222 47.6007C205.79 48.3536 205.464 49.2632 205.242 50.3276L204.227 55.0759H202.539L205.856 39.4531H207.544C207.423 40.0031 207.308 40.5351 207.197 41.0508C207.086 41.566 206.973 42.0893 206.856 42.6202C206.738 43.1526 206.611 43.7106 206.474 44.2922C206.337 44.8761 206.177 45.5073 205.997 46.19H206.107C206.736 45.3677 207.358 44.7784 207.971 44.4238C208.584 44.0691 209.226 43.8913 209.896 43.8913C210.772 43.8913 211.451 44.132 211.931 44.6148C212.41 45.0958 212.649 45.7781 212.649 46.6621C212.649 47.0771 212.572 47.6331 212.418 48.3299C212.157 49.6213 211.671 51.8696 210.961 55.0759H209.272Z" fill="#FFFFFF"/>
<path d="M220.201 45.5769C219.511 45.5769 218.862 45.8908 218.256 46.5201C217.649 47.1502 217.185 48.0216 216.864 49.1399H216.985C218.513 49.1399 219.684 48.9415 220.497 48.5422C221.311 48.1452 221.718 47.5678 221.718 46.8107C221.718 46.4572 221.596 46.162 221.351 45.9282C221.107 45.6933 220.724 45.5769 220.201 45.5769ZM218.804 55.5468C217.571 55.5468 216.603 55.1814 215.899 54.4511C215.196 53.7226 214.844 52.7104 214.844 51.419C214.844 50.1616 215.093 48.9549 215.592 47.8C216.091 46.6452 216.753 45.7474 217.578 45.1044C218.402 44.461 219.309 44.1406 220.301 44.1406C221.327 44.1406 222.097 44.3634 222.612 44.8092C223.128 45.2528 223.386 45.874 223.386 46.6708C223.386 47.8752 222.83 48.8206 221.718 49.506C220.606 50.1925 219.015 50.5358 216.945 50.5358H216.612L216.573 51.3393C216.573 52.2158 216.779 52.9 217.19 53.392C217.603 53.8847 218.241 54.1307 219.105 54.1307C219.527 54.1307 219.96 54.0708 220.407 53.9492C220.852 53.8283 221.406 53.6082 222.07 53.2878V54.7535C221.44 55.0468 220.884 55.2535 220.402 55.371C219.919 55.4873 219.387 55.5468 218.804 55.5468Z" fill="#FFFFFF"/>
<path d="M236.685 45.5361C236.041 45.5361 235.386 45.8538 234.72 46.49C234.053 47.1265 233.523 47.9251 233.133 48.8897C232.74 49.8534 232.544 50.8409 232.544 51.8515C232.544 52.5884 232.73 53.1513 233.102 53.5419C233.474 53.9347 234.011 54.1307 234.715 54.1307C235.378 54.1307 235.996 53.8595 236.569 53.3168C237.141 52.7741 237.602 52.0033 237.951 51.003C238.299 50.0018 238.473 48.9404 238.473 47.8153C238.473 46.2955 237.877 45.5361 236.685 45.5361ZM234.815 55.5266C234.166 55.5266 233.596 55.3576 233.107 55.0235C232.618 54.6887 232.239 54.2211 231.971 53.6185H231.871L231.831 53.9991C231.811 54.1662 231.775 54.4023 231.725 54.7024C231.674 55.0045 231.291 56.8573 230.574 60.2646H228.906L232.283 44.3214H233.68L233.418 46.4198H233.499C234.698 44.8996 235.945 44.1406 237.237 44.1406C238.155 44.1406 238.878 44.4667 239.408 45.12C239.937 45.7718 240.201 46.6879 240.201 47.8653C240.201 49.2848 239.971 50.5865 239.508 51.7707C239.046 52.9557 238.407 53.8782 237.589 54.5369C236.771 55.1956 235.848 55.5266 234.815 55.5266Z" fill="#FFFFFF"/>
<path d="M250.037 48.146C250.037 47.3763 249.828 46.7516 249.409 46.2737C248.99 45.7947 248.422 45.5552 247.705 45.5552C246.975 45.5552 246.32 45.8031 245.74 46.2997C245.162 46.7943 244.712 47.482 244.393 48.3622C244.076 49.2428 243.917 50.2203 243.917 51.2989C243.917 52.1765 244.129 52.8538 244.556 53.3313C244.98 53.8103 245.592 54.0491 246.389 54.0491C247.085 54.0491 247.713 53.8058 248.268 53.3176C248.824 52.8279 249.258 52.1334 249.57 51.2341C249.881 50.3332 250.037 49.3042 250.037 48.146ZM247.665 44.1406C248.938 44.1406 249.943 44.5163 250.68 45.2692C251.417 46.0232 251.786 47.0586 251.786 48.3775C251.786 49.6357 251.544 50.8229 251.062 51.9408C250.58 53.0602 249.926 53.9232 249.102 54.5323C248.279 55.1414 247.347 55.4454 246.308 55.4454C245.022 55.4454 244.014 55.0663 243.283 54.3107C242.553 53.5548 242.188 52.5205 242.188 51.2081C242.188 49.9373 242.433 48.7394 242.921 47.6185C243.411 46.4976 244.071 45.6376 244.902 45.0384C245.732 44.4396 246.653 44.1406 247.665 44.1406Z" fill="#FFFFFF"/>
<path d="M261.081 55.1441L260.76 49.1002C260.732 48.4709 260.719 47.8958 260.719 47.3737V45.8073H260.629L260.126 46.9915L259.293 48.8889L256.368 55.1441H254.338L253.906 44.1406H255.554L255.735 50.104V50.9877C255.735 51.9705 255.708 52.8714 255.655 53.6891H255.714C256.029 52.8576 256.488 51.7814 257.091 50.4553L260.056 44.1406H261.885L262.257 50.104C262.297 51.2284 262.317 52.1052 262.317 52.7352V53.2673L262.297 53.6891H262.357C262.545 53.1117 262.823 52.3817 263.192 51.4942C263.56 50.6071 264.642 48.157 266.438 44.1406H268.227L263.142 55.1441H261.081Z" fill="#FFFFFF"/>
<path d="M273.814 45.5769C273.124 45.5769 272.476 45.8908 271.869 46.5201C271.262 47.1502 270.798 48.0216 270.477 49.1399H270.598C272.126 49.1399 273.296 48.9415 274.11 48.5422C274.924 48.1452 275.331 47.5678 275.331 46.8107C275.331 46.4572 275.209 46.162 274.964 45.9282C274.72 45.6933 274.337 45.5769 273.814 45.5769ZM272.417 55.5468C271.184 55.5468 270.216 55.1814 269.512 54.4511C268.808 53.7226 268.457 52.7104 268.457 51.419C268.457 50.1616 268.706 48.9549 269.206 47.8C269.705 46.6452 270.367 45.7474 271.19 45.1044C272.014 44.461 272.922 44.1406 273.914 44.1406C274.939 44.1406 275.71 44.3634 276.226 44.8092C276.742 45.2528 276.999 45.874 276.999 46.6708C276.999 47.8752 276.444 48.8206 275.331 49.506C274.219 50.1925 272.628 50.5358 270.558 50.5358H270.225L270.185 51.3393C270.185 52.2158 270.391 52.9 270.803 53.392C271.216 53.8847 271.854 54.1307 272.718 54.1307C273.14 54.1307 273.574 54.0708 274.02 53.9492C274.465 53.8283 275.02 53.6082 275.683 53.2878V54.7535C275.053 55.0468 274.497 55.2535 274.015 55.371C273.532 55.4873 273 55.5468 272.417 55.5468Z" fill="#FFFFFF"/>
<path d="M285.188 44.1406C285.65 44.1406 286.052 44.1883 286.393 44.2817L286.031 45.7867C285.676 45.6997 285.324 45.657 284.977 45.657C284.367 45.657 283.796 45.8569 283.263 46.2596C282.73 46.6605 282.265 47.2184 281.866 47.9301C281.467 48.6429 281.174 49.4351 280.987 50.3054L279.911 55.3454H278.223L280.575 44.3416H281.972L281.751 46.379H281.851C282.334 45.744 282.731 45.2871 283.047 45.0087C283.362 44.731 283.692 44.5174 284.037 44.3672C284.381 44.215 284.765 44.1406 285.188 44.1406Z" fill="#FFFFFF"/>
<path d="M299.939 48.146C299.939 47.3763 299.73 46.7516 299.312 46.2737C298.892 45.7947 298.324 45.5552 297.608 45.5552C296.877 45.5552 296.222 45.8031 295.643 46.2997C295.064 46.7943 294.615 47.482 294.296 48.3622C293.978 49.2428 293.819 50.2203 293.819 51.2989C293.819 52.1765 294.031 52.8538 294.457 53.3313C294.883 53.8103 295.494 54.0491 296.291 54.0491C296.988 54.0491 297.614 53.8058 298.171 53.3176C298.726 52.8279 299.16 52.1334 299.472 51.2341C299.783 50.3332 299.939 49.3042 299.939 48.146ZM297.568 44.1406C298.84 44.1406 299.844 44.5163 300.582 45.2692C301.319 46.0232 301.688 47.0586 301.688 48.3775C301.688 49.6357 301.447 50.8229 300.965 51.9408C300.482 53.0602 299.829 53.9232 299.005 54.5323C298.18 55.1414 297.249 55.4454 296.21 55.4454C294.925 55.4454 293.916 55.0663 293.186 54.3107C292.456 53.5548 292.09 52.5205 292.09 51.2081C292.09 49.9373 292.335 48.7394 292.824 47.6185C293.313 46.4976 293.973 45.6376 294.804 45.0384C295.634 44.4396 296.556 44.1406 297.568 44.1406Z" fill="#FFFFFF"/>
<path d="M301.647 60.1263C301.185 60.1263 300.767 60.0542 300.391 59.915V58.5004C300.82 58.6465 301.195 58.7197 301.516 58.7197C302.025 58.7197 302.418 58.5119 302.692 58.0973C302.968 57.6823 303.189 57.0904 303.356 56.3212L305.637 45.4573H303.697L303.828 44.7849L305.898 44.1228L306.129 43.1179C306.438 41.7804 306.865 40.8345 307.411 40.2819C307.957 39.7293 308.766 39.4531 309.837 39.4531C310.106 39.4531 310.433 39.4924 310.822 39.5691C311.211 39.6453 311.512 39.7308 311.727 39.8246L311.295 41.1202C310.786 40.9272 310.327 40.8303 309.918 40.8303C309.335 40.8303 308.888 40.992 308.577 41.3162C308.265 41.64 308.012 42.2338 307.818 43.0973L307.567 44.1827H309.959L309.707 45.4573H307.325L304.994 56.4814C304.732 57.7457 304.33 58.6705 303.788 59.2521C303.245 59.8345 302.532 60.1263 301.647 60.1263Z" fill="#FFFFFF"/>
<path d="M315.332 55.3043L318.437 40.625H320.146L317.372 53.7581H323.051L322.719 55.3043H315.332Z" fill="#FFFFFF"/>
<path d="M333.044 48.146C333.044 47.3763 332.835 46.7516 332.417 46.2737C331.997 45.7947 331.429 45.5552 330.713 45.5552C329.983 45.5552 329.327 45.8031 328.748 46.2997C328.169 46.7943 327.72 47.482 327.401 48.3622C327.084 49.2428 326.924 50.2203 326.924 51.2989C326.924 52.1765 327.137 52.8538 327.563 53.3313C327.988 53.8103 328.6 54.0491 329.396 54.0491C330.093 54.0491 330.72 53.8058 331.276 53.3176C331.831 52.8279 332.266 52.1334 332.577 51.2341C332.889 50.3332 333.044 49.3042 333.044 48.146ZM330.673 44.1406C331.946 44.1406 332.95 44.5163 333.687 45.2692C334.424 46.0232 334.793 47.0586 334.793 48.3775C334.793 49.6357 334.552 50.8229 334.07 51.9408C333.587 53.0602 332.934 53.9232 332.11 54.5323C331.286 55.1414 330.354 55.4454 329.316 55.4454C328.03 55.4454 327.021 55.0663 326.291 54.3107C325.561 53.5548 325.195 52.5205 325.195 51.2081C325.195 49.9373 325.44 48.7394 325.929 47.6185C326.418 46.4976 327.079 45.6376 327.909 45.0384C328.74 44.4396 329.661 44.1406 330.673 44.1406Z" fill="#FFFFFF"/>
<path d="M336.753 44.1406H338.441L339.185 49.6128C339.253 50.0735 339.318 50.7558 339.382 51.6551C339.445 52.5556 339.476 53.2791 339.476 53.8287H339.537C339.772 53.247 340.063 52.5777 340.411 51.8203C340.76 51.0647 341.018 50.5426 341.185 50.2539L344.452 44.1406H346.24L339.246 57.0106C338.623 58.1631 338.006 58.9633 337.396 59.4118C336.786 59.8592 336.053 60.0842 335.196 60.0842C334.713 60.0842 334.244 60.0121 333.789 59.8729V58.5178C334.211 58.6387 334.65 58.6982 335.105 58.6982C335.655 58.6982 336.126 58.5293 336.518 58.1914C336.91 57.8538 337.29 57.3523 337.657 56.6902L338.422 55.3256L336.753 44.1406Z" fill="#FFFFFF"/>
<path d="M349.817 54.1509C350.466 54.1509 351.113 53.8405 351.756 53.2211C352.399 52.6033 352.922 51.7962 353.324 50.8012C353.727 49.8084 353.927 48.8115 353.927 47.8153C353.927 47.1265 353.739 46.5773 353.364 46.1692C352.989 45.7611 352.497 45.5563 351.887 45.5563C351.19 45.5563 350.542 45.8447 349.943 46.4198C349.342 46.9949 348.873 47.7745 348.531 48.7592C348.189 49.7436 348.018 50.781 348.018 51.8718C348.018 52.6345 348.175 53.2058 348.491 53.583C348.805 53.9614 349.247 54.1509 349.817 54.1509ZM351.726 44.1406C352.343 44.1406 352.892 44.3054 353.375 44.6364C353.857 44.9698 354.232 45.4454 354.5 46.0685H354.61L355.284 44.3416H356.561L354.218 55.3454H352.882L353.143 53.2467H353.063C351.863 54.7783 350.601 55.5468 349.274 55.5468C348.343 55.5468 347.613 55.2139 347.083 54.5518C346.554 53.8897 346.289 52.982 346.289 51.8306C346.289 50.4396 346.527 49.1464 347.003 47.9557C347.479 46.7646 348.135 45.8313 348.972 45.1555C349.81 44.4782 350.728 44.1406 351.726 44.1406Z" fill="#FFFFFF"/>
<path d="M359.163 55.0759H357.473L360.81 39.4531H362.5L359.163 55.0759Z" fill="#FFFFFF"/>
<path d="M366.152 54.1558C366.522 54.1558 367.003 54.0677 367.602 53.8941V55.1897C367.373 55.2835 367.091 55.3632 366.755 55.4319C366.419 55.4979 366.152 55.5322 365.95 55.5322C365.115 55.5322 364.474 55.3327 364.028 54.9334C363.582 54.5364 363.361 53.9418 363.361 53.1516C363.361 52.7095 363.418 52.2088 363.54 51.6459L364.817 45.6012H363.086L363.227 44.8697L365.088 44.0871L366.343 41.7969H367.327L366.778 44.3274H369.531L369.268 45.6012H366.526L365.229 51.6661C365.107 52.2481 365.046 52.6897 365.046 52.9918C365.046 53.3667 365.145 53.6539 365.34 53.8552C365.534 54.0566 365.805 54.1558 366.152 54.1558Z" fill="#FFFFFF"/>
<path d="M369.858 44.1406H371.547L372.291 49.6128C372.356 50.0735 372.424 50.7558 372.485 51.6551C372.55 52.5556 372.581 53.2791 372.581 53.8287H372.642C372.878 53.247 373.168 52.5777 373.515 51.8203C373.866 51.0647 374.122 50.5426 374.289 50.2539L377.558 44.1406H379.347L372.352 57.0106C371.726 58.1631 371.112 58.9633 370.502 59.4118C369.892 59.8592 369.156 60.0842 368.302 60.0842C367.817 60.0842 367.348 60.0121 366.894 59.8729V58.5178C367.318 58.6387 367.756 58.6982 368.21 58.6982C368.759 58.6982 369.232 58.5293 369.621 58.1914C370.014 57.8538 370.395 57.3523 370.762 56.6902L371.528 55.3256L369.858 44.1406Z" fill="#FFFFFF"/>
<path d="M385.786 41.1338H386.026C386.301 41.1338 386.526 41.0385 386.526 40.8161C386.526 40.6182 386.381 40.4839 386.064 40.4839C385.931 40.4839 385.839 40.5007 385.786 40.5144V41.1338ZM385.775 42.3421H385.271V40.1853C385.469 40.1544 385.748 40.1151 386.103 40.1151C386.514 40.1151 386.698 40.1853 386.842 40.2894C386.976 40.3798 387.067 40.54 387.067 40.7517C387.067 41.0129 386.869 41.1853 386.617 41.2635V41.2894C386.831 41.3543 386.934 41.5274 386.999 41.818C387.068 42.1475 387.121 42.2639 387.159 42.3421H386.633C386.568 42.2639 386.526 42.0823 386.461 41.818C386.419 41.5926 386.289 41.4885 386.011 41.4885H385.775V42.3421ZM384.44 41.2242C384.44 42.1865 385.168 42.9527 386.129 42.9527C387.068 42.9649 387.777 42.1864 387.777 41.2379C387.777 40.2757 387.067 39.4954 386.103 39.4954C385.168 39.4954 384.44 40.2757 384.44 41.2242ZM388.334 41.2242C388.334 42.437 387.357 43.3977 386.118 43.3977C384.875 43.3977 383.887 42.437 383.887 41.2242C383.887 40.011 384.875 39.0625 386.129 39.0625C387.357 39.0625 388.334 40.011 388.334 41.2242Z" fill="#FFFFFF"/>
</g>
<defs>
<clipPath id="clip0">
<rect width="400" height="60" fill="white"/>
</clipPath>
</defs>
</svg>
