<?xml version="1.0" encoding="UTF-8" standalone="no"?><!DOCTYPE svg PUBLIC "-//W3C//DTD SVG 1.1//EN" "http://www.w3.org/Graphics/SVG/1.1/DTD/svg11.dtd"><svg width="100%" height="100%" viewBox="0 0 281 280" version="1.1" xmlns="http://www.w3.org/2000/svg" xmlns:xlink="http://www.w3.org/1999/xlink" xml:space="preserve" xmlns:serif="http://www.serif.com/" style="fill-rule:evenodd;clip-rule:evenodd;stroke-linejoin:round;stroke-miterlimit:2;"><rect id="ico_driven" x="0.672" y="0" width="280" height="280" style="fill:none;"/><g><ellipse cx="141.018" cy="119.57" rx="60.601" ry="60.601" style="fill:#121d3f;"/><g><path d="M70.307,225.92l7.464,0c5.277,0 8.51,-3.064 8.51,-8.753c0,-5.373 -3.185,-8.607 -8.51,-8.607l-7.464,0l0,17.36Zm4.522,-13.47l2.14,0c3.088,0 4.79,1.532 4.79,4.693c0,3.477 -1.362,4.814 -4.79,4.887l-2.14,0l0,-9.58Z" style="fill:#121d3f;fill-rule:nonzero;"/><path d="M92.044,222.297c0,-0.997 0.778,-1.386 1.702,-1.605c0.899,-0.243 1.969,-0.316 2.553,-0.68c0.097,2.601 -0.559,3.72 -2.529,3.72c-0.924,0 -1.726,-0.414 -1.726,-1.435Zm0.243,-5.106c0.194,-1.07 0.924,-1.58 2.067,-1.58c0.851,0 1.993,0.365 1.993,1.313c0,0.778 -0.389,1.021 -1.094,1.167c-2.869,0.583 -7.343,0.267 -7.343,4.376c0,2.602 1.897,3.818 4.304,3.818c1.507,0 3.088,-0.438 4.158,-1.556c0.048,0.413 0.097,0.802 0.243,1.191l4.158,0c-0.487,-0.997 -0.487,-2.164 -0.487,-3.234l0,-5.519c0,-3.574 -2.893,-4.231 -5.884,-4.231c-1.434,0 -2.893,0.243 -4.012,0.876c-1.118,0.656 -1.896,1.726 -1.969,3.379l3.866,0Z" style="fill:#121d3f;fill-rule:nonzero;"/><path d="M110.62,213.301l-2.553,0l0,-3.817l-4.134,0l0,3.817l-2.091,0l0,2.675l2.091,0l0,5.616c0,3.428 0.9,4.45 4.426,4.45c0.753,0 1.507,-0.098 2.261,-0.122l0,-3.039c-0.365,0 -0.73,0.048 -1.07,0.048c-0.9,0 -1.483,-0.218 -1.483,-1.215l0,-5.738l2.553,0l0,-2.675Z" style="fill:#121d3f;fill-rule:nonzero;"/><path d="M115.92,222.297c0,-0.997 0.778,-1.386 1.702,-1.605c0.9,-0.243 1.97,-0.316 2.553,-0.68c0.098,2.601 -0.559,3.72 -2.528,3.72c-0.924,0 -1.727,-0.414 -1.727,-1.435Zm0.243,-5.106c0.195,-1.07 0.924,-1.58 2.067,-1.58c0.851,0 1.994,0.365 1.994,1.313c0,0.778 -0.389,1.021 -1.094,1.167c-2.869,0.583 -7.343,0.267 -7.343,4.376c0,2.602 1.896,3.818 4.303,3.818c1.508,0 3.088,-0.438 4.158,-1.556c0.049,0.413 0.097,0.802 0.243,1.191l4.158,0c-0.486,-0.997 -0.486,-2.164 -0.486,-3.234l0,-5.519c0,-3.574 -2.894,-4.231 -5.884,-4.231c-1.435,0 -2.894,0.243 -4.012,0.876c-1.119,0.656 -1.897,1.726 -1.97,3.379l3.866,0Z" style="fill:#121d3f;fill-rule:nonzero;"/><path d="M134.715,225.92l7.465,0c5.276,0 8.509,-3.064 8.509,-8.753c0,-5.373 -3.185,-8.607 -8.509,-8.607l-7.465,0l0,17.36Zm4.523,-13.47l2.139,0c3.088,0 4.79,1.532 4.79,4.693c0,3.477 -1.362,4.814 -4.79,4.887l-2.139,0l0,-9.58Z" style="fill:#121d3f;fill-rule:nonzero;"/><path d="M153.145,225.92l4.134,0l0,-6.249c0,-1.58 1.069,-2.99 3.112,-2.99c0.559,0 1.045,0.097 1.58,0.243l0,-3.769c-0.316,-0.073 -0.656,-0.097 -0.972,-0.097c-1.775,0 -3.185,0.851 -3.793,2.456l-0.049,0l0,-2.213l-4.012,0l0,12.619Z" style="fill:#121d3f;fill-rule:nonzero;"/><path d="M163.503,225.92l4.133,0l0,-12.619l-4.133,0l0,12.619Zm4.133,-17.36l-4.133,0l0,3.161l4.133,0l0,-3.161Z" style="fill:#121d3f;fill-rule:nonzero;"/><path d="M182.298,213.301l-4.207,0l-2.334,8.34l-0.048,0l-2.31,-8.34l-4.304,0l4.207,12.619l4.765,0l4.231,-12.619Z" style="fill:#121d3f;fill-rule:nonzero;"/><path d="M187.136,218.31c0.243,-1.532 1.216,-2.578 2.675,-2.578c1.386,0 2.383,1.167 2.456,2.578l-5.131,0Zm9.264,2.31c0.195,-4.28 -2.067,-7.684 -6.589,-7.684c-3.72,0 -6.808,2.772 -6.808,6.638c0,4.231 2.796,6.711 6.905,6.711c2.821,0 5.519,-1.265 6.273,-4.182l-3.866,0c-0.389,0.924 -1.361,1.386 -2.358,1.386c-1.751,0 -2.748,-1.143 -2.821,-2.869l9.264,0Z" style="fill:#121d3f;fill-rule:nonzero;"/><path d="M198.467,225.92l4.133,0l0,-6.881c0,-1.386 0.681,-2.699 2.237,-2.699c2.261,0 2.067,1.751 2.067,3.477l0,6.103l4.133,0l0,-8.097c0,-1.823 -0.34,-4.887 -4.547,-4.887c-1.507,0 -3.209,0.803 -3.963,2.091l-0.048,0l0,-1.726l-4.012,0l0,12.619Z" style="fill:#121d3f;fill-rule:nonzero;"/><path d="M96.398,239.079c0.017,3.168 2.528,4.415 5.367,4.415c2.719,0 5.385,-1.004 5.385,-4.138c0,-2.234 -1.801,-3.065 -3.584,-3.567c-1.801,-0.502 -3.584,-0.675 -3.584,-1.627c0,-0.814 0.866,-1.057 1.558,-1.057c0.987,0 2.043,0.364 1.991,1.489l3.221,0c-0.018,-2.787 -2.494,-3.982 -4.952,-3.982c-2.32,0 -5.039,1.056 -5.039,3.757c0,2.268 1.853,3.065 3.619,3.567c1.783,0.502 3.549,0.71 3.549,1.801c0,0.917 -1.004,1.264 -1.973,1.264c-1.368,0 -2.269,-0.468 -2.338,-1.922l-3.22,0Z" style="fill:#121d3f;fill-rule:nonzero;"/><path d="M113.954,234.248l-1.818,0l0,-2.718l-2.943,0l0,2.718l-1.489,0l0,1.905l1.489,0l0,3.999c0,2.442 0.641,3.169 3.151,3.169c0.537,0 1.074,-0.07 1.61,-0.087l0,-2.164c-0.259,0 -0.519,0.035 -0.761,0.035c-0.641,0 -1.057,-0.156 -1.057,-0.866l0,-4.086l1.818,0l0,-1.905Z" style="fill:#121d3f;fill-rule:nonzero;"/><path d="M115.374,243.234l2.943,0l0,-4.45c0,-1.125 0.762,-2.129 2.217,-2.129c0.398,0 0.744,0.069 1.125,0.173l0,-2.684c-0.225,-0.052 -0.467,-0.069 -0.692,-0.069c-1.264,0 -2.269,0.606 -2.701,1.749l-0.035,0l0,-1.576l-2.857,0l0,8.986Z" style="fill:#121d3f;fill-rule:nonzero;"/><path d="M125.105,240.654c0,-0.71 0.554,-0.987 1.212,-1.142c0.64,-0.174 1.402,-0.225 1.818,-0.485c0.069,1.852 -0.399,2.649 -1.801,2.649c-0.658,0 -1.229,-0.294 -1.229,-1.022Zm0.173,-3.636c0.138,-0.761 0.658,-1.125 1.471,-1.125c0.606,0 1.42,0.26 1.42,0.935c0,0.554 -0.277,0.727 -0.779,0.831c-2.043,0.416 -5.229,0.19 -5.229,3.117c0,1.852 1.351,2.718 3.065,2.718c1.073,0 2.199,-0.312 2.961,-1.108c0.034,0.294 0.069,0.571 0.173,0.848l2.96,0c-0.346,-0.71 -0.346,-1.541 -0.346,-2.303l0,-3.93c0,-2.545 -2.06,-3.013 -4.19,-3.013c-1.021,0 -2.06,0.174 -2.857,0.624c-0.796,0.467 -1.35,1.229 -1.402,2.406l2.753,0Z" style="fill:#121d3f;fill-rule:nonzero;"/><path d="M138.333,234.248l-1.818,0l0,-2.718l-2.944,0l0,2.718l-1.489,0l0,1.905l1.489,0l0,3.999c0,2.442 0.641,3.169 3.151,3.169c0.537,0 1.074,-0.07 1.611,-0.087l0,-2.164c-0.26,0 -0.52,0.035 -0.762,0.035c-0.641,0 -1.056,-0.156 -1.056,-0.866l0,-4.086l1.818,0l0,-1.905Z" style="fill:#121d3f;fill-rule:nonzero;"/><path d="M142.159,237.815c0.173,-1.091 0.866,-1.835 1.905,-1.835c0.987,0 1.696,0.831 1.748,1.835l-3.653,0Zm6.597,1.645c0.138,-3.048 -1.472,-5.472 -4.692,-5.472c-2.649,0 -4.848,1.974 -4.848,4.727c0,3.013 1.991,4.779 4.917,4.779c2.008,0 3.93,-0.9 4.467,-2.978l-2.753,0c-0.277,0.658 -0.97,0.987 -1.68,0.987c-1.246,0 -1.956,-0.814 -2.008,-2.043l6.597,0Z" style="fill:#121d3f;fill-rule:nonzero;"/><path d="M156.132,238.507c0,1.126 -0.537,2.095 -1.784,2.095c-1.212,0 -1.697,-1.056 -1.697,-2.112c0,-1.108 0.416,-2.251 1.715,-2.251c1.315,0 1.766,1.126 1.766,2.268Zm2.787,-4.259l-2.822,0l0,1.126l-0.035,0c-0.519,-0.918 -1.333,-1.386 -2.406,-1.386c-2.546,0 -3.948,2.009 -3.948,4.398c0,2.528 1.229,4.467 3.948,4.467c0.952,0 1.852,-0.485 2.389,-1.316l0.035,0l0,0.849c0,1.108 -0.139,2.095 -1.541,2.095c-0.451,0 -0.814,-0.052 -1.074,-0.191c-0.277,-0.138 -0.433,-0.381 -0.502,-0.779l-2.943,0c0.346,2.407 2.32,2.874 4.415,2.874c4.207,0 4.484,-2.77 4.484,-4.242l0,-7.895Z" style="fill:#121d3f;fill-rule:nonzero;"/><path d="M160.91,243.234l2.944,0l0,-8.986l-2.944,0l0,8.986Zm2.944,-12.362l-2.944,0l0,2.251l2.944,0l0,-2.251Z" style="fill:#121d3f;fill-rule:nonzero;"/><path d="M168.442,237.815c0.173,-1.091 0.866,-1.835 1.904,-1.835c0.987,0 1.697,0.831 1.749,1.835l-3.653,0Zm6.597,1.645c0.138,-3.048 -1.472,-5.472 -4.693,-5.472c-2.649,0 -4.848,1.974 -4.848,4.727c0,3.013 1.992,4.779 4.918,4.779c2.008,0 3.93,-0.9 4.467,-2.978l-2.753,0c-0.277,0.658 -0.97,0.987 -1.68,0.987c-1.246,0 -1.956,-0.814 -2.008,-2.043l6.597,0Z" style="fill:#121d3f;fill-rule:nonzero;"/><path d="M175.991,240.273c0.086,2.511 2.268,3.221 4.398,3.221c2.025,0 4.311,-0.797 4.311,-3.203c0,-0.745 -0.468,-2.061 -2.286,-2.424c-1.35,-0.295 -3.324,-0.45 -3.324,-1.299c0,-0.623 0.779,-0.675 1.264,-0.675c0.364,0 0.693,0.069 0.935,0.225c0.242,0.156 0.381,0.398 0.381,0.779l2.718,0c-0.104,-2.337 -2.164,-2.909 -4.138,-2.909c-1.766,0 -4.103,0.589 -4.103,2.753c0,2.424 2.32,2.476 4.172,2.944c0.52,0.121 1.437,0.259 1.437,0.952c0,0.71 -0.813,0.952 -1.385,0.952c-0.415,0 -0.813,-0.104 -1.09,-0.311c-0.295,-0.225 -0.485,-0.554 -0.485,-1.005l-2.805,0Z" style="fill:#121d3f;fill-rule:nonzero;"/></g><g><g><path d="M188.924,162.34c1.423,-1.422 1.423,-3.731 0,-5.154l-14.863,-14.863c-1.422,-1.422 -3.732,-1.422 -5.154,0l-5.154,5.154c-1.422,1.422 -1.422,3.731 0,5.153l14.864,14.864c1.422,1.422 3.731,1.422 5.154,0l5.153,-5.154Z" style="fill-opacity:0.4;"/><path d="M98.153,167.494c1.422,1.422 3.732,1.422 5.154,0l14.863,-14.864c1.423,-1.422 1.423,-3.731 0,-5.153l-5.153,-5.154c-1.423,-1.422 -3.732,-1.422 -5.154,0l-14.864,14.863c-1.422,1.423 -1.422,3.732 0,5.154l5.154,5.154Z" style="fill-opacity:0.4;"/><path d="M118.17,91.586c1.423,-1.422 1.423,-3.731 0,-5.154l-14.863,-14.863c-1.422,-1.423 -3.732,-1.423 -5.154,0l-5.154,5.154c-1.422,1.422 -1.422,3.731 0,5.153l14.864,14.864c1.422,1.422 3.731,1.422 5.154,0l5.153,-5.154Z" style="fill-opacity:0.4;"/><path d="M168.907,96.74c1.422,1.422 3.732,1.422 5.154,0l14.863,-14.864c1.423,-1.422 1.423,-3.731 0,-5.153l-5.153,-5.154c-1.423,-1.423 -3.732,-1.423 -5.154,0l-14.864,14.863c-1.422,1.423 -1.422,3.732 0,5.154l5.154,5.154Z" style="fill-opacity:0.4;"/></g><g><path d="M195.851,168.561c1.627,-1.628 1.627,-4.271 0,-5.898l-17.01,-17.01c-1.628,-1.628 -4.271,-1.628 -5.898,0l-5.898,5.898c-1.628,1.627 -1.628,4.27 0,5.898l17.01,17.01c1.627,1.627 4.27,1.627 5.898,0l5.898,-5.898Z" style="fill:#84b4e1;"/><path d="M91.971,174.459c1.627,1.627 4.27,1.627 5.898,0l17.01,-17.01c1.628,-1.628 1.628,-4.271 0,-5.898l-5.898,-5.898c-1.628,-1.628 -4.271,-1.628 -5.898,0l-17.01,17.01c-1.628,1.627 -1.628,4.27 0,5.898l5.898,5.898Z" style="fill:#84b4e1;"/><path d="M114.879,87.589c1.628,-1.628 1.628,-4.271 0,-5.898l-17.01,-17.01c-1.628,-1.628 -4.271,-1.628 -5.898,0l-5.898,5.898c-1.628,1.627 -1.628,4.27 0,5.898l17.01,17.01c1.627,1.628 4.27,1.628 5.898,0l5.898,-5.898Z" style="fill:#84b4e1;"/><path d="M172.943,93.487c1.627,1.628 4.27,1.628 5.898,0l17.01,-17.01c1.627,-1.628 1.627,-4.271 0,-5.898l-5.898,-5.898c-1.628,-1.628 -4.271,-1.628 -5.898,0l-17.01,17.01c-1.628,1.627 -1.628,4.27 0,5.898l5.898,5.898Z" style="fill:#84b4e1;"/></g><g><path d="M162.018,138.363c0.624,-0.624 0.624,-1.638 0,-2.262l-6.525,-6.526c-0.625,-0.624 -1.639,-0.624 -2.263,0l-2.262,2.263c-0.625,0.624 -0.625,1.638 0,2.263l6.525,6.525c0.624,0.624 1.638,0.624 2.262,0l2.263,-2.263Z" style="fill:#fff;"/><path d="M122.168,140.626c0.625,0.624 1.638,0.624 2.263,0l6.525,-6.525c0.624,-0.625 0.624,-1.639 0,-2.263l-2.262,-2.263c-0.625,-0.624 -1.639,-0.624 -2.263,0l-6.525,6.526c-0.625,0.624 -0.625,1.638 0,2.262l2.262,2.263Z" style="fill:#fff;"/><path d="M130.956,107.301c0.624,-0.624 0.624,-1.638 0,-2.262l-6.525,-6.525c-0.625,-0.625 -1.638,-0.625 -2.263,0l-2.262,2.262c-0.625,0.625 -0.625,1.638 0,2.263l6.525,6.525c0.624,0.624 1.638,0.624 2.263,0l2.262,-2.263Z" style="fill:#fff;"/><path d="M153.23,109.564c0.624,0.624 1.638,0.624 2.263,0l6.525,-6.525c0.624,-0.625 0.624,-1.638 0,-2.263l-2.263,-2.262c-0.624,-0.625 -1.638,-0.625 -2.262,0l-6.525,6.525c-0.625,0.624 -0.625,1.638 0,2.262l2.262,2.263Z" style="fill:#fff;"/></g></g></g></svg>