<?xml version="1.0" encoding="UTF-8" standalone="no"?><!DOCTYPE svg PUBLIC "-//W3C//DTD SVG 1.1//EN" "http://www.w3.org/Graphics/SVG/1.1/DTD/svg11.dtd"><svg width="100%" height="100%" viewBox="0 0 281 280" version="1.1" xmlns="http://www.w3.org/2000/svg" xmlns:xlink="http://www.w3.org/1999/xlink" xml:space="preserve" xmlns:serif="http://www.serif.com/" style="fill-rule:evenodd;clip-rule:evenodd;stroke-linejoin:round;stroke-miterlimit:2;"><rect id="ico_consumer" x="0.307" y="0" width="280" height="280" style="fill:none;"/><g><path d="M145.289,51.287c0,-0.441 -9.419,-0.441 -9.419,0l-2.048,8.7c0,0.442 13.37,0.524 13.37,0.083l-1.903,-8.783Z" style="fill:#255e0f;"/><path d="M133.887,190.896c0,0.628 13.385,0.628 13.385,0l2.911,-12.362c0,-0.628 -18.999,-0.746 -18.999,-0.118l2.703,12.48Z" style="fill:#175300;"/><ellipse cx="140.58" cy="119.558" rx="60.601" ry="60.601" style="fill:#121d3f;"/><ellipse cx="140.58" cy="111.527" rx="16.06" ry="16.06" style="fill-opacity:0.4;"/><ellipse cx="140.58" cy="108.788" rx="13.994" ry="13.994" style="fill:#84b4e1;"/><circle cx="140.58" cy="108.788" r="8.721" style="fill:#fff;"/><g id="flecha"><path d="M140.58,86.128c-2.584,0 -9.043,-8.913 -7.751,-10.695c1.292,-1.783 14.21,-1.783 15.501,0c1.292,1.782 -5.167,10.695 -7.75,10.695Z" style="fill:#6bc349;"/><path d="M145.289,50.739c0,-1.029 -9.419,-1.029 -9.419,0l0,19.879c0,1.029 9.419,1.029 9.419,0l0,-19.879Z" style="fill:#6bc349;"/></g><g id="flecha1" serif:id="flecha"><path d="M140.58,134.176c3.671,0 12.85,12.666 11.014,15.199c-1.836,2.533 -20.193,2.533 -22.028,0c-1.836,-2.533 7.342,-15.199 11.014,-15.199Z" style="fill:#6bc349;"/><path d="M133.887,191.439c0,1.778 13.385,1.778 13.385,0l0,-34.333c0,-1.778 -13.385,-1.778 -13.385,0l0,34.333Z" style="fill:#6bc349;"/></g><g><path d="M46.284,214.748c-0.122,-4.182 -4.182,-6.565 -7.927,-6.565c-5.251,0 -8.655,4.012 -8.655,9.045c0,5.033 3.404,9.045 8.655,9.045c4.401,0 7.684,-2.626 7.927,-7.1l-4.523,0c-0.17,1.994 -1.385,3.21 -3.501,3.21c-2.918,0 -4.036,-2.578 -4.036,-5.155c0,-2.577 1.118,-5.155 4.036,-5.155c1.897,0 3.258,0.924 3.501,2.675l4.523,0Z" style="fill:#121d3f;fill-rule:nonzero;"/><path d="M52.046,219.611c0,-1.605 0.584,-3.526 2.505,-3.526c1.92,0 2.528,1.921 2.528,3.526c0,1.605 -0.608,3.501 -2.528,3.501c-1.921,0 -2.505,-1.896 -2.505,-3.501Zm-4.133,0c0,3.793 2.723,6.662 6.638,6.662c3.914,0 6.662,-2.869 6.662,-6.662c0,-3.793 -2.748,-6.687 -6.662,-6.687c-3.915,0 -6.638,2.894 -6.638,6.687Z" style="fill:#121d3f;fill-rule:nonzero;"/><path d="M63.377,225.908l4.133,0l0,-6.881c0,-1.386 0.681,-2.699 2.237,-2.699c2.261,0 2.067,1.751 2.067,3.477l0,6.103l4.133,0l0,-8.096c0,-1.824 -0.34,-4.888 -4.547,-4.888c-1.507,0 -3.209,0.803 -3.963,2.091l-0.048,0l0,-1.726l-4.012,0l0,12.619Z" style="fill:#121d3f;fill-rule:nonzero;"/><path d="M77.965,221.75c0.122,3.526 3.185,4.523 6.176,4.523c2.845,0 6.054,-1.119 6.054,-4.498c0,-1.046 -0.656,-2.894 -3.209,-3.404c-1.897,-0.414 -4.669,-0.632 -4.669,-1.824c0,-0.875 1.095,-0.948 1.775,-0.948c0.511,0 0.973,0.097 1.313,0.316c0.341,0.219 0.535,0.559 0.535,1.094l3.818,0c-0.146,-3.282 -3.04,-4.085 -5.812,-4.085c-2.48,0 -5.762,0.827 -5.762,3.866c0,3.404 3.258,3.477 5.86,4.134c0.729,0.17 2.018,0.364 2.018,1.337c0,0.997 -1.143,1.337 -1.945,1.337c-0.584,0 -1.143,-0.146 -1.532,-0.437c-0.413,-0.316 -0.681,-0.778 -0.681,-1.411l-3.939,0Z" style="fill:#121d3f;fill-rule:nonzero;"/><path d="M104.759,213.289l-4.133,0l0,6.759c0,2.237 -1.362,2.821 -2.261,2.821c-1.313,0 -2.043,-0.584 -2.043,-2.261l0,-7.319l-4.133,0l0,7.586c0,3.307 1.045,5.398 4.668,5.398c1.459,0 3.064,-0.803 3.842,-2.091l0.048,0l0,1.726l4.012,0l0,-12.619Z" style="fill:#121d3f;fill-rule:nonzero;"/><path d="M107.531,225.908l4.134,0l0,-6.151c0,-2.578 0.632,-3.429 2.115,-3.429c1.118,0 1.556,0.924 1.556,2.407l0,7.173l4.133,0l0,-6.176c0,-2.042 0.171,-3.404 1.946,-3.404c1.069,0 1.726,0.803 1.726,2.164l0,7.416l4.133,0l0,-7.537c0,-2.407 -0.437,-5.447 -4.449,-5.447c-1.702,0 -2.942,0.706 -3.939,2.043c-0.681,-1.532 -2.091,-2.043 -3.672,-2.043c-1.531,0 -2.869,0.827 -3.622,2.091l-0.049,0l0,-1.726l-4.012,0l0,12.619Z" style="fill:#121d3f;fill-rule:nonzero;"/><path d="M133.572,218.298c0.243,-1.532 1.215,-2.577 2.674,-2.577c1.386,0 2.383,1.167 2.456,2.577l-5.13,0Zm9.263,2.31c0.195,-4.28 -2.066,-7.684 -6.589,-7.684c-3.72,0 -6.808,2.772 -6.808,6.638c0,4.231 2.796,6.711 6.905,6.711c2.821,0 5.52,-1.264 6.273,-4.182l-3.866,0c-0.389,0.924 -1.361,1.386 -2.358,1.386c-1.751,0 -2.747,-1.143 -2.82,-2.869l9.263,0Z" style="fill:#121d3f;fill-rule:nonzero;"/><path d="M145.048,225.908l4.133,0l0,-6.249c0,-1.58 1.07,-2.99 3.112,-2.99c0.56,0 1.046,0.097 1.581,0.243l0,-3.769c-0.316,-0.073 -0.657,-0.097 -0.973,-0.097c-1.775,0 -3.185,0.851 -3.793,2.456l-0.048,0l0,-2.213l-4.012,0l0,12.619Z" style="fill:#121d3f;fill-rule:nonzero;"/><path d="M179.136,214.748c-0.121,-4.182 -4.182,-6.565 -7.926,-6.565c-5.252,0 -8.656,4.012 -8.656,9.045c0,5.033 3.404,9.045 8.656,9.045c4.401,0 7.683,-2.626 7.926,-7.1l-4.522,0c-0.17,1.994 -1.386,3.21 -3.501,3.21c-2.918,0 -4.037,-2.578 -4.037,-5.155c0,-2.577 1.119,-5.155 4.037,-5.155c1.896,0 3.258,0.924 3.501,2.675l4.522,0Z" style="fill:#121d3f;fill-rule:nonzero;"/><path d="M184.899,218.298c0.243,-1.532 1.215,-2.577 2.674,-2.577c1.386,0 2.383,1.167 2.456,2.577l-5.13,0Zm9.263,2.31c0.195,-4.28 -2.066,-7.684 -6.589,-7.684c-3.72,0 -6.808,2.772 -6.808,6.638c0,4.231 2.796,6.711 6.905,6.711c2.821,0 5.52,-1.264 6.274,-4.182l-3.866,0c-0.389,0.924 -1.362,1.386 -2.359,1.386c-1.75,0 -2.747,-1.143 -2.82,-2.869l9.263,0Z" style="fill:#121d3f;fill-rule:nonzero;"/><path d="M196.229,225.908l4.133,0l0,-6.881c0,-1.386 0.681,-2.699 2.237,-2.699c2.262,0 2.067,1.751 2.067,3.477l0,6.103l4.133,0l0,-8.096c0,-1.824 -0.34,-4.888 -4.546,-4.888c-1.508,0 -3.21,0.803 -3.963,2.091l-0.049,0l0,-1.726l-4.012,0l0,12.619Z" style="fill:#121d3f;fill-rule:nonzero;"/><path d="M219.157,213.289l-2.553,0l0,-3.817l-4.133,0l0,3.817l-2.091,0l0,2.675l2.091,0l0,5.616c0,3.429 0.9,4.45 4.425,4.45c0.754,0 1.508,-0.098 2.261,-0.122l0,-3.039c-0.364,0 -0.729,0.049 -1.07,0.049c-0.899,0 -1.483,-0.219 -1.483,-1.216l0,-5.738l2.553,0l0,-2.675Z" style="fill:#121d3f;fill-rule:nonzero;"/><path d="M221.151,225.908l4.133,0l0,-6.249c0,-1.58 1.07,-2.99 3.113,-2.99c0.559,0 1.045,0.097 1.58,0.243l0,-3.769c-0.316,-0.073 -0.656,-0.097 -0.972,-0.097c-1.775,0 -3.186,0.851 -3.793,2.456l-0.049,0l0,-2.213l-4.012,0l0,12.619Z" style="fill:#121d3f;fill-rule:nonzero;"/><path d="M231.509,225.908l4.133,0l0,-12.619l-4.133,0l0,12.619Zm4.133,-17.36l-4.133,0l0,3.161l4.133,0l0,-3.161Z" style="fill:#121d3f;fill-rule:nonzero;"/><path d="M250.79,217.909c-0.292,-3.331 -3.088,-4.985 -6.224,-4.985c-4.061,0 -6.614,2.869 -6.614,6.881c0,3.866 2.821,6.468 6.614,6.468c3.355,0 5.981,-1.945 6.346,-5.325l-4.012,0c-0.195,1.337 -0.924,2.164 -2.359,2.164c-1.75,0 -2.455,-1.678 -2.455,-3.307c0,-1.75 0.364,-3.72 2.674,-3.72c1.046,0 1.994,0.754 2.018,1.824l4.012,0Z" style="fill:#121d3f;fill-rule:nonzero;"/></g></g></svg>