<?xml version="1.0" encoding="UTF-8" standalone="no"?><!DOCTYPE svg PUBLIC "-//W3C//DTD SVG 1.1//EN" "http://www.w3.org/Graphics/SVG/1.1/DTD/svg11.dtd"><svg width="100%" height="100%" viewBox="0 0 281 280" version="1.1" xmlns="http://www.w3.org/2000/svg" xmlns:xlink="http://www.w3.org/1999/xlink" xml:space="preserve" xmlns:serif="http://www.serif.com/" style="fill-rule:evenodd;clip-rule:evenodd;stroke-linejoin:round;stroke-miterlimit:2;"><rect id="ico_tailor" x="0.166" y="0" width="280" height="280" style="fill:none;"/><g><path d="M96.206,78.441l21.102,21.102l-9.156,9.157c-5.993,5.993 -5.993,15.723 0,21.716l9.156,9.157l-21.101,21.102c-21.427,-23.172 -21.427,-59.063 -0.001,-82.234Zm85.636,85.636c-23.171,21.426 -59.063,21.426 -82.233,0l21.102,-21.102l9.156,9.157c5.994,5.992 15.724,5.992 21.716,0l9.157,-9.157l21.102,21.102Zm3.402,-85.636c21.427,23.171 21.427,59.063 0,82.234l-21.102,-21.102l9.157,-9.157c5.993,-5.993 5.993,-15.722 0,-21.716l-9.157,-9.157l21.102,-21.102Zm-3.402,-3.402l-21.102,21.102l-9.157,-9.157c-5.993,-5.993 -15.723,-5.992 -21.716,0l-9.156,9.157l-21.102,-21.102c23.171,-21.427 59.063,-21.426 82.233,0Z" style="fill:#121d3f;"/><path d="M169.122,129.023c5.224,-5.224 5.224,-13.706 0,-18.931l-18.931,-18.931c-5.224,-5.224 -13.707,-5.224 -18.931,0l-18.931,18.931c-5.224,5.225 -5.224,13.707 0,18.931l18.931,18.932c5.224,5.224 13.707,5.224 18.931,0l18.931,-18.932Z" style="fill:#84b4e1;"/><g><path d="M84.676,208.548l-14.881,0l0,3.89l5.179,0l0,13.47l4.523,0l0,-13.47l5.179,0l0,-3.89Z" style="fill:#121d3f;fill-rule:nonzero;"/><path d="M87.253,222.285c0,-0.997 0.778,-1.386 1.702,-1.604c0.899,-0.244 1.969,-0.316 2.553,-0.681c0.097,2.601 -0.559,3.72 -2.529,3.72c-0.924,0 -1.726,-0.413 -1.726,-1.435Zm0.243,-5.106c0.195,-1.069 0.924,-1.58 2.067,-1.58c0.851,0 1.993,0.365 1.993,1.313c0,0.778 -0.389,1.021 -1.094,1.167c-2.869,0.584 -7.343,0.267 -7.343,4.377c0,2.601 1.897,3.817 4.304,3.817c1.508,0 3.088,-0.438 4.158,-1.556c0.048,0.413 0.097,0.802 0.243,1.191l4.158,0c-0.487,-0.997 -0.487,-2.164 -0.487,-3.234l0,-5.519c0,-3.574 -2.893,-4.231 -5.884,-4.231c-1.434,0 -2.893,0.244 -4.011,0.876c-1.119,0.656 -1.897,1.726 -1.97,3.379l3.866,0Z" style="fill:#121d3f;fill-rule:nonzero;"/><path d="M98.364,225.908l4.134,0l0,-12.619l-4.134,0l0,12.619Zm4.134,-17.36l-4.134,0l0,3.161l4.134,0l0,-3.161Z" style="fill:#121d3f;fill-rule:nonzero;"/><rect x="105.561" y="208.548" width="4.133" height="17.36" style="fill:#121d3f;fill-rule:nonzero;"/><path d="M116.138,219.611c0,-1.605 0.584,-3.526 2.504,-3.526c1.921,0 2.529,1.921 2.529,3.526c0,1.605 -0.608,3.501 -2.529,3.501c-1.92,0 -2.504,-1.896 -2.504,-3.501Zm-4.133,0c0,3.793 2.723,6.662 6.637,6.662c3.915,0 6.662,-2.869 6.662,-6.662c0,-3.793 -2.747,-6.687 -6.662,-6.687c-3.914,0 -6.637,2.894 -6.637,6.687Z" style="fill:#121d3f;fill-rule:nonzero;"/><path d="M127.614,225.908l4.134,0l0,-6.249c0,-1.58 1.07,-2.99 3.112,-2.99c0.559,0 1.045,0.097 1.58,0.243l0,-3.769c-0.316,-0.073 -0.656,-0.097 -0.972,-0.097c-1.775,0 -3.185,0.851 -3.793,2.456l-0.049,0l0,-2.213l-4.012,0l0,12.619Z" style="fill:#121d3f;fill-rule:nonzero;"/><path d="M145.68,225.908l4.255,0l0,-13.178l0.048,0l3.647,13.178l3.453,0l3.647,-13.178l0.049,0l0,13.178l4.255,0l0,-17.36l-6.662,0l-2.991,11.573l-0.049,0l-2.99,-11.573l-6.662,0l0,17.36Z" style="fill:#121d3f;fill-rule:nonzero;"/><path d="M171.453,222.285c0,-0.997 0.778,-1.386 1.702,-1.604c0.899,-0.244 1.969,-0.316 2.553,-0.681c0.097,2.601 -0.56,3.72 -2.529,3.72c-0.924,0 -1.726,-0.413 -1.726,-1.435Zm0.243,-5.106c0.194,-1.069 0.924,-1.58 2.067,-1.58c0.851,0 1.993,0.365 1.993,1.313c0,0.778 -0.389,1.021 -1.094,1.167c-2.869,0.584 -7.343,0.267 -7.343,4.377c0,2.601 1.897,3.817 4.304,3.817c1.507,0 3.088,-0.438 4.158,-1.556c0.048,0.413 0.097,0.802 0.243,1.191l4.157,0c-0.486,-0.997 -0.486,-2.164 -0.486,-3.234l0,-5.519c0,-3.574 -2.893,-4.231 -5.884,-4.231c-1.434,0 -2.893,0.244 -4.012,0.876c-1.118,0.656 -1.896,1.726 -1.969,3.379l3.866,0Z" style="fill:#121d3f;fill-rule:nonzero;"/><path d="M188.473,216.085c1.799,0 2.455,1.678 2.455,3.501c0,1.605 -0.437,3.526 -2.455,3.526c-1.897,0 -2.529,-1.921 -2.529,-3.647c0,-1.605 0.632,-3.38 2.529,-3.38Zm6.443,-7.537l-4.134,0l0,6.103l-0.048,0c-0.851,-1.143 -2.043,-1.727 -3.599,-1.727c-3.574,0 -5.324,3.113 -5.324,6.395c0,3.55 1.677,6.954 5.64,6.954c1.459,0 2.675,-0.632 3.477,-1.824l0.049,0l0,1.459l3.939,0l0,-17.36Z" style="fill:#121d3f;fill-rule:nonzero;"/><path d="M201.262,218.298c0.243,-1.532 1.216,-2.577 2.674,-2.577c1.386,0 2.383,1.167 2.456,2.577l-5.13,0Zm9.263,2.31c0.195,-4.28 -2.066,-7.684 -6.589,-7.684c-3.72,0 -6.808,2.772 -6.808,6.638c0,4.231 2.797,6.711 6.906,6.711c2.82,0 5.519,-1.264 6.273,-4.182l-3.866,0c-0.389,0.924 -1.362,1.386 -2.359,1.386c-1.75,0 -2.747,-1.143 -2.82,-2.869l9.263,0Z" style="fill:#121d3f;fill-rule:nonzero;"/></g><path d="M163.321,145.555l-13.13,13.13c-5.224,5.224 -13.707,5.224 -18.931,0l-13.13,-13.13l2.581,-2.58l9.156,9.157c5.994,5.992 15.724,5.992 21.716,0l9.157,-9.157l2.581,2.58Zm9.713,-14.874c-0.096,3.295 -1.4,6.561 -3.912,9.073l-2.399,2.399l-2.581,-2.58l8.892,-8.892Zm-55.726,8.892l-2.58,2.58l-2.399,-2.399c-2.512,-2.512 -3.817,-5.778 -3.912,-9.073l8.891,8.892Z" style="fill-opacity:0.4;"/></g></svg>