<?xml version="1.0" encoding="UTF-8" standalone="no"?><!DOCTYPE svg PUBLIC "-//W3C//DTD SVG 1.1//EN" "http://www.w3.org/Graphics/SVG/1.1/DTD/svg11.dtd"><svg width="100%" height="100%" viewBox="0 0 613 546" version="1.1" xmlns="http://www.w3.org/2000/svg" xmlns:xlink="http://www.w3.org/1999/xlink" xml:space="preserve" xmlns:serif="http://www.serif.com/" style="fill-rule:evenodd;clip-rule:evenodd;stroke-linejoin:round;stroke-miterlimit:1.41421;"><rect id="Página-2" serif:id="Página 2" x="0.18" y="0" width="612" height="545" style="fill:none;"/><text x="54.881px" y="512.184px" style="font-family:'OpenSans', 'Open Sans', sans-serif;font-size:12.396px;fill:#545355;">MEMBERS</text><text x="203.195px" y="512.184px" style="font-family:'OpenSans', 'Open Sans', sans-serif;font-size:12.396px;fill:#545355;">RECENCY</text><text x="340.236px" y="512.184px" style="font-family:'OpenSans', 'Open Sans', sans-serif;font-size:12.396px;fill:#545355;">FREQUENCY</text><text x="473.093px" y="512.184px" style="font-family:'OpenSans', 'Open Sans', sans-serif;font-size:12.396px;fill:#545355;">AV<tspan x="488.316px " y="512.184px ">E</tspan>RAG<tspan x="519.742px " y="512.184px ">E</tspan> TICKET</text><text x="139.66px" y="348.752px" style="font-family:'OpenSans', 'Open Sans', sans-serif;font-size:12.396px;fill:#545355;">SALES</text><text x="230.237px" y="348.752px" style="font-family:'OpenSans', 'Open Sans', sans-serif;font-size:12.396px;fill:#545355;">RETURN OF INVESTMENT</text><text x="406.817px" y="348.752px" style="font-family:'OpenSans', 'Open Sans', sans-serif;font-size:12.396px;fill:#545355;">SAT<tspan x="428.323px " y="348.752px ">I</tspan>SFA<tspan x="452.825px 460.645px " y="348.752px 348.752px ">CT</tspan>ION</text><text x="188.526px" y="176.977px" style="font-family:'OpenSans', 'Open Sans', sans-serif;font-size:12.396px;fill:#545355;">BRAND VA<tspan x="248.891px 255.325px 264.35px " y="176.977px 176.977px 176.977px ">LUE</tspan></text><text x="349.998px" y="176.977px" style="font-family:'OpenSans', 'Open Sans', sans-serif;font-size:12.396px;fill:#545355;">LO<tspan x="366.086px 373.029px 380.874px 387.308px 394.166px " y="176.977px 176.977px 176.977px 176.977px 176.977px ">YALTY</tspan></text><ellipse cx="84.795" cy="431.645" rx="60.271" ry="60.269" style="fill:#fff;"/><path d="M84.794,494.289c-34.598,0 -62.644,-28.047 -62.644,-62.645c0,-34.596 28.046,-62.643 62.644,-62.643c34.597,0 62.645,28.047 62.645,62.643c0,34.598 -28.048,62.645 -62.645,62.645m-0.117,-129.253c-36.894,0 -66.8,29.908 -66.8,66.799c0,36.892 29.906,66.8 66.8,66.8c36.89,0 66.8,-29.908 66.8,-66.8c0,-36.891 -29.91,-66.799 -66.8,-66.799" style="fill:#8ab8ea;fill-rule:nonzero;"/><path d="M84.794,491.914c-33.285,0 -60.27,-26.983 -60.27,-60.27c0,-33.285 26.985,-60.269 60.27,-60.269c33.285,0 60.271,26.984 60.271,60.269c0,33.287 -26.986,60.27 -60.271,60.27m0,-122.913c-34.598,0 -62.644,28.047 -62.644,62.643c0,34.598 28.046,62.645 62.644,62.645c34.597,0 62.645,-28.047 62.645,-62.645c0,-34.596 -28.048,-62.643 -62.645,-62.643" style="fill:#18345f;fill-rule:nonzero;"/><path d="M93.369,416.552c2.131,0 3.854,-1.724 3.854,-3.854c0,-2.129 -1.723,-3.86 -3.854,-3.86c-2.129,0 -3.86,1.731 -3.86,3.86c0,2.13 1.731,3.854 3.86,3.854" style="fill:#ff6c11;fill-rule:nonzero;"/><path d="M101.674,421.666c0,0 0.221,-4.31 -4.324,-4.31l-7.877,0c-4.388,0 -4.352,3.975 -4.36,4.31l0,12.222c0.073,0.662 0.727,1.41 1.533,1.41c0.804,0 1.395,-0.726 1.465,-1.389l1.369,19.467c0.099,0.989 0.804,1.36 1.667,1.36c0.854,0 1.552,-0.371 1.66,-1.36l1.21,0c0.107,0.989 0.804,1.36 1.66,1.36c0.861,0 1.56,-0.371 1.667,-1.36l1.402,-19.481c0,0.663 0.642,1.403 1.453,1.403c0.805,0 1.447,-0.748 1.518,-1.41l-0.043,-12.222Z" style="fill:#ff6c11;fill-rule:nonzero;"/><path d="M79.179,412.634c0,2.123 -1.687,3.84 -3.767,3.84c-2.087,0 -3.774,-1.717 -3.774,-3.84c0,-2.122 1.687,-3.846 3.774,-3.846c2.08,0 3.767,1.724 3.767,3.846" style="fill:#ff6c11;fill-rule:nonzero;"/><path d="M83.71,427.058c0.343,-1.432 -1.609,-7.329 -1.609,-7.329c-0.214,-0.556 -1.248,-2.258 -4.16,-2.273l-5.684,0.015c-2.82,-0.157 -3.861,1.46 -4.117,2.315c0,0 -1.894,5.933 -1.58,7.272c0.206,0.876 1.78,1.951 3.423,2.742l-3.46,10.563l5.072,-0.014l0.013,12.82c0.094,0.991 0.785,1.347 1.624,1.347c0.841,0 1.533,-0.328 1.624,-1.318l0.526,0c0.095,0.99 0.778,1.339 1.619,1.339c0.848,0 1.531,-0.371 1.631,-1.361l0.013,-12.827l5.408,0.006l-3.299,-10.79c1.466,-0.755 2.771,-1.717 2.956,-2.507" style="fill:#ff6c11;fill-rule:nonzero;"/><g><g opacity="0.199997"><clipPath id="_clip1"><rect x="59.229" y="391.631" width="69.18" height="79.542" clip-rule="nonzero"/></clipPath><g clip-path="url(#_clip1)"><path d="M59.229,391.641l37.21,0c13.7,-0.224 28.738,3.341 28.738,19.934c0,7.127 -4.231,12.928 -10.468,16.043c8.467,2.45 13.7,9.805 13.7,18.821c0,18.942 -13.922,24.734 -30.966,24.734l-38.214,0l0,-79.532Zm20.723,31.299l16.044,0c3.562,0 8.466,-1.898 8.466,-7.577c0,-5.792 -4.123,-7.68 -8.466,-7.68l-16.044,0l0,15.257Zm0,31.634l16.598,0c6.567,0 11.145,-2.341 11.145,-8.909c0,-7.019 -4.903,-9.358 -11.145,-9.358l-16.598,0l0,18.267Z" style="fill:#8ab8ea;fill-rule:nonzero;"/></g></g></g><path d="M75.854,449.04l-16.782,-24.074c-0.805,-0.945 -2.123,-0.945 -2.93,0l-16.781,24.073c-0.805,0.945 -0.45,1.717 0.791,1.717l7.021,0c1.241,0 2.256,1.014 2.256,2.257l0.012,7.371l0,19.09l-0.004,0.042c0,1.241 1.048,2.251 2.288,2.251l11.845,0c1.241,0 2.256,-1.016 2.256,-2.256l-0.039,-26.498c0,-1.243 1.014,-2.258 2.255,-2.258l7.02,0c1.242,0.001 1.599,-0.771 0.792,-1.715" style="fill:#18345f;fill-rule:nonzero;"/><ellipse cx="230.464" cy="431.645" rx="60.271" ry="60.269" style="fill:#fff;"/><path d="M230.463,494.289c-34.598,0 -62.644,-28.047 -62.644,-62.645c0,-34.596 28.046,-62.643 62.644,-62.643c34.597,0 62.645,28.047 62.645,62.643c0,34.598 -28.048,62.645 -62.645,62.645m-0.117,-129.253c-36.894,0 -66.8,29.908 -66.8,66.799c0,36.892 29.906,66.8 66.8,66.8c36.89,0 66.8,-29.908 66.8,-66.8c0,-36.891 -29.91,-66.799 -66.8,-66.799" style="fill:#8ab8ea;fill-rule:nonzero;"/><path d="M230.463,491.914c-33.286,0 -60.27,-26.983 -60.27,-60.27c0,-33.285 26.984,-60.269 60.27,-60.269c33.285,0 60.271,26.984 60.271,60.269c0,33.287 -26.986,60.27 -60.271,60.27m0,-122.913c-34.598,0 -62.644,28.047 -62.644,62.643c0,34.598 28.046,62.645 62.644,62.645c34.597,0 62.645,-28.047 62.645,-62.645c0,-34.596 -28.048,-62.643 -62.645,-62.643" style="fill:#18345f;fill-rule:nonzero;"/><path d="M241.021,442.808l6.218,0l0,5.912l-6.218,0l0,-5.912Zm-28.893,0l6.218,0l0,5.912l-6.218,0l0,-5.912Zm28.893,-16.092l6.218,0l0,5.852l-6.218,0l0,-5.852Zm0,8.777l6.218,0l0,4.389l-6.218,0l0,-4.389Zm-9.874,0l6.948,0l0,4.389l-6.948,0l0,-4.389Zm0,7.315l6.948,0l0,5.912l-6.948,0l0,-5.912Zm-2.927,5.912l-6.948,0l0,-5.912l6.948,0l0,5.912Zm-6.948,-13.227l6.948,0l0,4.389l-6.948,0l0,-4.389Zm-2.926,4.389l-6.218,0l0,-4.389l6.218,0l0,4.389Zm0,-7.315l-6.218,0l0,-5.852l6.218,0l0,5.852Zm12.801,-5.851l6.948,0l0,5.852l-6.948,0l0,-5.852Zm-2.927,5.851l-6.948,0l0,-5.852l6.948,0l0,5.852Zm21.213,-15.666l-7.316,0l0,-3.594c0,-1.615 -1.31,-2.926 -2.924,-2.926c-1.616,0 -2.927,1.311 -2.927,2.926l0,3.594l-13.165,0l0,-3.594c0,-1.615 -1.312,-2.926 -2.927,-2.926c-1.613,0 -2.925,1.311 -2.925,2.926l0,3.594l-7.315,0c-1.212,0 -2.194,0.984 -2.194,2.195l0,31.818c0,1.211 0.982,2.194 2.194,2.194l39.499,0c1.213,0 2.193,-0.983 2.193,-2.194l0,-31.818c0,-1.211 -0.98,-2.195 -2.193,-2.195" style="fill:#ec008c;fill-rule:nonzero;"/><g><g opacity="0.199997"><clipPath id="_clip2"><rect x="204.898" y="391.631" width="69.179" height="79.542" clip-rule="nonzero"/></clipPath><g clip-path="url(#_clip2)"><path d="M204.898,391.641l37.209,0c13.701,-0.224 28.739,3.341 28.739,19.934c0,7.127 -4.231,12.928 -10.468,16.043c8.467,2.45 13.7,9.805 13.7,18.821c0,18.942 -13.922,24.734 -30.966,24.734l-38.214,0l0,-79.532Zm20.723,31.299l16.043,0c3.562,0 8.467,-1.898 8.467,-7.577c0,-5.792 -4.123,-7.68 -8.467,-7.68l-16.043,0l0,15.257Zm0,31.634l16.598,0c6.567,0 11.145,-2.341 11.145,-8.909c0,-7.019 -4.903,-9.358 -11.145,-9.358l-16.598,0l0,18.267Z" style="fill:#8ab8ea;fill-rule:nonzero;"/></g></g></g><path d="M221.523,449.04l-16.782,-24.074c-0.805,-0.945 -2.123,-0.945 -2.93,0l-16.781,24.073c-0.806,0.945 -0.45,1.717 0.791,1.717l7.021,0c1.24,0 2.256,1.014 2.256,2.257l0.012,7.371l0,19.09l-0.004,0.042c0,1.241 1.048,2.251 2.287,2.251l11.846,0c1.241,0 2.256,-1.016 2.256,-2.256l-0.039,-26.498c0,-1.243 1.014,-2.258 2.255,-2.258l7.02,0c1.241,0.001 1.598,-0.771 0.792,-1.715" style="fill:#18345f;fill-rule:nonzero;"/><ellipse cx="376.132" cy="431.645" rx="60.27" ry="60.269" style="fill:#fff;"/><path d="M376.131,494.289c-34.597,0 -62.643,-28.047 -62.643,-62.645c0,-34.596 28.046,-62.643 62.643,-62.643c34.598,0 62.646,28.047 62.646,62.643c0,34.598 -28.048,62.645 -62.646,62.645m-0.117,-129.253c-36.893,0 -66.8,29.908 -66.8,66.799c0,36.892 29.907,66.8 66.8,66.8c36.891,0 66.8,-29.908 66.8,-66.8c0,-36.891 -29.909,-66.799 -66.8,-66.799" style="fill:#8ab8ea;fill-rule:nonzero;"/><path d="M376.131,491.914c-33.285,0 -60.269,-26.983 -60.269,-60.27c0,-33.285 26.984,-60.269 60.269,-60.269c33.286,0 60.271,26.984 60.271,60.269c0,33.287 -26.985,60.27 -60.271,60.27m0,-122.913c-34.597,0 -62.643,28.047 -62.643,62.643c0,34.598 28.046,62.645 62.643,62.645c34.598,0 62.646,-28.047 62.646,-62.645c0,-34.596 -28.048,-62.643 -62.646,-62.643" style="fill:#18345f;fill-rule:nonzero;"/><path d="M398.268,432.854c0,-6.517 -2.904,-12.325 -7.581,-16.078l-2.975,6.444c2.339,2.409 3.756,5.95 3.756,9.633c0,2.623 -0.71,4.961 -1.842,7.014l-2.126,-2.762l-1.488,5.594l-1.557,5.598l5.878,0.212l5.809,0.282l-2.338,-3.186c2.835,-3.471 4.464,-7.933 4.464,-12.752" style="fill:#98ca65;"/><path d="M377.371,447.02c-5.525,0 -10.272,-3.188 -12.609,-7.862l3.755,-0.212l-3.968,-4.321l-4.108,-4.179l-3.186,4.888l-3.26,4.816l3.614,-0.282c2.975,8.074 10.625,13.883 19.762,13.883c2.69,0 5.241,-0.567 7.579,-1.347l-4.107,-5.878c-1.134,0.353 -2.338,0.495 -3.472,0.495" style="fill:#98ca65;"/><path d="M377.371,418.616l0.424,0l-1.698,3.612l5.666,-1.345l5.667,-1.417l-2.693,-5.242l-2.62,-5.171l-1.345,3.188c-1.205,-0.283 -2.267,-0.354 -3.401,-0.354c-10.201,0 -18.56,7.224 -20.544,16.789l7.227,-0.71c1.984,-5.454 7.225,-9.35 13.317,-9.35" style="fill:#98ca65;"/><g><g opacity="0.199997"><clipPath id="_clip3"><rect x="350.567" y="391.631" width="69.179" height="79.542" clip-rule="nonzero"/></clipPath><g clip-path="url(#_clip3)"><path d="M350.567,391.641l37.209,0c13.701,-0.224 28.739,3.341 28.739,19.934c0,7.127 -4.231,12.928 -10.468,16.043c8.467,2.45 13.7,9.805 13.7,18.821c0,18.942 -13.922,24.734 -30.967,24.734l-38.213,0l0,-79.532Zm20.723,31.299l16.043,0c3.562,0 8.466,-1.898 8.466,-7.577c0,-5.792 -4.123,-7.68 -8.466,-7.68l-16.043,0l0,15.257Zm0,31.634l16.598,0c6.567,0 11.145,-2.341 11.145,-8.909c0,-7.019 -4.903,-9.358 -11.145,-9.358l-16.598,0l0,18.267Z" style="fill:#8ab8ea;fill-rule:nonzero;"/></g></g></g><path d="M367.191,449.04l-16.781,-24.074c-0.805,-0.945 -2.123,-0.945 -2.93,0l-16.781,24.073c-0.806,0.945 -0.45,1.717 0.791,1.717l7.021,0c1.24,0 2.255,1.014 2.255,2.257l0.012,7.371l0,19.09l-0.003,0.042c0,1.241 1.048,2.251 2.287,2.251l11.846,0c1.241,0 2.256,-1.016 2.256,-2.256l-0.039,-26.498c0,-1.243 1.014,-2.258 2.255,-2.258l7.02,0c1.241,0.001 1.598,-0.771 0.791,-1.715" style="fill:#18345f;fill-rule:nonzero;"/><ellipse cx="521.801" cy="431.645" rx="60.27" ry="60.269" style="fill:#fff;"/><path d="M521.8,494.289c-34.597,0 -62.644,-28.047 -62.644,-62.645c0,-34.596 28.047,-62.643 62.644,-62.643c34.598,0 62.646,28.047 62.646,62.643c0,34.598 -28.048,62.645 -62.646,62.645m-0.117,-129.253c-36.893,0 -66.8,29.908 -66.8,66.799c0,36.892 29.907,66.8 66.8,66.8c36.891,0 66.8,-29.908 66.8,-66.8c0,-36.891 -29.909,-66.799 -66.8,-66.799" style="fill:#8ab8ea;fill-rule:nonzero;"/><path d="M521.8,491.914c-33.285,0 -60.269,-26.983 -60.269,-60.27c0,-33.285 26.984,-60.269 60.269,-60.269c33.285,0 60.271,26.984 60.271,60.269c0,33.287 -26.986,60.27 -60.271,60.27m0,-122.913c-34.597,0 -62.644,28.047 -62.644,62.643c0,34.598 28.047,62.645 62.644,62.645c34.598,0 62.646,-28.047 62.646,-62.645c0,-34.596 -28.048,-62.643 -62.646,-62.643" style="fill:#18345f;fill-rule:nonzero;"/><path d="M532.573,437.882l-20.917,0c-0.826,0 -1.495,0.668 -1.495,1.494c0,0.825 0.669,1.494 1.495,1.494l20.917,0c0.825,0 1.494,-0.669 1.494,-1.494c0,-0.826 -0.669,-1.494 -1.494,-1.494" style="fill:#78278c;fill-rule:nonzero;"/><path d="M536.971,449.834c0,1.646 -1.34,2.988 -2.988,2.988l-26.895,0l0,-41.835l26.895,0c1.648,0 2.988,1.34 2.988,2.989l0,35.858Zm-2.988,-41.835l-30.408,0l0,47.813l30.408,0c3.3,0 5.976,-2.676 5.976,-5.978l0,-35.858c0,-3.301 -2.676,-5.977 -5.976,-5.977" style="fill:#78278c;fill-rule:nonzero;"/><path d="M532.573,431.905l-20.917,0c-0.826,0 -1.495,0.669 -1.495,1.494c0,0.825 0.669,1.494 1.495,1.494l20.917,0c0.825,0 1.494,-0.669 1.494,-1.494c0,-0.825 -0.669,-1.494 -1.494,-1.494" style="fill:#78278c;fill-rule:nonzero;"/><path d="M523.608,443.858l-11.952,0c-0.826,0 -1.495,0.668 -1.495,1.495c0,0.824 0.669,1.492 1.495,1.492l11.952,0c0.826,0 1.494,-0.668 1.494,-1.492c0,-0.827 -0.668,-1.495 -1.494,-1.495" style="fill:#78278c;fill-rule:nonzero;"/><path d="M532.573,413.976l-20.917,0c-0.826,0 -1.495,0.669 -1.495,1.494c0,0.825 0.669,1.494 1.495,1.494l20.917,0c0.825,0 1.494,-0.669 1.494,-1.494c0,-0.825 -0.669,-1.494 -1.494,-1.494" style="fill:#78278c;fill-rule:nonzero;"/><path d="M532.573,425.929l-20.917,0c-0.826,0 -1.495,0.669 -1.495,1.494c0,0.826 0.669,1.494 1.495,1.494l20.917,0c0.825,0 1.494,-0.668 1.494,-1.494c0,-0.825 -0.669,-1.494 -1.494,-1.494" style="fill:#78278c;fill-rule:nonzero;"/><path d="M532.573,419.953l-20.917,0c-0.826,0 -1.495,0.668 -1.495,1.493c0,0.826 0.669,1.494 1.495,1.494l20.917,0c0.825,0 1.494,-0.668 1.494,-1.494c0,-0.825 -0.669,-1.493 -1.494,-1.493" style="fill:#78278c;fill-rule:nonzero;"/><g><g opacity="0.199997"><clipPath id="_clip4"><rect x="496.236" y="391.631" width="69.179" height="79.542" clip-rule="nonzero"/></clipPath><g clip-path="url(#_clip4)"><path d="M496.236,391.641l37.209,0c13.701,-0.224 28.739,3.341 28.739,19.934c0,7.127 -4.231,12.928 -10.468,16.043c8.467,2.45 13.7,9.805 13.7,18.821c0,18.942 -13.922,24.734 -30.967,24.734l-38.213,0l0,-79.532Zm20.723,31.299l16.043,0c3.562,0 8.466,-1.898 8.466,-7.577c0,-5.792 -4.123,-7.68 -8.466,-7.68l-16.043,0l0,15.257Zm0,31.634l16.598,0c6.567,0 11.145,-2.341 11.145,-8.909c0,-7.019 -4.903,-9.358 -11.145,-9.358l-16.598,0l0,18.267Z" style="fill:#8ab8ea;fill-rule:nonzero;"/></g></g></g><path d="M512.86,449.04l-16.781,-24.074c-0.805,-0.945 -2.123,-0.945 -2.93,0l-16.782,24.073c-0.805,0.945 -0.45,1.717 0.792,1.717l7.021,0c1.24,0 2.255,1.014 2.255,2.257l0.012,7.371l0,19.09l-0.003,0.042c0,1.241 1.048,2.251 2.287,2.251l11.846,0c1.241,0 2.255,-1.016 2.255,-2.256l-0.038,-26.498c0,-1.243 1.013,-2.258 2.255,-2.258l7.02,0c1.241,0.001 1.598,-0.771 0.791,-1.715" style="fill:#18345f;fill-rule:nonzero;"/><ellipse cx="157.629" cy="268.213" rx="60.27" ry="60.269" style="fill:#fff;"/><path d="M157.628,330.856c-34.597,0 -62.644,-28.047 -62.644,-62.644c0,-34.597 28.047,-62.644 62.644,-62.644c34.598,0 62.646,28.047 62.646,62.644c0,34.597 -28.048,62.644 -62.646,62.644m-0.117,-129.252c-36.893,0 -66.8,29.907 -66.8,66.798c0,36.892 29.907,66.8 66.8,66.8c36.891,0 66.8,-29.908 66.8,-66.8c0,-36.891 -29.909,-66.798 -66.8,-66.798" style="fill:#8ab8ea;fill-rule:nonzero;"/><path d="M157.628,328.482c-33.285,0 -60.269,-26.983 -60.269,-60.27c0,-33.285 26.984,-60.269 60.269,-60.269c33.285,0 60.271,26.984 60.271,60.269c0,33.287 -26.986,60.27 -60.271,60.27m0,-122.913c-34.597,0 -62.644,28.047 -62.644,62.643c0,34.598 28.047,62.645 62.644,62.645c34.598,0 62.646,-28.047 62.646,-62.645c0,-34.596 -28.048,-62.643 -62.646,-62.643" style="fill:#18345f;fill-rule:nonzero;"/><path d="M154.523,244.535l4.975,0l0,3.565c2.285,0.129 4.596,0.821 6.937,2.073l0,8.43c-2.451,-2.395 -4.781,-3.593 -6.992,-3.593c-1.051,0 -2.023,0.332 -2.916,0.995c-0.895,0.663 -1.341,1.575 -1.341,2.736c0,0.866 0.314,1.612 0.941,2.238c0.607,0.645 2.007,1.456 4.2,2.432c1.971,0.867 3.51,1.7 4.615,2.502c1.106,0.801 2.032,1.903 2.778,3.302c0.746,1.401 1.119,2.948 1.119,4.644c0,2.616 -0.774,4.998 -2.321,7.144c-1.548,2.146 -3.888,3.644 -7.02,4.491l0,4.09l-4.975,0l0,-3.62c-2.34,-0.055 -5.049,-0.82 -8.126,-2.294l0,-8.678c2.856,2.708 5.62,4.063 8.292,4.063c1.492,0 2.736,-0.447 3.731,-1.341c0.995,-0.894 1.493,-2.022 1.493,-3.386c0,-1.16 -0.406,-2.109 -1.216,-2.846c-0.812,-0.737 -2.231,-1.539 -4.257,-2.405c-2.635,-1.142 -4.634,-2.523 -5.997,-4.146c-1.382,-1.603 -2.073,-3.657 -2.073,-6.163c0,-2.487 0.681,-4.587 2.046,-6.301c1.363,-1.714 3.398,-3.04 6.107,-3.98l0,-3.952Z" style="fill:#98ca65;fill-rule:nonzero;"/><g><g opacity="0.199997"><clipPath id="_clip5"><rect x="132.064" y="228.199" width="69.179" height="79.542" clip-rule="nonzero"/></clipPath><g clip-path="url(#_clip5)"><path d="M132.064,228.209l37.209,0c13.701,-0.223 28.739,3.342 28.739,19.934c0,7.128 -4.232,12.928 -10.469,16.043c8.467,2.45 13.7,9.805 13.7,18.822c0,18.941 -13.922,24.733 -30.966,24.733l-38.213,0l0,-79.532Zm20.722,31.3l16.044,0c3.562,0 8.466,-1.898 8.466,-7.577c0,-5.793 -4.123,-7.681 -8.466,-7.681l-16.044,0l0,15.258Zm0,31.633l16.599,0c6.567,0 11.144,-2.34 11.144,-8.909c0,-7.018 -4.902,-9.358 -11.144,-9.358l-16.599,0l0,18.267Z" style="fill:#8ab8ea;fill-rule:nonzero;"/></g></g></g><path d="M148.688,285.608l-16.781,-24.075c-0.805,-0.944 -2.124,-0.944 -2.93,0l-16.782,24.074c-0.805,0.945 -0.45,1.717 0.792,1.717l7.02,0c1.241,0 2.256,1.015 2.256,2.256l0.012,7.371l0,19.09l-0.003,0.042c0,1.241 1.047,2.252 2.287,2.252l11.846,0c1.241,0 2.255,-1.017 2.255,-2.256l-0.038,-26.499c0,-1.241 1.013,-2.257 2.255,-2.257l7.02,0c1.241,0.001 1.598,-0.771 0.791,-1.715" style="fill:#18345f;fill-rule:nonzero;"/><ellipse cx="303.298" cy="268.213" rx="60.27" ry="60.269" style="fill:#fff;"/><path d="M303.297,330.856c-34.598,0 -62.644,-28.047 -62.644,-62.644c0,-34.597 28.046,-62.644 62.644,-62.644c34.598,0 62.645,28.047 62.645,62.644c0,34.597 -28.047,62.644 -62.645,62.644m-0.117,-129.252c-36.893,0 -66.8,29.907 -66.8,66.798c0,36.892 29.907,66.8 66.8,66.8c36.891,0 66.8,-29.908 66.8,-66.8c0,-36.891 -29.909,-66.798 -66.8,-66.798" style="fill:#8ab8ea;fill-rule:nonzero;"/><path d="M303.297,328.482c-33.285,0 -60.269,-26.983 -60.269,-60.27c0,-33.285 26.984,-60.269 60.269,-60.269c33.285,0 60.271,26.984 60.271,60.269c0,33.287 -26.986,60.27 -60.271,60.27m0,-122.913c-34.598,0 -62.644,28.047 -62.644,62.643c0,34.598 28.046,62.645 62.644,62.645c34.598,0 62.645,-28.047 62.645,-62.645c0,-34.596 -28.047,-62.643 -62.645,-62.643" style="fill:#18345f;fill-rule:nonzero;"/><path d="M320.703,246.195c-2.121,-1.868 -5.347,-1.698 -7.214,0.424l-16.626,31.151l-9.255,-8.193c-2.037,-1.951 -5.263,-1.867 -7.217,0.171c-1.952,2.037 -1.867,5.263 0.171,7.215l13.077,11.842c0.932,0.934 2.206,1.443 3.564,1.443l0.168,0c1.358,-0.084 2.717,-0.678 3.567,-1.697l20.104,-35.056c1.954,-2.208 1.783,-5.432 -0.339,-7.3" style="fill:#78278c;fill-rule:nonzero;"/><g><g opacity="0.199997"><clipPath id="_clip6"><rect x="277.732" y="228.199" width="69.18" height="79.542" clip-rule="nonzero"/></clipPath><g clip-path="url(#_clip6)"><path d="M277.733,228.209l37.209,0c13.701,-0.223 28.739,3.342 28.739,19.934c0,7.128 -4.232,12.928 -10.469,16.043c8.467,2.45 13.7,9.805 13.7,18.822c0,18.941 -13.922,24.733 -30.966,24.733l-38.213,0l0,-79.532Zm20.722,31.3l16.044,0c3.562,0 8.466,-1.898 8.466,-7.577c0,-5.793 -4.123,-7.681 -8.466,-7.681l-16.044,0l0,15.258Zm0,31.633l16.599,0c6.566,0 11.144,-2.34 11.144,-8.909c0,-7.018 -4.902,-9.358 -11.144,-9.358l-16.599,0l0,18.267Z" style="fill:#8ab8ea;fill-rule:nonzero;"/></g></g></g><path d="M294.357,285.608l-16.781,-24.075c-0.805,-0.944 -2.124,-0.944 -2.931,0l-16.781,24.074c-0.805,0.945 -0.45,1.717 0.792,1.717l7.02,0c1.241,0 2.256,1.015 2.256,2.256l0.012,7.371l0,19.09l-0.003,0.042c0,1.241 1.047,2.252 2.287,2.252l11.845,0c1.242,0 2.256,-1.017 2.256,-2.256l-0.038,-26.499c0,-1.241 1.013,-2.257 2.255,-2.257l7.02,0c1.241,0.001 1.598,-0.771 0.791,-1.715" style="fill:#18345f;fill-rule:nonzero;"/><ellipse cx="448.967" cy="268.213" rx="60.271" ry="60.269" style="fill:#fff;"/><path d="M448.966,330.856c-34.598,0 -62.644,-28.047 -62.644,-62.644c0,-34.597 28.046,-62.644 62.644,-62.644c34.597,0 62.645,28.047 62.645,62.644c0,34.597 -28.048,62.644 -62.645,62.644m-0.117,-129.252c-36.893,0 -66.8,29.907 -66.8,66.798c0,36.892 29.907,66.8 66.8,66.8c36.891,0 66.8,-29.908 66.8,-66.8c0,-36.891 -29.909,-66.798 -66.8,-66.798" style="fill:#8ab8ea;fill-rule:nonzero;"/><path d="M448.966,328.482c-33.285,0 -60.27,-26.983 -60.27,-60.27c0,-33.285 26.985,-60.269 60.27,-60.269c33.285,0 60.271,26.984 60.271,60.269c0,33.287 -26.986,60.27 -60.271,60.27m0,-122.913c-34.598,0 -62.644,28.047 -62.644,62.643c0,34.598 28.046,62.645 62.644,62.645c34.597,0 62.645,-28.047 62.645,-62.645c0,-34.596 -28.048,-62.643 -62.645,-62.643" style="fill:#18345f;fill-rule:nonzero;"/><path d="M440.397,257.497c0,3.61 -2.927,6.537 -6.537,6.537c-3.61,0 -6.537,-2.927 -6.537,-6.537c0,-3.61 2.927,-6.537 6.537,-6.537c3.61,0 6.537,2.927 6.537,6.537" style="fill:#ec008c;fill-rule:nonzero;"/><rect x="456.105" y="254.148" width="15.753" height="4.586" style="fill:#ec008c;"/><path d="M448.886,288.268c-10.951,0 -20.442,-6.197 -25.196,-15.268c2.105,12.022 12.571,21.168 25.196,21.168c12.625,0 23.092,-9.146 25.196,-21.168c-4.754,9.071 -14.245,15.268 -25.196,15.268" style="fill:#ec008c;fill-rule:nonzero;"/><g><g opacity="0.199997"><clipPath id="_clip7"><rect x="423.401" y="228.199" width="69.18" height="79.542" clip-rule="nonzero"/></clipPath><g clip-path="url(#_clip7)"><path d="M423.402,228.209l37.209,0c13.701,-0.223 28.739,3.342 28.739,19.934c0,7.128 -4.232,12.928 -10.469,16.043c8.467,2.45 13.7,9.805 13.7,18.822c0,18.941 -13.922,24.733 -30.966,24.733l-38.213,0l0,-79.532Zm20.722,31.3l16.044,0c3.562,0 8.466,-1.898 8.466,-7.577c0,-5.793 -4.123,-7.681 -8.466,-7.681l-16.044,0l0,15.258Zm0,31.633l16.599,0c6.566,0 11.144,-2.34 11.144,-8.909c0,-7.018 -4.902,-9.358 -11.144,-9.358l-16.599,0l0,18.267Z" style="fill:#8ab8ea;fill-rule:nonzero;"/></g></g></g><path d="M440.026,285.608l-16.781,-24.075c-0.806,-0.944 -2.124,-0.944 -2.931,0l-16.781,24.074c-0.805,0.945 -0.45,1.717 0.791,1.717l7.021,0c1.241,0 2.256,1.015 2.256,2.256l0.012,7.371l0,19.09l-0.004,0.042c0,1.241 1.048,2.252 2.288,2.252l11.845,0c1.242,0 2.256,-1.017 2.256,-2.256l-0.038,-26.499c0,-1.241 1.013,-2.257 2.254,-2.257l7.02,0c1.242,0.001 1.599,-0.771 0.792,-1.715" style="fill:#18345f;fill-rule:nonzero;"/><ellipse cx="230.464" cy="96.438" rx="60.271" ry="60.27" style="fill:#fff;"/><path d="M230.463,159.082c-34.598,0 -62.644,-28.047 -62.644,-62.645c0,-34.596 28.046,-62.643 62.644,-62.643c34.597,0 62.645,28.047 62.645,62.643c0,34.598 -28.048,62.645 -62.645,62.645m-0.117,-129.253c-36.894,0 -66.8,29.908 -66.8,66.799c0,36.892 29.906,66.8 66.8,66.8c36.89,0 66.8,-29.908 66.8,-66.8c0,-36.891 -29.91,-66.799 -66.8,-66.799" style="fill:#8ab8ea;fill-rule:nonzero;"/><path d="M230.463,156.708c-33.286,0 -60.27,-26.984 -60.27,-60.27c0,-33.285 26.984,-60.269 60.27,-60.269c33.285,0 60.271,26.984 60.271,60.269c0,33.286 -26.986,60.27 -60.271,60.27m0,-122.913c-34.598,0 -62.644,28.047 -62.644,62.643c0,34.597 28.046,62.645 62.644,62.645c34.597,0 62.645,-28.048 62.645,-62.645c0,-34.596 -28.048,-62.643 -62.645,-62.643" style="fill:#18345f;fill-rule:nonzero;"/><path d="M225.234,76.85c-0.042,0 -0.079,0.005 -0.112,0.016c-0.395,0.128 -0.765,1.064 -1.062,1.816c-0.383,0.969 -0.778,1.971 -1.555,2.536c-0.788,0.572 -1.871,0.642 -2.918,0.709c-0.757,0.048 -1.794,0.114 -2.032,0.44c-0.23,0.316 0.024,1.315 0.209,2.044c0.26,1.022 0.53,2.08 0.226,3.015c-0.292,0.9 -1.114,1.578 -1.908,2.234c-0.631,0.521 -1.416,1.168 -1.416,1.604c0,0.435 0.785,1.083 1.416,1.603c0.794,0.656 1.616,1.334 1.908,2.234c0.304,0.935 0.034,1.993 -0.226,3.016c-0.185,0.729 -0.439,1.727 -0.209,2.043c0.238,0.326 1.275,0.392 2.032,0.44c1.047,0.067 2.13,0.136 2.918,0.708c0.777,0.566 1.172,1.568 1.555,2.537c0.297,0.752 0.667,1.688 1.062,1.816c0.357,0.117 1.214,-0.427 1.841,-0.823c0.902,-0.571 1.835,-1.16 2.837,-1.16c1.001,0 1.935,0.589 2.837,1.16c0.627,0.396 1.486,0.938 1.841,0.823c0.395,-0.128 0.765,-1.064 1.062,-1.816c0.382,-0.969 0.778,-1.97 1.555,-2.536c0.787,-0.573 1.87,-0.642 2.918,-0.709c0.758,-0.048 1.795,-0.114 2.032,-0.44c0.23,-0.316 -0.024,-1.314 -0.209,-2.043c-0.26,-1.023 -0.53,-2.081 -0.226,-3.016c0.292,-0.9 1.114,-1.578 1.909,-2.234c0.63,-0.52 1.415,-1.168 1.415,-1.603c0,-0.436 -0.784,-1.083 -1.415,-1.604c-0.795,-0.656 -1.617,-1.333 -1.909,-2.234c-0.304,-0.935 -0.034,-1.993 0.226,-3.015c0.185,-0.729 0.439,-1.728 0.209,-2.044c-0.237,-0.326 -1.274,-0.392 -2.032,-0.44c-1.048,-0.067 -2.131,-0.136 -2.917,-0.708c-0.777,-0.566 -1.174,-1.568 -1.556,-2.537c-0.297,-0.752 -0.666,-1.687 -1.062,-1.816c-0.354,-0.118 -1.214,0.427 -1.841,0.823c-0.902,0.571 -1.836,1.161 -2.837,1.161c-1.002,0 -1.935,-0.59 -2.837,-1.161c-0.569,-0.359 -1.329,-0.839 -1.729,-0.839m9.146,30.691c-0.957,0 -1.894,-0.591 -2.74,-1.126c-0.646,-0.408 -1.379,-0.871 -1.84,-0.871c-0.462,0 -1.194,0.463 -1.84,0.871c-1.043,0.66 -2.226,1.406 -3.414,1.021c-1.232,-0.4 -1.757,-1.731 -2.221,-2.905c-0.272,-0.687 -0.58,-1.467 -0.919,-1.713c-0.348,-0.254 -1.193,-0.308 -1.938,-0.355c-1.251,-0.08 -2.67,-0.171 -3.422,-1.205c-0.746,-1.025 -0.398,-2.393 -0.09,-3.601c0.185,-0.73 0.396,-1.558 0.258,-1.979c-0.124,-0.384 -0.759,-0.909 -1.321,-1.371c-0.981,-0.811 -2.094,-1.728 -2.094,-3.043c0,-1.315 1.113,-2.234 2.094,-3.043c0.562,-0.464 1.197,-0.988 1.321,-1.371c0.138,-0.422 -0.073,-1.25 -0.258,-1.979c-0.308,-1.209 -0.656,-2.577 0.09,-3.602c0.752,-1.035 2.171,-1.125 3.422,-1.205c0.745,-0.047 1.59,-0.101 1.938,-0.355c0.339,-0.247 0.647,-1.026 0.919,-1.713c0.464,-1.174 0.989,-2.505 2.221,-2.905c1.187,-0.386 2.371,0.362 3.414,1.02c0.646,0.409 1.378,0.872 1.84,0.872c0.461,0 1.194,-0.463 1.84,-0.871c1.044,-0.66 2.227,-1.406 3.414,-1.021c1.232,0.4 1.758,1.731 2.222,2.905c0.271,0.687 0.579,1.467 0.918,1.713c0.349,0.254 1.193,0.308 1.938,0.355c1.251,0.08 2.669,0.171 3.422,1.205c0.746,1.025 0.398,2.393 0.09,3.602c-0.185,0.729 -0.395,1.557 -0.259,1.979c0.124,0.383 0.761,0.908 1.322,1.371c0.981,0.81 2.094,1.728 2.094,3.043c0,1.315 -1.113,2.233 -2.094,3.043c-0.561,0.463 -1.198,0.987 -1.322,1.371c-0.136,0.421 0.074,1.249 0.259,1.979c0.308,1.208 0.655,2.576 -0.091,3.601c-0.752,1.034 -2.17,1.125 -3.421,1.205c-0.745,0.047 -1.589,0.101 -1.938,0.355c-0.339,0.247 -0.647,1.026 -0.918,1.713c-0.464,1.174 -0.99,2.506 -2.222,2.905c-0.224,0.073 -0.45,0.105 -0.674,0.105" style="fill:#ff6c11;fill-rule:nonzero;"/><path d="M229.8,82.59c-4.783,0 -8.674,3.891 -8.674,8.673c0,4.783 3.891,8.674 8.674,8.674c4.782,0 8.673,-3.891 8.673,-8.674c0,-4.782 -3.891,-8.673 -8.673,-8.673m0,19.213c-5.812,0 -10.54,-4.728 -10.54,-10.54c0,-5.811 4.728,-10.54 10.54,-10.54c5.812,0 10.539,4.729 10.539,10.54c0,5.812 -4.727,10.54 -10.539,10.54" style="fill:#ff6c11;fill-rule:nonzero;"/><path d="M223.87,119.529c-0.363,0 -0.694,-0.211 -0.847,-0.542l-2.233,-4.824l-5.003,1.798c-0.348,0.126 -0.736,0.033 -0.992,-0.235c-0.255,-0.268 -0.327,-0.661 -0.185,-1.003l5.538,-13.262c0.199,-0.475 0.745,-0.701 1.221,-0.501c0.476,0.198 0.7,0.745 0.501,1.22l-4.722,11.308l3.814,-1.37c0.457,-0.164 0.96,0.047 1.163,0.486l1.702,3.676l4.906,-11.732c0.199,-0.476 0.745,-0.7 1.222,-0.501c0.475,0.199 0.698,0.746 0.501,1.221l-5.726,13.688c-0.142,0.341 -0.472,0.566 -0.843,0.573c-0.006,0 -0.012,0 -0.018,0" style="fill:#ff6c11;fill-rule:nonzero;"/><path d="M235.73,119.529c-0.006,0 -0.012,0 -0.018,0c-0.369,-0.007 -0.7,-0.232 -0.843,-0.573l-5.724,-13.688c-0.199,-0.475 0.025,-1.022 0.501,-1.221c0.476,-0.199 1.022,0.025 1.221,0.501l4.907,11.732l1.702,-3.676c0.202,-0.439 0.706,-0.65 1.162,-0.486l3.814,1.37l-4.722,-11.308c-0.198,-0.475 0.026,-1.022 0.502,-1.22c0.476,-0.199 1.021,0.026 1.22,0.501l5.538,13.262c0.142,0.342 0.07,0.735 -0.185,1.003c-0.255,0.268 -0.643,0.361 -0.992,0.235l-5.003,-1.798l-2.233,4.824c-0.153,0.331 -0.484,0.542 -0.847,0.542" style="fill:#ff6c11;fill-rule:nonzero;"/><path d="M229.8,92.516c0.192,0 0.385,0.06 0.548,0.178l1.04,0.756l-0.398,-1.223c-0.124,-0.384 0.013,-0.805 0.34,-1.043l1.039,-0.755l-1.285,0c-0.404,0 -0.763,-0.261 -0.888,-0.645l-0.396,-1.223l-0.397,1.223c-0.125,0.384 -0.484,0.645 -0.888,0.645l-1.285,0l1.04,0.755c0.327,0.238 0.464,0.659 0.339,1.043l-0.398,1.223l1.04,-0.756c0.163,-0.118 0.357,-0.178 0.549,-0.178m3.363,4.31c-0.192,0 -0.384,-0.06 -0.549,-0.178l-2.814,-2.046l-2.815,2.046c-0.328,0.238 -0.77,0.238 -1.097,0c-0.327,-0.238 -0.464,-0.659 -0.339,-1.044l1.075,-3.309l-2.815,-2.045c-0.327,-0.237 -0.464,-0.659 -0.339,-1.043c0.125,-0.384 0.483,-0.645 0.888,-0.645l3.479,0l1.075,-3.309c0.125,-0.384 0.484,-0.645 0.888,-0.645c0.404,0 0.763,0.261 0.888,0.645l1.074,3.309l3.479,0c0.405,0 0.763,0.261 0.888,0.645c0.125,0.384 -0.012,0.806 -0.339,1.043l-2.814,2.045l1.075,3.309c0.124,0.385 -0.013,0.806 -0.339,1.044c-0.164,0.118 -0.356,0.178 -0.549,0.178" style="fill:#ff6c11;fill-rule:nonzero;"/><g><g opacity="0.199997"><clipPath id="_clip8"><rect x="204.898" y="56.424" width="69.179" height="79.542" clip-rule="nonzero"/></clipPath><g clip-path="url(#_clip8)"><path d="M204.898,56.434l37.209,0c13.701,-0.224 28.739,3.341 28.739,19.934c0,7.128 -4.231,12.928 -10.468,16.043c8.467,2.45 13.7,9.804 13.7,18.822c0,18.941 -13.922,24.733 -30.966,24.733l-38.214,0l0,-79.532Zm20.723,31.3l16.043,0c3.562,0 8.467,-1.899 8.467,-7.578c0,-5.792 -4.123,-7.68 -8.467,-7.68l-16.043,0l0,15.258Zm0,31.633l16.598,0c6.567,0 11.145,-2.34 11.145,-8.909c0,-7.019 -4.903,-9.359 -11.145,-9.359l-16.598,0l0,18.268Z" style="fill:#8ab8ea;fill-rule:nonzero;"/></g></g></g><path d="M221.523,113.833l-16.782,-24.074c-0.805,-0.944 -2.123,-0.944 -2.93,0l-16.781,24.074c-0.806,0.944 -0.45,1.716 0.791,1.716l7.021,0c1.24,0 2.256,1.015 2.256,2.257l0.012,7.371l0,19.09l-0.004,0.041c0,1.242 1.048,2.252 2.287,2.252l11.846,0c1.241,0 2.256,-1.016 2.256,-2.256l-0.039,-26.498c0,-1.242 1.014,-2.258 2.255,-2.258l7.02,0c1.241,0.001 1.598,-0.771 0.792,-1.715" style="fill:#18345f;fill-rule:nonzero;"/><ellipse cx="376.132" cy="96.438" rx="60.27" ry="60.27" style="fill:#fff;"/><path d="M376.131,159.082c-34.597,0 -62.643,-28.047 -62.643,-62.645c0,-34.596 28.046,-62.643 62.643,-62.643c34.598,0 62.646,28.047 62.646,62.643c0,34.598 -28.048,62.645 -62.646,62.645m-0.117,-129.253c-36.893,0 -66.8,29.908 -66.8,66.799c0,36.892 29.907,66.8 66.8,66.8c36.891,0 66.8,-29.908 66.8,-66.8c0,-36.891 -29.909,-66.799 -66.8,-66.799" style="fill:#8ab8ea;fill-rule:nonzero;"/><path d="M376.131,156.708c-33.285,0 -60.269,-26.984 -60.269,-60.27c0,-33.285 26.984,-60.269 60.269,-60.269c33.286,0 60.271,26.984 60.271,60.269c0,33.286 -26.985,60.27 -60.271,60.27m0,-122.913c-34.597,0 -62.643,28.047 -62.643,62.643c0,34.597 28.046,62.645 62.643,62.645c34.598,0 62.646,-28.048 62.646,-62.645c0,-34.596 -28.048,-62.643 -62.646,-62.643" style="fill:#18345f;fill-rule:nonzero;"/><path d="M388.086,74.147c-5.888,0 -10.924,3.408 -13.032,8.246c-2.114,-4.838 -7.149,-8.246 -13.035,-8.246c-7.781,0 -14.098,5.945 -14.098,13.28c0,18.286 27.133,30.816 27.133,30.816c0,0 27.121,-13.28 27.121,-30.816c0,-7.335 -6.318,-13.28 -14.089,-13.28" style="fill:#ec008c;fill-rule:nonzero;"/><g><g opacity="0.199997"><clipPath id="_clip9"><rect x="350.567" y="56.424" width="69.179" height="79.542" clip-rule="nonzero"/></clipPath><g clip-path="url(#_clip9)"><path d="M350.567,56.434l37.209,0c13.701,-0.224 28.739,3.341 28.739,19.934c0,7.128 -4.231,12.928 -10.468,16.043c8.467,2.45 13.7,9.804 13.7,18.822c0,18.941 -13.922,24.733 -30.967,24.733l-38.213,0l0,-79.532Zm20.723,31.3l16.043,0c3.562,0 8.466,-1.899 8.466,-7.578c0,-5.792 -4.123,-7.68 -8.466,-7.68l-16.043,0l0,15.258Zm0,31.633l16.598,0c6.567,0 11.145,-2.34 11.145,-8.909c0,-7.019 -4.903,-9.359 -11.145,-9.359l-16.598,0l0,18.268Z" style="fill:#8ab8ea;fill-rule:nonzero;"/></g></g></g><path d="M367.191,113.833l-16.781,-24.074c-0.805,-0.944 -2.123,-0.944 -2.93,0l-16.781,24.074c-0.806,0.944 -0.45,1.716 0.791,1.716l7.021,0c1.24,0 2.255,1.015 2.255,2.257l0.012,7.371l0,19.09l-0.003,0.041c0,1.242 1.048,2.252 2.287,2.252l11.846,0c1.241,0 2.256,-1.016 2.256,-2.256l-0.039,-26.498c0,-1.242 1.014,-2.258 2.255,-2.258l7.02,0c1.241,0.001 1.598,-0.771 0.791,-1.715" style="fill:#18345f;fill-rule:nonzero;"/></svg>