<?xml version="1.0" encoding="UTF-8" standalone="no"?><!DOCTYPE svg PUBLIC "-//W3C//DTD SVG 1.1//EN" "http://www.w3.org/Graphics/SVG/1.1/DTD/svg11.dtd"><svg width="100%" height="100%" viewBox="0 0 196 35" version="1.1" xmlns="http://www.w3.org/2000/svg" xmlns:xlink="http://www.w3.org/1999/xlink" xml:space="preserve" xmlns:serif="http://www.serif.com/" style="fill-rule:evenodd;clip-rule:evenodd;stroke-linejoin:round;stroke-miterlimit:1.41421;"><g><path d="M126.865,31.846c0.27,0 0.509,-0.026 0.509,-0.342c0,-0.269 -0.257,-0.298 -0.476,-0.298l-0.436,0l0,0.64l0.403,0Zm-0.403,1.249l-0.364,0l0,-2.198l0.836,0c0.533,0 0.801,0.185 0.801,0.632c0,0.401 -0.241,0.562 -0.57,0.598l0.614,0.968l-0.411,0l-0.567,-0.94l-0.339,0l0,0.94Zm0.39,-2.778c-0.855,0 -1.528,0.677 -1.528,1.641c0,0.905 0.588,1.64 1.528,1.64c0.853,0 1.523,-0.667 1.523,-1.64c0,-0.964 -0.67,-1.641 -1.523,-1.641m0,3.625c-1.137,0 -1.949,-0.853 -1.949,-1.984c0,-1.194 0.898,-1.984 1.949,-1.984c1.046,0 1.947,0.79 1.947,1.984c0,1.195 -0.901,1.984 -1.947,1.984" style="fill:#fff;fill-rule:nonzero;"/><path d="M131.943,0.057l-108.589,0c-3.797,0 -5.731,0.041 -7.845,0.299c-4.758,0.548 -8.957,2.602 -11.528,5.633c-2.579,3.073 -3.955,6.817 -3.955,10.829c0,4.545 1.797,8.807 5.068,12.003c2.438,2.378 5.575,3.828 9.582,4.426c2.676,0.4 5.352,0.373 7.72,0.343l1.648,-0.011l98.931,0l8.968,-33.522Z" style="fill:#009a4e;fill-rule:nonzero;"/><path d="M122.398,32.838l-98.354,0c-6.524,0 -13.315,0.424 -18.42,-4.555c-3,-2.933 -4.844,-6.979 -4.844,-11.465c0,-3.923 1.413,-7.582 3.748,-10.352c2.679,-3.161 6.895,-4.877 11.074,-5.371c2.147,-0.266 4.152,-0.296 7.752,-0.296l107.603,0l-8.559,32.039Z" style="fill:#fff;fill-rule:nonzero;"/><path d="M104.702,12.487c-0.526,0 -0.884,0.235 -1.251,0.596c-1.258,1.235 -2.704,5 -3.419,7.907c-0.327,1.397 -0.485,2.183 -0.485,3.005c0,0.778 0.357,1.215 0.969,1.215c0.478,0 0.992,-0.334 1.353,-0.718c0.654,-0.679 1.109,-1.668 1.623,-2.899c1.227,-2.902 2.103,-6.681 2.103,-7.914c0,-0.6 -0.185,-1.192 -0.893,-1.192m4.447,8.042c-1.544,4.314 -4.085,7.801 -9.084,7.801c-3.464,0 -5.435,-1.678 -5.435,-5.239c0,-1.574 0.392,-3.252 0.888,-4.739c1.411,-4.147 4.48,-8.996 9.38,-8.996c3.664,0 5.438,1.852 5.438,5.472c0,1.748 -0.588,4.052 -1.187,5.701m-56.481,2.668c0,1.12 0.529,2.006 1.744,2.006c0.459,0 0.891,0 1.352,-0.099l1.616,-5.897c-2.241,0.266 -4.712,1.353 -4.712,3.99m10.31,-6.79l-3.06,11.103c-2.143,0.556 -4.351,0.884 -6.594,0.884c-2.83,0 -5.629,-1.378 -5.629,-4.575c0,-5.562 5.991,-7.148 10.476,-7.569c0.231,-0.73 0.461,-1.484 0.461,-2.245c0,-1.246 -1.091,-1.55 -2.144,-1.55c-1.476,0 -3.492,0.399 -4.901,0.856l0.788,-3.031c1.513,-0.656 3.818,-0.951 5.469,-0.951c2.697,0 5.597,0.864 5.597,4.084c0,1.018 -0.197,2.011 -0.463,2.994m35.776,-6.558c-0.743,-0.403 -2.011,-0.493 -3.044,-0.493c-2.069,0 -4.512,0.367 -6.381,1.326l-4.78,17.221l4.811,0l4.104,-14.986c0.715,-0.259 1.424,-0.363 2.18,-0.363c0.62,0 0.97,0.034 1.253,0.046l1.857,-2.751Zm-48.873,-0.836c0,-3.264 -2.209,-4.414 -5.174,-4.414c-2.994,0 -5.528,1.376 -7.44,3.651c-2.67,3.195 -4.877,9.955 -4.877,14.068c0,4.311 1.78,6.39 6.159,6.39c6.097,0 7.575,-4.948 8.995,-9.854l-5.27,0.991c-0.426,1.38 -1.485,5.371 -3.333,5.371c-1.117,0 -1.345,-1.051 -1.345,-1.975c0,-2.767 1.647,-8.04 2.636,-10.672c0.527,-1.386 1.878,-4.582 3.721,-4.582c0.422,0 0.719,0.227 0.847,0.446c0.167,0.255 0.214,0.554 0.214,0.919c0,0.147 -0.034,0.58 -0.1,0.892c-0.129,0.654 -1.09,4.133 -1.09,4.133l5.069,-0.889c0.39,-1.357 0.988,-3.068 0.988,-4.475m26.463,0.839c-1.223,-0.36 -2.565,-0.523 -3.826,-0.523c-3.715,0 -7.654,2.006 -7.69,6.191c-0.029,3.792 4.576,5.07 4.55,7.218c-0.019,1.743 -1.571,2.403 -3.083,2.403c-1.219,0 -2.518,-0.165 -3.699,-0.494l-0.838,2.897c1.545,0.495 3.425,0.722 5.031,0.722c3.76,0 7.232,-2.14 7.27,-6.22c0.04,-4.023 -4.301,-4.906 -4.286,-7.218c0.016,-1.785 1.801,-2.302 3.285,-2.302c0.784,0 1.639,0.062 2.434,0.233l0.852,-2.907Zm11.352,0.106l-3.521,0l1.375,-5.08l-5.068,0.83l-1.115,4.25l-1.75,0l-0.789,2.801l1.746,0c0,0 -2.703,9.843 -2.899,10.665c-0.131,0.529 -0.265,1.187 -0.265,1.717c0,1.316 0.859,2.268 1.974,2.567c0.422,0.134 1.151,0.195 1.983,0.195l3.492,0l0.784,-2.829l-1.771,0c-0.793,0 -1.521,-0.071 -1.521,-0.99c0,-0.232 0.068,-0.496 0.131,-0.82c0.097,-0.398 2.9,-10.505 2.9,-10.505l3.515,0l0.799,-2.801Zm27.674,12.744c-0.107,0.459 -0.171,0.858 -0.171,1.185c0,0.986 0.758,1.187 1.585,1.187l1.648,0l-0.666,2.829l-3.29,0c-1.029,0 -1.847,-0.102 -2.341,-0.294c-1.118,-0.463 -1.842,-1.452 -1.842,-2.931c0,-0.662 0.133,-1.348 0.293,-2.041c0.201,-0.856 4.64,-16.801 4.64,-16.801l5.048,-0.958c0,0 -4.745,17.093 -4.904,17.824" style="fill:#ed1b2d;fill-rule:nonzero;"/><path d="M12.724,17.73c-0.174,0 -0.307,-0.14 -0.307,-0.31c0,-0.172 0.133,-0.312 0.307,-0.312l0.843,0c0.164,0 0.313,0.14 0.313,0.312c0,0.17 -0.149,0.31 -0.313,0.31l-0.843,0Zm-0.922,-1.031c-0.115,0 -0.215,-0.095 -0.215,-0.21c0,-0.123 0.1,-0.217 0.215,-0.217l0.533,0c0.114,0 0.211,0.094 0.211,0.217c0,0.115 -0.095,0.21 -0.211,0.21l-0.533,0Zm-0.032,1.885l-0.522,0c-0.122,0 -0.211,-0.1 -0.211,-0.217c0,-0.117 0.096,-0.213 0.211,-0.213l0.522,0c0.116,0 0.214,0.096 0.214,0.213c0,0.117 -0.092,0.217 -0.214,0.217m-1.053,-0.955l-0.517,0c-0.12,0 -0.212,-0.099 -0.212,-0.213c0,-0.118 0.092,-0.218 0.212,-0.218l0.517,0c0.123,0 0.216,0.1 0.216,0.218c0,0.114 -0.093,0.213 -0.216,0.213m-0.997,-0.93l-0.525,0c-0.121,0 -0.216,-0.095 -0.216,-0.21c0,-0.123 0.097,-0.217 0.216,-0.217l0.525,0c0.119,0 0.216,0.094 0.216,0.217c0,0.115 -0.097,0.21 -0.216,0.21m-0.559,1.885l-0.522,0c-0.118,0 -0.222,-0.1 -0.222,-0.217c0,-0.117 0.104,-0.213 0.222,-0.213l0.522,0c0.116,0 0.211,0.096 0.211,0.213c0,0.117 -0.093,0.217 -0.211,0.217m0.598,-4.202l0.516,0c0.121,0 0.219,0.099 0.219,0.22c0,0.117 -0.093,0.215 -0.219,0.215l-0.516,0c-0.125,0 -0.219,-0.098 -0.219,-0.215c0,-0.121 0.094,-0.22 0.219,-0.22m1.006,0.929l0.529,0c0.116,0 0.217,0.099 0.217,0.216c0,0.119 -0.101,0.214 -0.217,0.214l-0.529,0c-0.121,0 -0.221,-0.095 -0.221,-0.214c0,-0.117 0.1,-0.216 0.221,-0.216m1.602,-0.929l0.521,0c0.121,0 0.218,0.099 0.218,0.22c0,0.117 -0.097,0.215 -0.218,0.215l-0.521,0c-0.123,0 -0.225,-0.098 -0.225,-0.215c0,-0.121 0.102,-0.22 0.225,-0.22m1.749,0.832c0.175,0 0.313,0.14 0.313,0.311c0,0.17 -0.138,0.309 -0.313,0.309l-0.839,0c-0.171,0 -0.315,-0.139 -0.315,-0.309c0,-0.171 0.144,-0.311 0.315,-0.311l0.839,0Z" style="fill:#f9adb3;fill-rule:nonzero;"/><path d="M10.765,15.742l0.529,0c0.116,0 0.217,-0.095 0.217,-0.214c0,-0.117 -0.101,-0.216 -0.217,-0.216l-0.529,0c-0.121,0 -0.221,0.099 -0.221,0.216c0,0.119 0.1,0.214 0.221,0.214" style="fill:#ed1b2d;fill-rule:nonzero;"/><path d="M12.366,14.818l0.521,0c0.122,0 0.218,-0.098 0.218,-0.215c0,-0.121 -0.096,-0.22 -0.218,-0.22l-0.521,0c-0.123,0 -0.225,0.099 -0.225,0.22c0,0.117 0.102,0.215 0.225,0.215" style="fill:#ed1b2d;fill-rule:nonzero;"/><path d="M16.161,14.137l-0.877,0c-0.262,0 -0.473,0.203 -0.473,0.465c0,0.259 0.211,0.469 0.473,0.469l0.652,0l0.282,-0.934l-0.057,0Z" style="fill:#ed1b2d;fill-rule:nonzero;"/><path d="M12.962,15.526c0,0.169 0.144,0.309 0.314,0.309l0.839,0c0.176,0 0.314,-0.14 0.314,-0.309c0,-0.171 -0.138,-0.311 -0.314,-0.311l-0.839,0c-0.17,0 -0.314,0.14 -0.314,0.311" style="fill:#ed1b2d;fill-rule:nonzero;"/><path d="M13.693,18.358c0,0.258 0.214,0.47 0.468,0.47l0.668,0l0.277,-0.936l-0.945,0c-0.254,0 -0.468,0.204 -0.468,0.466" style="fill:#ed1b2d;fill-rule:nonzero;"/><rect x="15.376" y="16.955" width="0.004" height="0.005" style="fill:#e01e2a;"/><path d="M14.274,16.478c0,0.26 0.209,0.482 0.465,0.482l0.637,0l0.002,-0.005l0.001,0l0.286,-0.955l-0.008,0l-0.918,0c-0.256,0 -0.465,0.221 -0.465,0.478" style="fill:#ed1b2d;fill-rule:nonzero;"/><path d="M11.769,18.155l-0.521,0c-0.116,0 -0.212,0.096 -0.212,0.213c0,0.117 0.089,0.217 0.212,0.217l0.521,0c0.122,0 0.214,-0.1 0.214,-0.217c0,-0.117 -0.098,-0.213 -0.214,-0.213" style="fill:#ed1b2d;fill-rule:nonzero;"/><path d="M12.546,16.49c0,-0.123 -0.098,-0.217 -0.211,-0.217l-0.533,0c-0.115,0 -0.215,0.094 -0.215,0.217c0,0.115 0.1,0.21 0.215,0.21l0.533,0c0.115,0 0.211,-0.095 0.211,-0.21" style="fill:#ed1b2d;fill-rule:nonzero;"/><path d="M13.88,17.421c0,-0.172 -0.149,-0.312 -0.314,-0.312l-0.842,0c-0.174,0 -0.307,0.14 -0.307,0.312c0,0.169 0.133,0.31 0.307,0.31l0.842,0c0.165,0 0.314,-0.141 0.314,-0.31" style="fill:#ed1b2d;fill-rule:nonzero;"/><path d="M9.759,14.818l0.516,0c0.126,0 0.218,-0.098 0.218,-0.215c0,-0.121 -0.097,-0.22 -0.218,-0.22l-0.516,0c-0.125,0 -0.219,0.099 -0.219,0.22c0,0.117 0.094,0.215 0.219,0.215" style="fill:#ed1b2d;fill-rule:nonzero;"/><path d="M23.05,14.898l-0.592,0c-0.137,0 -0.256,-0.114 -0.256,-0.258c0,-0.143 0.119,-0.257 0.256,-0.257l0.592,0c0.139,0 0.248,0.114 0.248,0.257c0,0.144 -0.109,0.258 -0.248,0.258m-0.553,1.833l-0.594,0c-0.13,0 -0.251,-0.104 -0.251,-0.253c0,-0.143 0.121,-0.257 0.251,-0.257l0.594,0c0.142,0 0.258,0.114 0.258,0.257c0,0.149 -0.116,0.253 -0.258,0.253m-0.556,1.853l-0.58,0c-0.149,0 -0.263,-0.119 -0.263,-0.261c0,-0.138 0.114,-0.252 0.263,-0.252l0.58,0c0.147,0 0.261,0.114 0.261,0.252c0,0.142 -0.114,0.261 -0.261,0.261m-1.193,-0.906l-0.588,0c-0.139,0 -0.255,-0.113 -0.255,-0.257c0,-0.147 0.116,-0.257 0.255,-0.257l0.588,0c0.14,0 0.257,0.11 0.257,0.257c0,0.144 -0.117,0.257 -0.257,0.257m-1.197,-0.947l-0.587,0c-0.144,0 -0.258,-0.104 -0.258,-0.253c0,-0.143 0.114,-0.257 0.258,-0.257l0.587,0c0.14,0 0.259,0.114 0.259,0.257c0,0.149 -0.119,0.253 -0.259,0.253m-0.554,1.853l-0.58,0c-0.144,0 -0.264,-0.119 -0.264,-0.261c0,-0.138 0.12,-0.252 0.264,-0.252l0.58,0c0.141,0 0.26,0.114 0.26,0.252c0,0.142 -0.119,0.261 -0.26,0.261m-1.996,-0.816c-0.2,0 -0.359,-0.157 -0.359,-0.347c0,-0.193 0.159,-0.359 0.359,-0.359l0.955,0c0.197,0 0.358,0.166 0.358,0.359c0,0.19 -0.161,0.347 -0.358,0.347l-0.955,0Zm0.553,-2.594l0.962,0c0.19,0 0.348,0.163 0.348,0.352c0,0.197 -0.158,0.356 -0.348,0.356l-0.962,0c-0.201,0 -0.359,-0.159 -0.359,-0.356c0,-0.189 0.158,-0.352 0.359,-0.352m1.963,-0.791l0.584,0c0.144,0 0.261,0.114 0.261,0.257c0,0.144 -0.117,0.258 -0.261,0.258l-0.584,0c-0.14,0 -0.26,-0.114 -0.26,-0.258c0,-0.143 0.12,-0.257 0.26,-0.257m1.195,0.89l0.584,0c0.147,0 0.258,0.115 0.258,0.253c0,0.146 -0.111,0.261 -0.258,0.261l-0.584,0c-0.137,0 -0.256,-0.115 -0.256,-0.261c0,-0.138 0.119,-0.253 0.256,-0.253m9.157,-1.136l-12.868,0c0.199,0.058 0.352,0.242 0.352,0.466c0,0.258 -0.206,0.468 -0.465,0.468l-0.951,0l-0.28,0.929l0.689,0c0.258,0 0.468,0.219 0.468,0.482c0,0.258 -0.21,0.473 -0.468,0.473l-0.966,0l-0.002,0.005l-0.002,0l-0.269,0.932l0.654,0c0.258,0 0.469,0.205 0.469,0.466c0,0.231 -0.172,0.425 -0.399,0.474l14.17,0c0.095,-0.648 0.148,-1.312 0.148,-1.987c0,-0.929 -0.097,-1.833 -0.28,-2.708" style="fill:#ed1b2d;fill-rule:nonzero;"/><path d="M9.161,18.155l-0.522,0c-0.119,0 -0.222,0.096 -0.222,0.213c0,0.117 0.103,0.217 0.222,0.217l0.522,0c0.117,0 0.211,-0.1 0.211,-0.217c0,-0.117 -0.096,-0.213 -0.211,-0.213" style="fill:#ed1b2d;fill-rule:nonzero;"/><path d="M10.717,17.198l-0.518,0c-0.119,0 -0.211,0.101 -0.211,0.219c0,0.114 0.092,0.213 0.211,0.213l0.518,0c0.123,0 0.216,-0.099 0.216,-0.213c0,-0.118 -0.093,-0.219 -0.216,-0.219" style="fill:#ed1b2d;fill-rule:nonzero;"/><path d="M9.72,16.273l-0.525,0c-0.12,0 -0.216,0.094 -0.216,0.217c0,0.115 0.095,0.209 0.216,0.209l0.525,0c0.119,0 0.216,-0.094 0.216,-0.209c0,-0.123 -0.097,-0.217 -0.216,-0.217" style="fill:#ed1b2d;fill-rule:nonzero;"/><path d="M30.14,16.85c0,7.315 -5.929,13.242 -13.243,13.242c-7.314,0 -13.241,-5.927 -13.241,-13.242c0,-7.313 5.927,-13.242 13.241,-13.242c7.314,0 13.243,5.929 13.243,13.242" style="fill:#009a4e;fill-rule:nonzero;"/><clipPath id="_clip1"><path d="M3.652,30.094l26.488,0l0,-26.487l-26.488,0l0,26.487Z" clip-rule="nonzero"/></clipPath><g clip-path="url(#_clip1)"><path d="M29.862,19.546c1.488,-7.155 -3.114,-14.172 -10.27,-15.66c-7.156,-1.488 -14.174,3.114 -15.661,10.269c-1.488,7.155 3.114,14.172 10.27,15.66c7.156,1.488 14.174,-3.114 15.661,-10.269Z" style="fill:url(#_Radial2);"/></g><clipPath id="_clip3"><rect x="14.937" y="3.773" width="13.759" height="10.08" clip-rule="nonzero"/></clipPath><g clip-path="url(#_clip3)"><path d="M28.474,13.211c-0.878,1.501 -4.486,0.195 -8.168,-2.161c-3.684,-2.359 -6.104,-4.905 -5.166,-6.372c0.936,-1.463 5.303,-1.2 8.923,1.126c3.767,2.415 5.236,5.998 4.411,7.407" style="fill:#009a4e;fill-rule:nonzero;"/></g><clipPath id="_clip4"><rect x="15.151" y="3.852" width="13.404" height="9.816" clip-rule="nonzero"/></clipPath><g clip-path="url(#_clip4)"><path d="M28.339,13.044c-0.855,1.461 -4.367,0.187 -7.955,-2.107c-3.588,-2.299 -5.949,-4.778 -5.036,-6.206c0.911,-1.423 5.163,-1.165 8.69,1.101c3.67,2.352 5.104,5.841 4.301,7.212" style="fill:#059c51;fill-rule:nonzero;"/></g><clipPath id="_clip5"><rect x="15.365" y="3.93" width="13.048" height="9.553" clip-rule="nonzero"/></clipPath><g clip-path="url(#_clip5)"><path d="M28.203,12.877c-0.831,1.421 -4.248,0.18 -7.74,-2.055c-3.493,-2.237 -5.794,-4.65 -4.906,-6.038c0.885,-1.384 5.022,-1.13 8.458,1.075c3.572,2.29 4.969,5.684 4.188,7.018" style="fill:#099e54;fill-rule:nonzero;"/></g><clipPath id="_clip6"><rect x="15.579" y="4.008" width="12.692" height="9.29" clip-rule="nonzero"/></clipPath><g clip-path="url(#_clip6)"><path d="M28.067,12.71c-0.807,1.381 -4.129,0.171 -7.526,-2.003c-3.399,-2.176 -5.639,-4.521 -4.777,-5.87c0.862,-1.345 4.884,-1.096 8.225,1.05c3.476,2.227 4.838,5.527 4.078,6.823" style="fill:#0e9f58;fill-rule:nonzero;"/></g><clipPath id="_clip7"><rect x="15.794" y="4.086" width="12.336" height="9.028" clip-rule="nonzero"/></clipPath><g clip-path="url(#_clip7)"><path d="M27.932,12.544c-0.784,1.341 -4.011,0.164 -7.312,-1.949c-3.305,-2.116 -5.485,-4.394 -4.647,-5.704c0.836,-1.306 4.744,-1.061 7.992,1.025c3.378,2.165 4.704,5.37 3.967,6.628" style="fill:#12a15b;fill-rule:nonzero;"/></g><clipPath id="_clip8"><rect x="16.008" y="4.165" width="11.981" height="8.764" clip-rule="nonzero"/></clipPath><g clip-path="url(#_clip8)"><path d="M27.798,12.376c-0.761,1.301 -3.893,0.157 -7.1,-1.895c-3.209,-2.055 -5.328,-4.267 -4.515,-5.537c0.81,-1.266 4.604,-1.026 7.76,0.999c3.279,2.102 4.57,5.213 3.855,6.433" style="fill:#17a35e;fill-rule:nonzero;"/></g><path d="M27.662,12.209c-0.737,1.261 -3.772,0.148 -6.886,-1.843c-3.113,-1.994 -5.172,-4.138 -4.384,-5.369c0.785,-1.227 4.463,-0.993 7.525,0.974c3.184,2.039 4.438,5.056 3.745,6.238" style="fill:#1ca561;fill-rule:nonzero;"/><clipPath id="_clip9"><rect x="16.438" y="4.322" width="11.268" height="8.237" clip-rule="nonzero"/></clipPath><g clip-path="url(#_clip9)"><path d="M27.526,12.042c-0.713,1.22 -3.654,0.14 -6.672,-1.789c-3.017,-1.934 -5.017,-4.011 -4.254,-5.203c0.76,-1.188 4.324,-0.958 7.292,0.949c3.087,1.977 4.306,4.898 3.634,6.043" style="fill:#20a764;fill-rule:nonzero;"/></g><path d="M27.391,11.875c-0.689,1.181 -3.535,0.132 -6.457,-1.737c-2.924,-1.872 -4.863,-3.883 -4.125,-5.035c0.735,-1.149 4.185,-0.924 7.06,0.923c2.989,1.915 4.172,4.742 3.522,5.849" style="fill:#25a967;fill-rule:nonzero;"/><clipPath id="_clip10"><rect x="16.867" y="4.479" width="10.556" height="7.711" clip-rule="nonzero"/></clipPath><g clip-path="url(#_clip10)"><path d="M27.257,11.708c-0.667,1.14 -3.417,0.125 -6.244,-1.684c-2.829,-1.812 -4.707,-3.754 -3.994,-4.868c0.709,-1.109 4.045,-0.888 6.826,0.898c2.892,1.852 4.039,4.585 3.412,5.654" style="fill:#2aaa6b;fill-rule:nonzero;"/></g><clipPath id="_clip11"><rect x="17.081" y="4.557" width="10.201" height="7.448" clip-rule="nonzero"/></clipPath><g clip-path="url(#_clip11)"><path d="M27.122,11.541c-0.645,1.1 -3.299,0.117 -6.031,-1.631c-2.734,-1.751 -4.551,-3.626 -3.865,-4.701c0.686,-1.07 3.906,-0.854 6.594,0.873c2.794,1.79 3.906,4.428 3.302,5.459" style="fill:#2eac6e;fill-rule:nonzero;"/></g><clipPath id="_clip12"><rect x="17.295" y="4.635" width="9.844" height="7.185" clip-rule="nonzero"/></clipPath><g clip-path="url(#_clip12)"><path d="M26.985,11.374c-0.619,1.06 -3.179,0.109 -5.816,-1.578c-2.638,-1.69 -4.397,-3.499 -3.734,-4.534c0.66,-1.031 3.765,-0.82 6.361,0.847c2.697,1.728 3.773,4.271 3.189,5.265" style="fill:#33ae71;fill-rule:nonzero;"/></g><clipPath id="_clip13"><rect x="17.51" y="4.714" width="9.489" height="6.922" clip-rule="nonzero"/></clipPath><g clip-path="url(#_clip13)"><path d="M26.85,11.207c-0.597,1.02 -3.061,0.101 -5.603,-1.525c-2.543,-1.63 -4.241,-3.371 -3.603,-4.367c0.635,-0.992 3.625,-0.785 6.128,0.822c2.598,1.665 3.639,4.114 3.078,5.07" style="fill:#37b074;fill-rule:nonzero;"/></g><clipPath id="_clip14"><rect x="17.724" y="4.792" width="9.133" height="6.659" clip-rule="nonzero"/></clipPath><g clip-path="url(#_clip14)"><path d="M26.716,11.04c-0.573,0.98 -2.941,0.093 -5.39,-1.473c-2.448,-1.568 -4.085,-3.242 -3.473,-4.198c0.61,-0.954 3.486,-0.751 5.895,0.795c2.502,1.603 3.507,3.958 2.968,4.876" style="fill:#3cb278;fill-rule:nonzero;"/></g><clipPath id="_clip15"><rect x="17.938" y="4.87" width="8.778" height="6.396" clip-rule="nonzero"/></clipPath><g clip-path="url(#_clip15)"><path d="M26.581,10.873c-0.551,0.94 -2.823,0.086 -5.176,-1.419c-2.353,-1.508 -3.931,-3.115 -3.344,-4.032c0.585,-0.914 3.346,-0.716 5.663,0.77c2.404,1.54 3.374,3.801 2.857,4.681" style="fill:#41b47b;fill-rule:nonzero;"/></g><clipPath id="_clip16"><rect x="18.153" y="4.948" width="8.421" height="6.133" clip-rule="nonzero"/></clipPath><g clip-path="url(#_clip16)"><path d="M26.445,10.706c-0.526,0.9 -2.704,0.078 -4.962,-1.366c-2.258,-1.447 -3.774,-2.988 -3.213,-3.864c0.56,-0.875 3.206,-0.683 5.43,0.745c2.307,1.477 3.24,3.643 2.745,4.485" style="fill:#45b57e;fill-rule:nonzero;"/></g><clipPath id="_clip17"><rect x="18.367" y="5.027" width="8.065" height="5.869" clip-rule="nonzero"/></clipPath><g clip-path="url(#_clip17)"><path d="M26.31,10.539c-0.504,0.86 -2.586,0.069 -4.749,-1.313c-2.163,-1.386 -3.619,-2.859 -3.082,-3.698c0.535,-0.835 3.066,-0.647 5.195,0.72c2.21,1.415 3.109,3.486 2.636,4.291" style="fill:#4ab781;fill-rule:nonzero;"/></g><path d="M26.175,10.372c-0.48,0.819 -2.467,0.061 -4.535,-1.26c-2.068,-1.325 -3.464,-2.731 -2.951,-3.53c0.509,-0.797 2.926,-0.614 4.963,0.694c2.112,1.352 2.974,3.329 2.523,4.096" style="fill:#4eb984;fill-rule:nonzero;"/><clipPath id="_clip18"><rect x="18.797" y="5.184" width="7.353" height="5.343" clip-rule="nonzero"/></clipPath><g clip-path="url(#_clip18)"><path d="M26.04,10.205c-0.457,0.779 -2.348,0.054 -4.321,-1.207c-1.974,-1.265 -3.309,-2.604 -2.822,-3.363c0.485,-0.757 2.786,-0.579 4.73,0.669c2.015,1.29 2.842,3.172 2.413,3.901" style="fill:#53bb88;fill-rule:nonzero;"/></g><clipPath id="_clip19"><rect x="19.011" y="5.262" width="6.997" height="5.08" clip-rule="nonzero"/></clipPath><g clip-path="url(#_clip19)"><path d="M25.904,10.038c-0.433,0.739 -2.229,0.046 -4.106,-1.154c-1.879,-1.204 -3.155,-2.476 -2.692,-3.197c0.459,-0.717 2.647,-0.544 4.496,0.644c1.918,1.228 2.709,3.016 2.302,3.707" style="fill:#57bd8b;fill-rule:nonzero;"/></g><clipPath id="_clip20"><rect x="19.225" y="5.34" width="6.642" height="4.818" clip-rule="nonzero"/></clipPath><g clip-path="url(#_clip20)"><path d="M25.769,9.871c-0.409,0.699 -2.11,0.038 -3.894,-1.102c-1.783,-1.142 -2.998,-2.347 -2.561,-3.029c0.434,-0.678 2.507,-0.509 4.264,0.619c1.821,1.165 2.576,2.859 2.191,3.512" style="fill:#5cbe8e;fill-rule:nonzero;"/></g><path d="M25.634,9.704c-0.386,0.659 -1.991,0.03 -3.68,-1.049c-1.687,-1.081 -2.842,-2.22 -2.43,-2.861c0.409,-0.639 2.367,-0.475 4.031,0.593c1.723,1.102 2.442,2.702 2.079,3.317" style="fill:#61c091;fill-rule:nonzero;"/><clipPath id="_clip21"><rect x="19.653" y="5.496" width="5.931" height="4.292" clip-rule="nonzero"/></clipPath><g clip-path="url(#_clip21)"><path d="M25.499,9.537c-0.363,0.619 -1.873,0.022 -3.466,-0.996c-1.593,-1.021 -2.688,-2.091 -2.302,-2.695c0.385,-0.599 2.229,-0.44 3.799,0.568c1.625,1.041 2.31,2.545 1.969,3.123" style="fill:#65c294;fill-rule:nonzero;"/></g><clipPath id="_clip22"><rect x="19.868" y="5.575" width="5.575" height="4.029" clip-rule="nonzero"/></clipPath><g clip-path="url(#_clip22)"><path d="M25.364,9.37c-0.34,0.579 -1.754,0.015 -3.253,-0.943c-1.498,-0.96 -2.532,-1.963 -2.171,-2.527c0.36,-0.561 2.088,-0.406 3.566,0.542c1.528,0.978 2.176,2.388 1.858,2.928" style="fill:#6ac497;fill-rule:nonzero;"/></g><clipPath id="_clip23"><rect x="20.082" y="5.653" width="5.219" height="3.766" clip-rule="nonzero"/></clipPath><g clip-path="url(#_clip23)"><path d="M25.228,9.203c-0.315,0.538 -1.635,0.007 -3.038,-0.89c-1.403,-0.9 -2.378,-1.836 -2.041,-2.36c0.334,-0.521 1.948,-0.371 3.332,0.517c1.431,0.915 2.044,2.23 1.747,2.733" style="fill:#6ec69b;fill-rule:nonzero;"/></g><clipPath id="_clip24"><rect x="20.297" y="5.731" width="4.863" height="3.503" clip-rule="nonzero"/></clipPath><g clip-path="url(#_clip24)"><path d="M25.094,9.035c-0.293,0.498 -1.517,-0.001 -2.825,-0.837c-1.309,-0.838 -2.222,-1.707 -1.91,-2.193c0.308,-0.482 1.808,-0.336 3.099,0.492c1.333,0.852 1.91,2.074 1.636,2.538" style="fill:#73c89e;fill-rule:nonzero;"/></g><clipPath id="_clip25"><rect x="20.511" y="5.809" width="4.507" height="3.24" clip-rule="nonzero"/></clipPath><g clip-path="url(#_clip25)"><path d="M24.958,8.868c-0.27,0.458 -1.397,-0.009 -2.611,-0.784c-1.213,-0.777 -2.067,-1.579 -1.78,-2.025c0.284,-0.443 1.668,-0.303 2.866,0.466c1.236,0.79 1.777,1.916 1.525,2.343" style="fill:#78c9a1;fill-rule:nonzero;"/></g><clipPath id="_clip26"><rect x="20.726" y="5.887" width="4.152" height="2.978" clip-rule="nonzero"/></clipPath><g clip-path="url(#_clip26)"><path d="M24.823,8.701c-0.246,0.418 -1.279,-0.017 -2.398,-0.731c-1.118,-0.717 -1.911,-1.452 -1.649,-1.858c0.258,-0.404 1.528,-0.268 2.633,0.441c1.139,0.727 1.644,1.759 1.414,2.148" style="fill:#7ccba4;fill-rule:nonzero;"/></g><clipPath id="_clip27"><rect x="20.94" y="5.965" width="3.796" height="2.715" clip-rule="nonzero"/></clipPath><g clip-path="url(#_clip27)"><path d="M24.688,8.534c-0.224,0.378 -1.16,-0.024 -2.184,-0.678c-1.024,-0.656 -1.756,-1.324 -1.519,-1.691c0.232,-0.365 1.389,-0.234 2.4,0.415c1.04,0.665 1.51,1.602 1.303,1.954" style="fill:#81cda8;fill-rule:nonzero;"/></g><clipPath id="_clip28"><rect x="21.154" y="6.043" width="3.441" height="2.453" clip-rule="nonzero"/></clipPath><g clip-path="url(#_clip28)"><path d="M24.553,8.367c-0.2,0.337 -1.041,-0.033 -1.97,-0.626c-0.928,-0.594 -1.601,-1.195 -1.389,-1.523c0.208,-0.326 1.249,-0.199 2.167,0.39c0.944,0.603 1.379,1.445 1.192,1.759" style="fill:#86cfab;fill-rule:nonzero;"/></g><clipPath id="_clip29"><rect x="21.369" y="6.121" width="3.084" height="2.19" clip-rule="nonzero"/></clipPath><g clip-path="url(#_clip29)"><path d="M24.417,8.2c-0.176,0.297 -0.922,-0.04 -1.756,-0.572c-0.833,-0.534 -1.444,-1.068 -1.259,-1.357c0.185,-0.286 1.11,-0.164 1.935,0.364c0.846,0.541 1.244,1.289 1.08,1.565" style="fill:#8ad1ae;fill-rule:nonzero;"/></g><clipPath id="_clip30"><rect x="21.582" y="6.198" width="2.73" height="1.929" clip-rule="nonzero"/></clipPath><g clip-path="url(#_clip30)"><path d="M24.282,8.033c-0.152,0.258 -0.804,-0.048 -1.543,-0.519c-0.738,-0.473 -1.289,-0.94 -1.129,-1.189c0.158,-0.248 0.971,-0.13 1.702,0.339c0.749,0.477 1.112,1.131 0.97,1.369" style="fill:#8fd3b1;fill-rule:nonzero;"/></g><clipPath id="_clip31"><rect x="21.797" y="6.276" width="2.375" height="1.667" clip-rule="nonzero"/></clipPath><g clip-path="url(#_clip31)"><path d="M24.147,7.866c-0.13,0.217 -0.686,-0.056 -1.329,-0.466c-0.644,-0.413 -1.134,-0.812 -0.999,-1.022c0.134,-0.208 0.83,-0.096 1.469,0.313c0.652,0.415 0.978,0.975 0.859,1.175" style="fill:#93d4b4;fill-rule:nonzero;"/></g><clipPath id="_clip32"><rect x="22.011" y="6.353" width="2.019" height="1.406" clip-rule="nonzero"/></clipPath><g clip-path="url(#_clip32)"><path d="M24.012,7.699c-0.106,0.177 -0.567,-0.062 -1.115,-0.413c-0.549,-0.351 -0.978,-0.684 -0.868,-0.855c0.109,-0.169 0.69,-0.061 1.236,0.288c0.554,0.352 0.845,0.817 0.747,0.98" style="fill:#98d6b7;fill-rule:nonzero;"/></g><clipPath id="_clip33"><rect x="22.225" y="6.429" width="1.665" height="1.146" clip-rule="nonzero"/></clipPath><g clip-path="url(#_clip33)"><path d="M23.876,7.532c-0.083,0.137 -0.447,-0.071 -0.9,-0.36c-0.454,-0.29 -0.825,-0.556 -0.739,-0.688c0.084,-0.129 0.551,-0.026 1.002,0.263c0.457,0.291 0.713,0.66 0.637,0.785" style="fill:#9dd8bb;fill-rule:nonzero;"/></g><clipPath id="_clip34"><rect x="22.439" y="6.504" width="1.311" height="0.888" clip-rule="nonzero"/></clipPath><g clip-path="url(#_clip34)"><path d="M23.741,7.365c-0.059,0.097 -0.328,-0.079 -0.687,-0.308c-0.359,-0.229 -0.668,-0.427 -0.608,-0.52c0.059,-0.09 0.41,0.009 0.77,0.238c0.359,0.228 0.58,0.503 0.525,0.59" style="fill:#a1dabe;fill-rule:nonzero;"/></g><path d="M23.606,7.198c-0.035,0.057 -0.21,-0.087 -0.475,-0.254c-0.262,-0.17 -0.513,-0.301 -0.476,-0.354c0.032,-0.051 0.27,0.043 0.536,0.212c0.263,0.166 0.448,0.347 0.415,0.396" style="fill:#a6dcc1;fill-rule:nonzero;"/><clipPath id="_clip35"><rect x="19.779" y="5.012" width="6.409" height="4.77" clip-rule="nonzero"/></clipPath><g clip-path="url(#_clip35)"><path d="M19.844,5.317c0.362,-0.529 2.503,-0.429 4.228,0.753c1.726,1.18 2.382,2.994 2.02,3.524c-0.361,0.531 -1.958,-0.115 -3.684,-1.297c-1.725,-1.18 -2.926,-2.45 -2.564,-2.98" style="fill:#85cfaa;fill-rule:nonzero;"/></g><clipPath id="_clip36"><rect x="19.87" y="5.062" width="6.236" height="4.641" clip-rule="nonzero"/></clipPath><g clip-path="url(#_clip36)"><path d="M19.932,5.359c0.354,-0.515 2.434,-0.417 4.113,0.732c1.68,1.149 2.319,2.914 1.966,3.43c-0.351,0.515 -1.905,-0.113 -3.584,-1.262c-1.679,-1.148 -2.848,-2.384 -2.495,-2.9" style="fill:#88d0ac;fill-rule:nonzero;"/></g><clipPath id="_clip37"><rect x="19.96" y="5.112" width="6.063" height="4.512" clip-rule="nonzero"/></clipPath><g clip-path="url(#_clip37)"><path d="M20.021,5.401c0.343,-0.501 2.366,-0.404 3.998,0.712c1.634,1.118 2.255,2.832 1.912,3.334c-0.342,0.502 -1.852,-0.109 -3.484,-1.226c-1.632,-1.117 -2.769,-2.319 -2.426,-2.82" style="fill:#8bd1af;fill-rule:nonzero;"/></g><clipPath id="_clip38"><rect x="20.05" y="5.162" width="5.89" height="4.383" clip-rule="nonzero"/></clipPath><g clip-path="url(#_clip38)"><path d="M20.109,5.443c0.333,-0.487 2.298,-0.393 3.884,0.692c1.587,1.085 2.191,2.75 1.858,3.238c-0.332,0.487 -1.8,-0.106 -3.386,-1.191c-1.585,-1.085 -2.689,-2.253 -2.356,-2.739" style="fill:#8fd3b1;fill-rule:nonzero;"/></g><path d="M20.198,5.484c0.324,-0.472 2.23,-0.381 3.77,0.673c1.539,1.053 2.126,2.668 1.802,3.142c-0.321,0.473 -1.746,-0.103 -3.285,-1.156c-1.539,-1.054 -2.609,-2.187 -2.287,-2.659" style="fill:#92d4b3;fill-rule:nonzero;"/><clipPath id="_clip39"><rect x="20.231" y="5.263" width="5.544" height="4.125" clip-rule="nonzero"/></clipPath><g clip-path="url(#_clip39)"><path d="M20.287,5.526c0.314,-0.458 2.162,-0.369 3.654,0.653c1.494,1.021 2.064,2.588 1.75,3.046c-0.312,0.459 -1.693,-0.099 -3.186,-1.121c-1.492,-1.021 -2.531,-2.12 -2.218,-2.578" style="fill:#96d5b6;fill-rule:nonzero;"/></g><clipPath id="_clip40"><rect x="20.322" y="5.313" width="5.37" height="3.996" clip-rule="nonzero"/></clipPath><g clip-path="url(#_clip40)"><path d="M20.376,5.568c0.304,-0.444 2.094,-0.357 3.54,0.632c1.446,0.99 1.999,2.507 1.695,2.952c-0.302,0.444 -1.641,-0.097 -3.087,-1.087c-1.445,-0.989 -2.452,-2.054 -2.148,-2.497" style="fill:#99d7b8;fill-rule:nonzero;"/></g><clipPath id="_clip41"><rect x="20.412" y="5.363" width="5.197" height="3.867" clip-rule="nonzero"/></clipPath><g clip-path="url(#_clip41)"><path d="M20.464,5.61c0.295,-0.429 2.027,-0.345 3.426,0.613c1.399,0.957 1.935,2.425 1.64,2.855c-0.293,0.43 -1.587,-0.094 -2.986,-1.051c-1.399,-0.957 -2.373,-1.988 -2.08,-2.417" style="fill:#9cd8bb;fill-rule:nonzero;"/></g><path d="M20.553,5.652c0.284,-0.415 1.959,-0.333 3.312,0.593c1.352,0.925 1.871,2.344 1.586,2.759c-0.283,0.416 -1.535,-0.09 -2.887,-1.016c-1.353,-0.925 -2.295,-1.922 -2.011,-2.336" style="fill:#a0d9bd;fill-rule:nonzero;"/><clipPath id="_clip42"><rect x="20.593" y="5.464" width="4.851" height="3.609" clip-rule="nonzero"/></clipPath><g clip-path="url(#_clip42)"><path d="M20.641,5.694c0.274,-0.4 1.891,-0.321 3.196,0.572c1.307,0.894 1.807,2.263 1.533,2.665c-0.273,0.401 -1.483,-0.088 -2.788,-0.981c-1.306,-0.894 -2.214,-1.856 -1.941,-2.256" style="fill:#a3dbbf;fill-rule:nonzero;"/></g><clipPath id="_clip43"><rect x="20.683" y="5.514" width="4.677" height="3.48" clip-rule="nonzero"/></clipPath><g clip-path="url(#_clip43)"><path d="M20.73,5.735c0.265,-0.386 1.822,-0.308 3.081,0.553c1.261,0.862 1.743,2.181 1.479,2.569c-0.263,0.386 -1.43,-0.085 -2.689,-0.947c-1.259,-0.861 -2.135,-1.789 -1.871,-2.175" style="fill:#a7dcc2;fill-rule:nonzero;"/></g><clipPath id="_clip44"><rect x="20.774" y="5.564" width="4.504" height="3.35" clip-rule="nonzero"/></clipPath><g clip-path="url(#_clip44)"><path d="M20.819,5.777c0.254,-0.371 1.754,-0.296 2.967,0.533c1.213,0.83 1.679,2.1 1.425,2.473c-0.254,0.372 -1.377,-0.081 -2.59,-0.911c-1.213,-0.83 -2.057,-1.723 -1.802,-2.095" style="fill:#aaddc4;fill-rule:nonzero;"/></g><clipPath id="_clip45"><rect x="20.864" y="5.614" width="4.331" height="3.222" clip-rule="nonzero"/></clipPath><g clip-path="url(#_clip45)"><path d="M20.907,5.819c0.245,-0.358 1.687,-0.285 2.853,0.513c1.167,0.799 1.615,2.019 1.37,2.378c-0.243,0.357 -1.323,-0.078 -2.49,-0.876c-1.166,-0.798 -1.977,-1.658 -1.733,-2.015" style="fill:#addfc6;fill-rule:nonzero;"/></g><clipPath id="_clip46"><rect x="20.954" y="5.664" width="4.158" height="3.093" clip-rule="nonzero"/></clipPath><g clip-path="url(#_clip46)"><path d="M20.996,5.861c0.235,-0.343 1.618,-0.273 2.738,0.493c1.12,0.766 1.551,1.938 1.316,2.282c-0.234,0.343 -1.271,-0.075 -2.39,-0.841c-1.12,-0.766 -1.898,-1.591 -1.664,-1.934" style="fill:#b1e0c9;fill-rule:nonzero;"/></g><clipPath id="_clip47"><rect x="21.045" y="5.715" width="3.984" height="2.963" clip-rule="nonzero"/></clipPath><g clip-path="url(#_clip47)"><path d="M21.085,5.903c0.226,-0.329 1.551,-0.261 2.623,0.473c1.073,0.734 1.487,1.856 1.262,2.186c-0.225,0.329 -1.218,-0.072 -2.291,-0.806c-1.073,-0.734 -1.819,-1.524 -1.594,-1.853" style="fill:#b4e1cb;fill-rule:nonzero;"/></g><clipPath id="_clip48"><rect x="21.135" y="5.765" width="3.811" height="2.834" clip-rule="nonzero"/></clipPath><g clip-path="url(#_clip48)"><path d="M21.174,5.944c0.216,-0.314 1.481,-0.249 2.509,0.453c1.026,0.703 1.422,1.775 1.207,2.09c-0.215,0.315 -1.165,-0.068 -2.192,-0.771c-1.025,-0.701 -1.739,-1.458 -1.524,-1.772" style="fill:#b8e3cd;fill-rule:nonzero;"/></g><clipPath id="_clip49"><rect x="21.225" y="5.815" width="3.638" height="2.706" clip-rule="nonzero"/></clipPath><g clip-path="url(#_clip49)"><path d="M21.262,5.986c0.206,-0.301 1.415,-0.237 2.395,0.433c0.979,0.671 1.358,1.693 1.153,1.995c-0.205,0.3 -1.112,-0.065 -2.092,-0.736c-0.979,-0.67 -1.66,-1.393 -1.456,-1.692" style="fill:#bbe4d0;fill-rule:nonzero;"/></g><clipPath id="_clip50"><rect x="21.316" y="5.865" width="3.465" height="2.576" clip-rule="nonzero"/></clipPath><g clip-path="url(#_clip50)"><path d="M21.35,6.028c0.196,-0.286 1.347,-0.225 2.279,0.413c0.934,0.639 1.295,1.613 1.1,1.9c-0.195,0.285 -1.06,-0.063 -1.992,-0.702c-0.934,-0.637 -1.581,-1.325 -1.387,-1.611" style="fill:#bee5d2;fill-rule:nonzero;"/></g><clipPath id="_clip51"><rect x="21.407" y="5.915" width="3.291" height="2.448" clip-rule="nonzero"/></clipPath><g clip-path="url(#_clip51)"><path d="M21.439,6.07c0.186,-0.271 1.278,-0.213 2.165,0.393c0.887,0.607 1.23,1.532 1.045,1.804c-0.186,0.271 -1.007,-0.059 -1.893,-0.666c-0.886,-0.606 -1.502,-1.26 -1.317,-1.531" style="fill:#c2e7d5;fill-rule:nonzero;"/></g><clipPath id="_clip52"><rect x="21.496" y="5.965" width="3.119" height="2.319" clip-rule="nonzero"/></clipPath><g clip-path="url(#_clip52)"><path d="M21.527,6.112c0.177,-0.258 1.211,-0.201 2.051,0.373c0.841,0.575 1.167,1.45 0.991,1.708c-0.176,0.256 -0.954,-0.056 -1.793,-0.631c-0.84,-0.574 -1.425,-1.194 -1.249,-1.45" style="fill:#c5e8d7;fill-rule:nonzero;"/></g><path d="M21.616,6.153c0.166,-0.243 1.143,-0.188 1.937,0.354c0.793,0.543 1.102,1.369 0.936,1.613c-0.166,0.241 -0.901,-0.054 -1.694,-0.596c-0.793,-0.543 -1.345,-1.128 -1.179,-1.371" style="fill:#c9e9d9;fill-rule:nonzero;"/><clipPath id="_clip53"><rect x="21.677" y="6.066" width="2.773" height="2.06" clip-rule="nonzero"/></clipPath><g clip-path="url(#_clip53)"><path d="M21.705,6.195c0.157,-0.229 1.074,-0.176 1.821,0.334c0.746,0.511 1.039,1.287 0.883,1.516c-0.156,0.228 -0.848,-0.049 -1.595,-0.56c-0.746,-0.511 -1.265,-1.062 -1.109,-1.29" style="fill:#ccebdc;fill-rule:nonzero;"/></g><clipPath id="_clip54"><rect x="21.768" y="6.116" width="2.599" height="1.932" clip-rule="nonzero"/></clipPath><g clip-path="url(#_clip54)"><path d="M21.794,6.237c0.146,-0.214 1.006,-0.165 1.707,0.313c0.699,0.48 0.975,1.207 0.828,1.422c-0.146,0.214 -0.795,-0.047 -1.495,-0.526c-0.7,-0.479 -1.186,-0.996 -1.04,-1.209" style="fill:#cfecde;fill-rule:nonzero;"/></g><clipPath id="_clip55"><rect x="21.858" y="6.166" width="2.427" height="1.802" clip-rule="nonzero"/></clipPath><g clip-path="url(#_clip55)"><path d="M21.882,6.279c0.138,-0.2 0.939,-0.152 1.593,0.294c0.653,0.447 0.911,1.125 0.774,1.325c-0.137,0.199 -0.742,-0.044 -1.395,-0.491c-0.654,-0.446 -1.107,-0.929 -0.972,-1.128" style="fill:#d3eee0;fill-rule:nonzero;"/></g><clipPath id="_clip56"><rect x="21.948" y="6.216" width="2.254" height="1.674" clip-rule="nonzero"/></clipPath><g clip-path="url(#_clip56)"><path d="M21.971,6.321c0.128,-0.187 0.871,-0.141 1.478,0.273c0.607,0.416 0.847,1.044 0.72,1.23c-0.126,0.185 -0.689,-0.04 -1.296,-0.455c-0.607,-0.415 -1.028,-0.864 -0.902,-1.048" style="fill:#d6efe3;fill-rule:nonzero;"/></g><path d="M22.059,6.362c0.117,-0.171 0.803,-0.128 1.363,0.254c0.56,0.384 0.783,0.963 0.666,1.135c-0.116,0.17 -0.636,-0.038 -1.197,-0.421c-0.56,-0.383 -0.949,-0.797 -0.832,-0.968" style="fill:#daf0e5;fill-rule:nonzero;"/><clipPath id="_clip57"><rect x="22.129" y="6.316" width="1.907" height="1.416" clip-rule="nonzero"/></clipPath><g clip-path="url(#_clip57)"><path d="M22.148,6.404c0.108,-0.157 0.734,-0.116 1.248,0.233c0.514,0.353 0.72,0.883 0.612,1.04c-0.106,0.156 -0.584,-0.035 -1.097,-0.386c-0.514,-0.351 -0.87,-0.731 -0.763,-0.887" style="fill:#ddf2e7;fill-rule:nonzero;"/></g><clipPath id="_clip58"><rect x="22.22" y="6.367" width="1.734" height="1.286" clip-rule="nonzero"/></clipPath><g clip-path="url(#_clip58)"><path d="M22.237,6.446c0.098,-0.143 0.666,-0.104 1.134,0.214c0.467,0.32 0.655,0.8 0.557,0.943c-0.096,0.142 -0.531,-0.032 -0.998,-0.35c-0.466,-0.319 -0.791,-0.665 -0.693,-0.807" style="fill:#e0f3ea;fill-rule:nonzero;"/></g><clipPath id="_clip59"><rect x="22.31" y="6.417" width="1.561" height="1.157" clip-rule="nonzero"/></clipPath><g clip-path="url(#_clip59)"><path d="M22.325,6.487c0.088,-0.128 0.6,-0.092 1.02,0.194c0.419,0.288 0.591,0.719 0.503,0.849c-0.086,0.126 -0.478,-0.03 -0.898,-0.316c-0.42,-0.288 -0.712,-0.599 -0.625,-0.727" style="fill:#e4f4ec;fill-rule:nonzero;"/></g><clipPath id="_clip60"><rect x="22.4" y="6.467" width="1.388" height="1.028" clip-rule="nonzero"/></clipPath><g clip-path="url(#_clip60)"><path d="M22.414,6.529c0.078,-0.114 0.531,-0.081 0.905,0.174c0.373,0.255 0.528,0.638 0.45,0.752c-0.077,0.113 -0.426,-0.025 -0.799,-0.281c-0.373,-0.254 -0.633,-0.532 -0.556,-0.645" style="fill:#e7f6ef;fill-rule:nonzero;"/></g><clipPath id="_clip61"><rect x="22.491" y="6.517" width="1.215" height="0.9" clip-rule="nonzero"/></clipPath><g clip-path="url(#_clip61)"><path d="M22.503,6.571c0.068,-0.1 0.463,-0.068 0.79,0.154c0.327,0.224 0.464,0.557 0.396,0.657c-0.067,0.098 -0.374,-0.022 -0.7,-0.246c-0.327,-0.223 -0.554,-0.466 -0.486,-0.565" style="fill:#ebf7f1;fill-rule:nonzero;"/></g><path d="M22.591,6.613c0.059,-0.085 0.397,-0.057 0.676,0.134c0.281,0.192 0.399,0.476 0.342,0.561c-0.058,0.084 -0.321,-0.019 -0.601,-0.21c-0.28,-0.191 -0.474,-0.4 -0.417,-0.485" style="fill:#eef8f3;fill-rule:nonzero;"/><path d="M22.681,6.655c0.049,-0.071 0.327,-0.045 0.561,0.114c0.234,0.159 0.335,0.395 0.287,0.466c-0.047,0.069 -0.268,-0.017 -0.501,-0.176c-0.234,-0.159 -0.396,-0.334 -0.347,-0.404" style="fill:#f1faf6;fill-rule:nonzero;"/><path d="M22.768,6.696c0.039,-0.057 0.26,-0.033 0.446,0.094c0.189,0.128 0.272,0.314 0.234,0.37c-0.038,0.056 -0.215,-0.013 -0.402,-0.14c-0.186,-0.128 -0.315,-0.268 -0.278,-0.324" style="fill:#f5fbf8;fill-rule:nonzero;"/><path d="M22.857,6.738c0.029,-0.042 0.191,-0.021 0.331,0.074c0.142,0.096 0.209,0.232 0.18,0.275c-0.028,0.04 -0.161,-0.011 -0.302,-0.106c-0.14,-0.096 -0.237,-0.202 -0.209,-0.243" style="fill:#f8fcfa;fill-rule:nonzero;"/><path d="M22.946,6.78c0.019,-0.028 0.123,-0.009 0.217,0.054c0.094,0.064 0.143,0.152 0.125,0.179c-0.018,0.027 -0.11,-0.006 -0.203,-0.07c-0.094,-0.064 -0.158,-0.136 -0.139,-0.163" style="fill:#fcfefd;fill-rule:nonzero;"/><path d="M23.034,6.822c0.012,-0.013 0.055,0.004 0.104,0.034c0.046,0.033 0.078,0.069 0.07,0.084c-0.01,0.01 -0.057,-0.004 -0.104,-0.036c-0.047,-0.032 -0.077,-0.069 -0.07,-0.082" style="fill:#fff;fill-rule:nonzero;"/><clipPath id="_clip62"><rect x="4.068" y="18.423" width="14.531" height="11.533" clip-rule="nonzero"/></clipPath><g clip-path="url(#_clip62)"><path d="M18.532,29.603c-0.477,0.628 -5.654,0.72 -9.621,-2.323c-3.967,-3.039 -5.225,-8.057 -4.746,-8.686c0.48,-0.623 4.762,0.437 8.729,3.478c3.968,3.038 6.12,6.906 5.638,7.531" style="fill:#009a4e;fill-rule:nonzero;"/></g><clipPath id="_clip63"><rect x="4.145" y="18.568" width="14.298" height="11.34" clip-rule="nonzero"/></clipPath><g clip-path="url(#_clip63)"><path d="M18.38,29.568c-0.47,0.613 -5.547,0.686 -9.452,-2.31c-3.905,-2.991 -5.159,-7.91 -4.689,-8.525c0.468,-0.612 4.659,0.466 8.564,3.459c3.905,2.99 6.046,6.763 5.577,7.376" style="fill:#029b4f;fill-rule:nonzero;"/></g><clipPath id="_clip64"><rect x="4.221" y="18.713" width="14.068" height="11.148" clip-rule="nonzero"/></clipPath><g clip-path="url(#_clip64)"><path d="M18.227,29.534c-0.46,0.6 -5.441,0.65 -9.283,-2.297c-3.843,-2.943 -5.093,-7.764 -4.633,-8.366c0.459,-0.599 4.557,0.497 8.399,3.441c3.843,2.943 5.976,6.621 5.517,7.222" style="fill:#039b50;fill-rule:nonzero;"/></g><path d="M18.074,29.499c-0.45,0.588 -5.334,0.616 -9.114,-2.283c-3.78,-2.896 -5.026,-7.617 -4.574,-8.206c0.447,-0.586 4.453,0.525 8.233,3.423c3.78,2.894 5.904,6.479 5.455,7.066" style="fill:#049c51;fill-rule:nonzero;"/><clipPath id="_clip65"><rect x="4.373" y="19.004" width="13.605" height="10.763" clip-rule="nonzero"/></clipPath><g clip-path="url(#_clip65)"><path d="M17.921,29.464c-0.439,0.574 -5.227,0.581 -8.944,-2.271c-3.718,-2.847 -4.959,-7.47 -4.519,-8.045c0.439,-0.573 4.352,0.554 8.068,3.403c3.719,2.848 5.834,6.338 5.395,6.913" style="fill:#069c52;fill-rule:nonzero;"/></g><clipPath id="_clip66"><rect x="4.45" y="19.149" width="13.373" height="10.571" clip-rule="nonzero"/></clipPath><g clip-path="url(#_clip66)"><path d="M17.768,29.43c-0.43,0.562 -5.12,0.546 -8.775,-2.258c-3.655,-2.8 -4.892,-7.323 -4.461,-7.885c0.427,-0.56 4.248,0.584 7.903,3.385c3.655,2.799 5.763,6.197 5.333,6.758" style="fill:#079d53;fill-rule:nonzero;"/></g><clipPath id="_clip67"><rect x="4.526" y="19.294" width="13.142" height="10.379" clip-rule="nonzero"/></clipPath><g clip-path="url(#_clip67)"><path d="M17.615,29.395c-0.419,0.548 -5.013,0.512 -8.605,-2.244c-3.593,-2.752 -4.826,-7.176 -4.405,-7.726c0.419,-0.546 4.146,0.614 7.739,3.367c3.592,2.751 5.691,6.054 5.271,6.603" style="fill:#089d54;fill-rule:nonzero;"/></g><clipPath id="_clip68"><rect x="4.603" y="19.439" width="12.91" height="10.187" clip-rule="nonzero"/></clipPath><g clip-path="url(#_clip68)"><path d="M17.462,29.36c-0.409,0.535 -4.906,0.478 -8.436,-2.23c-3.53,-2.705 -4.757,-7.028 -4.347,-7.566c0.41,-0.533 4.043,0.643 7.573,3.349c3.53,2.703 5.62,5.911 5.21,6.447" style="fill:#0a9e55;fill-rule:nonzero;"/></g><clipPath id="_clip69"><rect x="4.679" y="19.584" width="12.68" height="9.996" clip-rule="nonzero"/></clipPath><g clip-path="url(#_clip69)"><path d="M17.309,29.326c-0.399,0.522 -4.799,0.442 -8.267,-2.218c-3.467,-2.655 -4.692,-6.881 -4.291,-7.404c0.4,-0.522 3.941,0.671 7.41,3.329c3.466,2.655 5.548,5.771 5.148,6.293" style="fill:#0b9e56;fill-rule:nonzero;"/></g><clipPath id="_clip70"><rect x="4.755" y="19.728" width="12.449" height="9.806" clip-rule="nonzero"/></clipPath><g clip-path="url(#_clip70)"><path d="M17.157,29.291c-0.391,0.51 -4.693,0.407 -8.098,-2.205c-3.405,-2.607 -4.625,-6.734 -4.234,-7.245c0.389,-0.508 3.838,0.702 7.243,3.311c3.405,2.608 5.48,5.629 5.089,6.139" style="fill:#0d9f57;fill-rule:nonzero;"/></g><clipPath id="_clip71"><rect x="4.831" y="19.872" width="12.218" height="9.616" clip-rule="nonzero"/></clipPath><g clip-path="url(#_clip71)"><path d="M17.004,29.256c-0.38,0.497 -4.586,0.373 -7.929,-2.191c-3.341,-2.561 -4.557,-6.587 -4.176,-7.085c0.378,-0.495 3.735,0.731 7.078,3.292c3.343,2.56 5.407,5.487 5.027,5.984" style="fill:#0ea058;fill-rule:nonzero;"/></g><clipPath id="_clip72"><rect x="4.907" y="20.017" width="11.987" height="9.425" clip-rule="nonzero"/></clipPath><g clip-path="url(#_clip72)"><path d="M16.85,29.221c-0.37,0.484 -4.479,0.339 -7.759,-2.178c-3.28,-2.511 -4.491,-6.44 -4.12,-6.924c0.369,-0.482 3.633,0.76 6.913,3.274c3.28,2.512 5.337,5.345 4.966,5.828" style="fill:#10a059;fill-rule:nonzero;"/></g><clipPath id="_clip73"><rect x="4.983" y="20.161" width="11.756" height="9.235" clip-rule="nonzero"/></clipPath><g clip-path="url(#_clip73)"><path d="M16.698,29.187c-0.359,0.471 -4.372,0.304 -7.59,-2.165c-3.218,-2.465 -4.425,-6.293 -4.063,-6.765c0.359,-0.468 3.53,0.79 6.748,3.256c3.218,2.464 5.266,5.203 4.905,5.674" style="fill:#11a15a;fill-rule:nonzero;"/></g><clipPath id="_clip74"><rect x="5.059" y="20.305" width="11.526" height="9.046" clip-rule="nonzero"/></clipPath><g clip-path="url(#_clip74)"><path d="M16.546,29.153c-0.351,0.458 -4.266,0.269 -7.421,-2.152c-3.155,-2.416 -4.357,-6.145 -4.007,-6.605c0.35,-0.455 3.427,0.819 6.583,3.237c3.156,2.416 5.196,5.062 4.845,5.52" style="fill:#12a15b;fill-rule:nonzero;"/></g><clipPath id="_clip75"><rect x="5.136" y="20.449" width="11.294" height="8.856" clip-rule="nonzero"/></clipPath><g clip-path="url(#_clip75)"><path d="M16.392,29.118c-0.341,0.444 -4.159,0.234 -7.251,-2.139c-3.093,-2.368 -4.291,-5.998 -3.949,-6.444c0.34,-0.442 3.323,0.849 6.418,3.219c3.092,2.368 5.123,4.92 4.782,5.364" style="fill:#14a25c;fill-rule:nonzero;"/></g><clipPath id="_clip76"><rect x="5.211" y="20.592" width="11.063" height="8.668" clip-rule="nonzero"/></clipPath><g clip-path="url(#_clip76)"><path d="M16.239,29.083c-0.33,0.432 -4.052,0.2 -7.082,-2.125c-3.029,-2.32 -4.223,-5.851 -3.893,-6.284c0.33,-0.43 3.222,0.878 6.254,3.2c3.03,2.32 5.051,4.776 4.721,5.209" style="fill:#15a25d;fill-rule:nonzero;"/></g><clipPath id="_clip77"><rect x="5.287" y="20.736" width="10.833" height="8.48" clip-rule="nonzero"/></clipPath><g clip-path="url(#_clip77)"><path d="M16.087,29.048c-0.32,0.419 -3.945,0.165 -6.912,-2.112c-2.969,-2.273 -4.158,-5.704 -3.837,-6.124c0.319,-0.418 3.119,0.907 6.088,3.18c2.968,2.274 4.981,4.637 4.661,5.056" style="fill:#17a35e;fill-rule:nonzero;"/></g><clipPath id="_clip78"><rect x="5.363" y="20.879" width="10.602" height="8.292" clip-rule="nonzero"/></clipPath><g clip-path="url(#_clip78)"><path d="M15.933,29.014c-0.31,0.405 -3.838,0.13 -6.743,-2.1c-2.905,-2.224 -4.09,-5.556 -3.779,-5.963c0.31,-0.404 3.016,0.936 5.922,3.163c2.906,2.224 4.911,4.494 4.6,4.9" style="fill:#18a35f;fill-rule:nonzero;"/></g><clipPath id="_clip79"><rect x="5.439" y="21.023" width="10.372" height="8.104" clip-rule="nonzero"/></clipPath><g clip-path="url(#_clip79)"><path d="M15.781,28.979c-0.301,0.394 -3.731,0.096 -6.574,-2.086c-2.843,-2.177 -4.024,-5.409 -3.722,-5.804c0.3,-0.39 2.913,0.966 5.757,3.144c2.843,2.178 4.839,4.353 4.539,4.746" style="fill:#1aa460;fill-rule:nonzero;"/></g><path d="M15.628,28.945c-0.29,0.38 -3.624,0.061 -6.404,-2.073c-2.781,-2.129 -3.957,-5.263 -3.666,-5.644c0.291,-0.378 2.811,0.995 5.592,3.126c2.781,2.129 4.769,4.21 4.478,4.591" style="fill:#1ba561;fill-rule:nonzero;"/><clipPath id="_clip80"><rect x="5.591" y="21.308" width="9.912" height="7.73" clip-rule="nonzero"/></clipPath><g clip-path="url(#_clip80)"><path d="M15.475,28.91c-0.281,0.367 -3.518,0.026 -6.235,-2.06c-2.718,-2.081 -3.892,-5.116 -3.609,-5.484c0.28,-0.365 2.708,1.025 5.427,3.107c2.718,2.082 4.698,4.07 4.417,4.437" style="fill:#1ca562;fill-rule:nonzero;"/></g><clipPath id="_clip81"><rect x="5.666" y="21.452" width="9.681" height="7.543" clip-rule="nonzero"/></clipPath><g clip-path="url(#_clip81)"><path d="M15.322,28.875c-0.27,0.354 -3.41,-0.009 -6.065,-2.047c-2.657,-2.033 -3.825,-4.969 -3.552,-5.323c0.269,-0.352 2.605,1.054 5.262,3.088c2.655,2.034 4.626,3.928 4.355,4.282" style="fill:#1ea663;fill-rule:nonzero;"/></g><clipPath id="_clip82"><rect x="5.742" y="21.594" width="9.45" height="7.357" clip-rule="nonzero"/></clipPath><g clip-path="url(#_clip82)"><path d="M15.169,28.84c-0.26,0.341 -3.304,-0.043 -5.896,-2.033c-2.593,-1.985 -3.757,-4.821 -3.495,-5.163c0.26,-0.34 2.503,1.083 5.097,3.069c2.593,1.986 4.556,3.786 4.294,4.127" style="fill:#1fa664;fill-rule:nonzero;"/></g><clipPath id="_clip83"><rect x="5.817" y="21.736" width="9.221" height="7.172" clip-rule="nonzero"/></clipPath><g clip-path="url(#_clip83)"><path d="M15.016,28.805c-0.252,0.329 -3.197,-0.077 -5.728,-2.02c-2.53,-1.937 -3.69,-4.673 -3.437,-5.003c0.25,-0.327 2.4,1.113 4.932,3.052c2.53,1.938 4.483,3.643 4.233,3.971" style="fill:#21a765;fill-rule:nonzero;"/></g><clipPath id="_clip84"><rect x="5.893" y="21.878" width="8.99" height="6.987" clip-rule="nonzero"/></clipPath><g clip-path="url(#_clip84)"><path d="M14.863,28.771c-0.241,0.314 -3.09,-0.112 -5.558,-2.007c-2.467,-1.889 -3.623,-4.527 -3.381,-4.844c0.241,-0.312 2.298,1.143 4.767,3.034c2.468,1.89 4.413,3.502 4.172,3.817" style="fill:#22a766;fill-rule:nonzero;"/></g><clipPath id="_clip85"><rect x="5.968" y="22.021" width="8.761" height="6.802" clip-rule="nonzero"/></clipPath><g clip-path="url(#_clip85)"><path d="M14.711,28.736c-0.232,0.303 -2.983,-0.146 -5.389,-1.993c-2.405,-1.842 -3.557,-4.38 -3.324,-4.683c0.231,-0.301 2.194,1.171 4.603,3.015c2.405,1.842 4.341,3.359 4.11,3.661" style="fill:#23a867;fill-rule:nonzero;"/></g><clipPath id="_clip86"><rect x="6.044" y="22.162" width="8.531" height="6.619" clip-rule="nonzero"/></clipPath><g clip-path="url(#_clip86)"><path d="M14.557,28.702c-0.221,0.289 -2.876,-0.182 -5.219,-1.98c-2.343,-1.794 -3.49,-4.233 -3.267,-4.524c0.22,-0.287 2.091,1.201 4.437,2.996c2.342,1.795 4.271,3.218 4.049,3.508" style="fill:#25a967;fill-rule:nonzero;"/></g><clipPath id="_clip87"><rect x="6.119" y="22.304" width="8.302" height="6.435" clip-rule="nonzero"/></clipPath><g clip-path="url(#_clip87)"><path d="M14.405,28.666c-0.211,0.276 -2.77,-0.216 -5.05,-1.967c-2.281,-1.746 -3.424,-4.086 -3.211,-4.363c0.21,-0.274 1.99,1.23 4.273,2.978c2.279,1.747 4.199,3.076 3.988,3.352" style="fill:#26a969;fill-rule:nonzero;"/></g><clipPath id="_clip88"><rect x="6.194" y="22.446" width="8.073" height="6.251" clip-rule="nonzero"/></clipPath><g clip-path="url(#_clip88)"><path d="M14.253,28.632c-0.201,0.263 -2.664,-0.251 -4.882,-1.954c-2.218,-1.697 -3.356,-3.939 -3.153,-4.203c0.201,-0.262 1.887,1.259 4.107,2.959c2.218,1.7 4.129,2.934 3.928,3.198" style="fill:#28aa6a;fill-rule:nonzero;"/></g><clipPath id="_clip89"><rect x="6.27" y="22.588" width="7.843" height="6.069" clip-rule="nonzero"/></clipPath><g clip-path="url(#_clip89)"><path d="M14.099,28.598c-0.19,0.25 -2.556,-0.286 -4.712,-1.941c-2.155,-1.651 -3.29,-3.791 -3.097,-4.043c0.191,-0.248 1.785,1.289 3.943,2.94c2.154,1.652 4.057,2.793 3.866,3.044" style="fill:#29aa6a;fill-rule:nonzero;"/></g><clipPath id="_clip90"><rect x="6.345" y="22.729" width="7.613" height="5.887" clip-rule="nonzero"/></clipPath><g clip-path="url(#_clip90)"><path d="M13.946,28.563c-0.182,0.237 -2.449,-0.32 -4.542,-1.928c-2.093,-1.601 -3.224,-3.644 -3.04,-3.882c0.182,-0.236 1.682,1.318 3.777,2.921c2.093,1.605 3.987,2.652 3.805,2.889" style="fill:#2bab6c;fill-rule:nonzero;"/></g><clipPath id="_clip91"><rect x="6.42" y="22.87" width="7.385" height="5.705" clip-rule="nonzero"/></clipPath><g clip-path="url(#_clip91)"><path d="M13.794,28.528c-0.172,0.225 -2.342,-0.354 -4.373,-1.914c-2.031,-1.554 -3.157,-3.497 -2.983,-3.723c0.17,-0.222 1.579,1.348 3.611,2.904c2.031,1.556 3.916,2.508 3.745,2.733" style="fill:#2cab6c;fill-rule:nonzero;"/></g><clipPath id="_clip92"><rect x="6.495" y="23.011" width="7.155" height="5.524" clip-rule="nonzero"/></clipPath><g clip-path="url(#_clip92)"><path d="M13.64,28.494c-0.161,0.211 -2.235,-0.39 -4.204,-1.901c-1.968,-1.506 -3.09,-3.35 -2.926,-3.563c0.16,-0.21 1.477,1.377 3.446,2.885c1.968,1.509 3.845,2.367 3.684,2.579" style="fill:#2dac6e;fill-rule:nonzero;"/></g><path d="M13.487,28.458c-0.151,0.199 -2.128,-0.424 -4.033,-1.888c-1.906,-1.458 -3.024,-3.202 -2.869,-3.402c0.15,-0.196 1.373,1.406 3.281,2.866c1.905,1.461 3.773,2.226 3.621,2.424" style="fill:#2fac6e;fill-rule:nonzero;"/><clipPath id="_clip93"><rect x="6.645" y="23.293" width="6.698" height="5.163" clip-rule="nonzero"/></clipPath><g clip-path="url(#_clip93)"><path d="M13.335,28.424c-0.142,0.186 -2.021,-0.459 -3.865,-1.875c-1.843,-1.41 -2.956,-3.055 -2.813,-3.242c0.141,-0.183 1.272,1.435 3.117,2.847c1.843,1.414 3.703,2.084 3.561,2.27" style="fill:#30ad6f;fill-rule:nonzero;"/></g><clipPath id="_clip94"><rect x="6.72" y="23.434" width="6.469" height="4.982" clip-rule="nonzero"/></clipPath><g clip-path="url(#_clip94)"><path d="M13.182,28.389c-0.133,0.173 -1.916,-0.493 -3.696,-1.861c-1.781,-1.363 -2.89,-2.909 -2.755,-3.082c0.131,-0.171 1.168,1.464 2.951,2.829c1.78,1.365 3.631,1.941 3.5,2.114" style="fill:#31ae70;fill-rule:nonzero;"/></g><clipPath id="_clip95"><rect x="6.794" y="23.574" width="6.241" height="4.804" clip-rule="nonzero"/></clipPath><g clip-path="url(#_clip95)"><path d="M13.029,28.355c-0.121,0.16 -1.808,-0.528 -3.526,-1.849c-1.719,-1.314 -2.824,-2.761 -2.7,-2.922c0.121,-0.158 1.067,1.495 2.787,2.811c1.718,1.317 3.561,1.801 3.439,1.96" style="fill:#33ae71;fill-rule:nonzero;"/></g><path d="M13.64,28.534c-0.571,0.707 -2.75,-0.107 -4.867,-1.815c-2.116,-1.711 -3.369,-3.668 -2.799,-4.375c0.574,-0.708 2.376,0.387 4.489,2.093c2.118,1.712 3.747,3.39 3.177,4.097" style="fill:#009a4e;fill-rule:nonzero;"/><clipPath id="_clip96"><rect x="5.926" y="22.234" width="7.712" height="6.49" clip-rule="nonzero"/></clipPath><g clip-path="url(#_clip96)"><path d="M13.526,28.475c-0.557,0.688 -2.679,-0.105 -4.74,-1.768c-2.061,-1.667 -3.281,-3.572 -2.726,-4.261c0.558,-0.689 2.315,0.378 4.372,2.039c2.063,1.668 3.649,3.302 3.094,3.99" style="fill:#059c51;fill-rule:nonzero;"/></g><clipPath id="_clip97"><rect x="6.017" y="22.343" width="7.505" height="6.316" clip-rule="nonzero"/></clipPath><g clip-path="url(#_clip97)"><path d="M13.412,28.416c-0.541,0.671 -2.606,-0.101 -4.613,-1.721c-2.005,-1.621 -3.193,-3.476 -2.652,-4.146c0.543,-0.671 2.252,0.367 4.255,1.984c2.008,1.623 3.551,3.214 3.01,3.883" style="fill:#099e54;fill-rule:nonzero;"/></g><clipPath id="_clip98"><rect x="6.106" y="22.451" width="7.299" height="6.143" clip-rule="nonzero"/></clipPath><g clip-path="url(#_clip98)"><path d="M13.299,28.359c-0.526,0.651 -2.534,-0.1 -4.486,-1.674c-1.951,-1.577 -3.106,-3.381 -2.58,-4.033c0.528,-0.651 2.191,0.357 4.139,1.93c1.953,1.578 3.453,3.126 2.927,3.777" style="fill:#0e9f58;fill-rule:nonzero;"/></g><clipPath id="_clip99"><rect x="6.196" y="22.56" width="7.092" height="5.969" clip-rule="nonzero"/></clipPath><g clip-path="url(#_clip99)"><path d="M13.184,28.3c-0.51,0.633 -2.462,-0.097 -4.358,-1.627c-1.896,-1.533 -3.018,-3.285 -2.507,-3.918c0.513,-0.634 2.13,0.347 4.022,1.874c1.898,1.534 3.355,3.038 2.843,3.671" style="fill:#12a15b;fill-rule:nonzero;"/></g><clipPath id="_clip100"><rect x="6.286" y="22.669" width="6.886" height="5.795" clip-rule="nonzero"/></clipPath><g clip-path="url(#_clip100)"><path d="M13.072,28.243c-0.496,0.614 -2.391,-0.095 -4.232,-1.58c-1.84,-1.488 -2.93,-3.19 -2.435,-3.804c0.499,-0.615 2.068,0.336 3.906,1.82c1.843,1.488 3.256,2.95 2.761,3.564" style="fill:#17a35e;fill-rule:nonzero;"/></g><clipPath id="_clip101"><rect x="6.376" y="22.778" width="6.679" height="5.621" clip-rule="nonzero"/></clipPath><g clip-path="url(#_clip101)"><path d="M12.958,28.184c-0.48,0.596 -2.318,-0.092 -4.104,-1.533c-1.786,-1.444 -2.842,-3.094 -2.362,-3.69c0.484,-0.596 2.007,0.327 3.79,1.766c1.787,1.443 3.158,2.861 2.676,3.457" style="fill:#1ca561;fill-rule:nonzero;"/></g><clipPath id="_clip102"><rect x="6.466" y="22.887" width="6.473" height="5.446" clip-rule="nonzero"/></clipPath><g clip-path="url(#_clip102)"><path d="M12.845,28.125c-0.466,0.577 -2.246,-0.09 -3.979,-1.485c-1.729,-1.4 -2.753,-2.999 -2.288,-3.575c0.468,-0.579 1.946,0.315 3.673,1.709c1.733,1.4 3.061,2.775 2.594,3.351" style="fill:#20a764;fill-rule:nonzero;"/></g><clipPath id="_clip103"><rect x="6.556" y="22.995" width="6.266" height="5.274" clip-rule="nonzero"/></clipPath><g clip-path="url(#_clip103)"><path d="M12.731,28.068c-0.45,0.559 -2.175,-0.087 -3.851,-1.439c-1.674,-1.354 -2.667,-2.903 -2.215,-3.461c0.453,-0.56 1.882,0.305 3.556,1.655c1.676,1.355 2.961,2.687 2.51,3.245" style="fill:#25a967;fill-rule:nonzero;"/></g><clipPath id="_clip104"><rect x="6.646" y="23.104" width="6.06" height="5.1" clip-rule="nonzero"/></clipPath><g clip-path="url(#_clip104)"><path d="M12.618,28.009c-0.436,0.54 -2.103,-0.084 -3.724,-1.392c-1.62,-1.309 -2.579,-2.806 -2.143,-3.346c0.438,-0.541 1.822,0.295 3.439,1.6c1.622,1.311 2.864,2.598 2.428,3.138" style="fill:#2aaa6b;fill-rule:nonzero;"/></g><clipPath id="_clip105"><rect x="6.735" y="23.212" width="5.854" height="4.927" clip-rule="nonzero"/></clipPath><g clip-path="url(#_clip105)"><path d="M12.505,27.951c-0.421,0.522 -2.031,-0.081 -3.597,-1.345c-1.565,-1.264 -2.492,-2.712 -2.071,-3.232c0.423,-0.523 1.762,0.285 3.323,1.546c1.567,1.265 2.766,2.51 2.345,3.031" style="fill:#2eac6e;fill-rule:nonzero;"/></g><clipPath id="_clip106"><rect x="6.826" y="23.321" width="5.647" height="4.753" clip-rule="nonzero"/></clipPath><g clip-path="url(#_clip106)"><path d="M12.391,27.892c-0.406,0.504 -1.96,-0.078 -3.47,-1.297c-1.51,-1.221 -2.403,-2.615 -1.998,-3.119c0.407,-0.503 1.699,0.275 3.206,1.491c1.512,1.222 2.668,2.423 2.262,2.925" style="fill:#33ae71;fill-rule:nonzero;"/></g><clipPath id="_clip107"><rect x="6.916" y="23.43" width="5.442" height="4.579" clip-rule="nonzero"/></clipPath><g clip-path="url(#_clip107)"><path d="M12.278,27.834c-0.392,0.484 -1.888,-0.076 -3.343,-1.25c-1.455,-1.177 -2.316,-2.52 -1.925,-3.005c0.393,-0.484 1.637,0.265 3.089,1.437c1.456,1.176 2.57,2.334 2.179,2.818" style="fill:#37b074;fill-rule:nonzero;"/></g><clipPath id="_clip108"><rect x="7.005" y="23.539" width="5.236" height="4.405" clip-rule="nonzero"/></clipPath><g clip-path="url(#_clip108)"><path d="M12.165,27.776c-0.377,0.467 -1.816,-0.074 -3.217,-1.203c-1.399,-1.131 -2.228,-2.425 -1.852,-2.891c0.377,-0.466 1.577,0.255 2.974,1.383c1.401,1.131 2.471,2.246 2.095,2.711" style="fill:#3cb278;fill-rule:nonzero;"/></g><clipPath id="_clip109"><rect x="7.096" y="23.648" width="5.028" height="4.231" clip-rule="nonzero"/></clipPath><g clip-path="url(#_clip109)"><path d="M12.051,27.717c-0.36,0.448 -1.743,-0.07 -3.089,-1.155c-1.344,-1.087 -2.14,-2.329 -1.779,-2.777c0.363,-0.447 1.514,0.244 2.857,1.327c1.346,1.087 2.372,2.159 2.011,2.605" style="fill:#41b47b;fill-rule:nonzero;"/></g><clipPath id="_clip110"><rect x="7.185" y="23.757" width="4.822" height="4.056" clip-rule="nonzero"/></clipPath><g clip-path="url(#_clip110)"><path d="M11.937,27.659c-0.347,0.429 -1.672,-0.068 -2.961,-1.107c-1.29,-1.043 -2.054,-2.234 -1.708,-2.663c0.349,-0.429 1.454,0.234 2.741,1.272c1.29,1.043 2.274,2.07 1.928,2.498" style="fill:#45b57e;fill-rule:nonzero;"/></g><clipPath id="_clip111"><rect x="7.275" y="23.865" width="4.616" height="3.884" clip-rule="nonzero"/></clipPath><g clip-path="url(#_clip111)"><path d="M11.824,27.601c-0.331,0.411 -1.601,-0.065 -2.835,-1.061c-1.234,-0.999 -1.966,-2.138 -1.635,-2.548c0.333,-0.411 1.393,0.223 2.625,1.217c1.236,0.999 2.176,1.983 1.845,2.392" style="fill:#4ab781;fill-rule:nonzero;"/></g><clipPath id="_clip112"><rect x="7.366" y="23.974" width="4.409" height="3.71" clip-rule="nonzero"/></clipPath><g clip-path="url(#_clip112)"><path d="M11.711,27.542c-0.316,0.393 -1.528,-0.062 -2.708,-1.014c-1.179,-0.954 -1.877,-2.042 -1.562,-2.433c0.318,-0.393 1.331,0.213 2.508,1.162c1.181,0.953 2.078,1.895 1.762,2.285" style="fill:#4eb984;fill-rule:nonzero;"/></g><path d="M11.598,27.485c-0.302,0.373 -1.456,-0.061 -2.581,-0.968c-1.124,-0.909 -1.79,-1.947 -1.489,-2.319c0.302,-0.374 1.269,0.203 2.391,1.107c1.125,0.91 1.98,1.808 1.679,2.18" style="fill:#53bb88;fill-rule:nonzero;"/><clipPath id="_clip113"><rect x="7.546" y="24.192" width="3.996" height="3.362" clip-rule="nonzero"/></clipPath><g clip-path="url(#_clip113)"><path d="M11.483,27.426c-0.285,0.355 -1.384,-0.058 -2.453,-0.92c-1.068,-0.864 -1.701,-1.851 -1.416,-2.205c0.288,-0.355 1.207,0.192 2.274,1.053c1.07,0.864 1.882,1.718 1.595,2.072" style="fill:#57bd8b;fill-rule:nonzero;"/></g><clipPath id="_clip114"><rect x="7.635" y="24.3" width="3.79" height="3.188" clip-rule="nonzero"/></clipPath><g clip-path="url(#_clip114)"><path d="M11.37,27.368c-0.271,0.336 -1.312,-0.056 -2.326,-0.873c-1.014,-0.819 -1.615,-1.755 -1.344,-2.091c0.273,-0.337 1.147,0.183 2.158,0.998c1.015,0.82 1.783,1.631 1.512,1.966" style="fill:#5cbe8e;fill-rule:nonzero;"/></g><clipPath id="_clip115"><rect x="7.725" y="24.409" width="3.584" height="3.014" clip-rule="nonzero"/></clipPath><g clip-path="url(#_clip115)"><path d="M11.257,27.309c-0.257,0.317 -1.24,-0.053 -2.199,-0.825c-0.959,-0.776 -1.528,-1.66 -1.272,-1.978c0.258,-0.317 1.086,0.173 2.042,0.945c0.96,0.774 1.685,1.542 1.429,1.858" style="fill:#61c091;fill-rule:nonzero;"/></g><clipPath id="_clip116"><rect x="7.815" y="24.517" width="3.377" height="2.842" clip-rule="nonzero"/></clipPath><g clip-path="url(#_clip116)"><path d="M11.143,27.251c-0.242,0.299 -1.169,-0.051 -2.072,-0.779c-0.905,-0.731 -1.44,-1.564 -1.199,-1.863c0.242,-0.299 1.024,0.162 1.925,0.889c0.905,0.73 1.587,1.454 1.346,1.753" style="fill:#65c294;fill-rule:nonzero;"/></g><clipPath id="_clip117"><rect x="7.905" y="24.627" width="3.171" height="2.667" clip-rule="nonzero"/></clipPath><g clip-path="url(#_clip117)"><path d="M11.03,27.193c-0.228,0.281 -1.097,-0.048 -1.945,-0.731c-0.85,-0.686 -1.352,-1.469 -1.126,-1.749c0.227,-0.281 0.962,0.152 1.808,0.834c0.85,0.686 1.489,1.367 1.263,1.646" style="fill:#6ac497;fill-rule:nonzero;"/></g><path d="M10.917,27.134c-0.212,0.263 -1.025,-0.044 -1.818,-0.685c-0.794,-0.64 -1.265,-1.372 -1.053,-1.633c0.212,-0.262 0.9,0.141 1.691,0.779c0.794,0.641 1.391,1.279 1.18,1.539" style="fill:#6ec69b;fill-rule:nonzero;"/><clipPath id="_clip118"><rect x="8.085" y="24.844" width="2.759" height="2.32" clip-rule="nonzero"/></clipPath><g clip-path="url(#_clip118)"><path d="M10.804,27.077c-0.197,0.244 -0.953,-0.043 -1.691,-0.638c-0.739,-0.596 -1.178,-1.277 -0.981,-1.52c0.197,-0.243 0.839,0.132 1.575,0.724c0.74,0.597 1.293,1.192 1.097,1.434" style="fill:#73c89e;fill-rule:nonzero;"/></g><clipPath id="_clip119"><rect x="8.174" y="24.953" width="2.552" height="2.146" clip-rule="nonzero"/></clipPath><g clip-path="url(#_clip119)"><path d="M10.69,27.018c-0.183,0.226 -0.882,-0.04 -1.564,-0.59c-0.684,-0.553 -1.09,-1.181 -0.909,-1.406c0.182,-0.225 0.779,0.121 1.459,0.67c0.684,0.551 1.194,1.102 1.014,1.326" style="fill:#78c9a1;fill-rule:nonzero;"/></g><clipPath id="_clip120"><rect x="8.265" y="25.061" width="2.346" height="1.972" clip-rule="nonzero"/></clipPath><g clip-path="url(#_clip120)"><path d="M10.577,26.959c-0.168,0.206 -0.811,-0.037 -1.437,-0.543c-0.629,-0.508 -1.002,-1.086 -0.835,-1.292c0.167,-0.206 0.715,0.111 1.341,0.615c0.629,0.507 1.096,1.016 0.931,1.22" style="fill:#7ccba4;fill-rule:nonzero;"/></g><clipPath id="_clip121"><rect x="8.355" y="25.17" width="2.139" height="1.799" clip-rule="nonzero"/></clipPath><g clip-path="url(#_clip121)"><path d="M10.463,26.902c-0.152,0.187 -0.737,-0.035 -1.31,-0.497c-0.574,-0.462 -0.914,-0.989 -0.762,-1.177c0.151,-0.188 0.655,0.101 1.225,0.561c0.575,0.462 0.998,0.926 0.847,1.113" style="fill:#81cda8;fill-rule:nonzero;"/></g><clipPath id="_clip122"><rect x="8.444" y="25.279" width="1.933" height="1.625" clip-rule="nonzero"/></clipPath><g clip-path="url(#_clip122)"><path d="M10.349,26.843c-0.138,0.17 -0.666,-0.032 -1.184,-0.449c-0.518,-0.418 -0.825,-0.895 -0.689,-1.063c0.138,-0.17 0.593,0.09 1.11,0.505c0.518,0.418 0.899,0.839 0.763,1.007" style="fill:#86cfab;fill-rule:nonzero;"/></g><clipPath id="_clip123"><rect x="8.535" y="25.387" width="1.726" height="1.451" clip-rule="nonzero"/></clipPath><g clip-path="url(#_clip123)"><path d="M10.236,26.785c-0.122,0.151 -0.594,-0.029 -1.056,-0.401c-0.464,-0.374 -0.738,-0.799 -0.617,-0.95c0.121,-0.151 0.531,0.08 0.992,0.452c0.463,0.373 0.801,0.751 0.681,0.899" style="fill:#8ad1ae;fill-rule:nonzero;"/></g><clipPath id="_clip124"><rect x="8.625" y="25.496" width="1.519" height="1.278" clip-rule="nonzero"/></clipPath><g clip-path="url(#_clip124)"><path d="M10.122,26.727c-0.107,0.132 -0.521,-0.027 -0.928,-0.355c-0.408,-0.33 -0.65,-0.703 -0.545,-0.834c0.108,-0.133 0.471,0.069 0.877,0.395c0.407,0.328 0.702,0.663 0.596,0.794" style="fill:#8fd3b1;fill-rule:nonzero;"/></g><clipPath id="_clip125"><rect x="8.714" y="25.605" width="1.314" height="1.104" clip-rule="nonzero"/></clipPath><g clip-path="url(#_clip125)"><path d="M10.009,26.668c-0.092,0.114 -0.449,-0.024 -0.802,-0.308c-0.352,-0.285 -0.562,-0.607 -0.471,-0.72c0.091,-0.114 0.409,0.059 0.759,0.341c0.354,0.284 0.606,0.576 0.514,0.687" style="fill:#93d4b4;fill-rule:nonzero;"/></g><clipPath id="_clip126"><rect x="8.804" y="25.714" width="1.107" height="0.929" clip-rule="nonzero"/></clipPath><g clip-path="url(#_clip126)"><path d="M9.895,26.61c-0.077,0.096 -0.378,-0.021 -0.675,-0.261c-0.298,-0.24 -0.475,-0.511 -0.398,-0.606c0.077,-0.095 0.346,0.05 0.643,0.287c0.297,0.239 0.506,0.487 0.43,0.58" style="fill:#98d6b7;fill-rule:nonzero;"/></g><path d="M9.782,26.551c-0.062,0.077 -0.306,-0.019 -0.547,-0.213c-0.244,-0.195 -0.389,-0.416 -0.327,-0.492c0.062,-0.076 0.286,0.039 0.526,0.231c0.244,0.196 0.409,0.4 0.348,0.474" style="fill:#9dd8bb;fill-rule:nonzero;"/><path d="M9.669,26.494c-0.048,0.059 -0.234,-0.017 -0.421,-0.167c-0.188,-0.15 -0.3,-0.321 -0.253,-0.378c0.046,-0.058 0.225,0.029 0.41,0.177c0.188,0.15 0.309,0.312 0.264,0.368" style="fill:#a1dabe;fill-rule:nonzero;"/><path d="M9.556,26.435c-0.031,0.041 -0.162,-0.014 -0.294,-0.119c-0.133,-0.107 -0.21,-0.224 -0.181,-0.264c0.034,-0.038 0.164,0.019 0.293,0.122c0.133,0.106 0.213,0.225 0.182,0.261" style="fill:#a6dcc1;fill-rule:nonzero;"/><path d="M139.395,11.779l0,8.866c0,4.272 1.414,6.776 6.174,6.776c4.107,0 6.12,-1.849 6.12,-5.55l0,-1.686l-4.188,0l0,1.902c0,1.035 -0.707,1.825 -1.932,1.825c-1.332,0 -1.986,-0.682 -1.986,-1.825l0,-10.933c0,-1.17 0.654,-1.905 1.986,-1.905c1.387,0 1.932,0.844 1.932,1.905l0,1.605l4.134,0l0,-1.415c0,-3.698 -2.475,-5.576 -6.174,-5.576c-3.781,0 -6.066,2.312 -6.066,6.011Z" style="fill:url(#_Linear127);fill-rule:nonzero;"/><path d="M154.546,6.094l0,21.001l10.336,0l0,-3.727l-5.712,0c-0.163,0 -0.326,0.026 -0.49,0.054c0.028,-0.165 0.055,-0.354 0.055,-0.546l0,-16.782l-4.189,0Z" style="fill:url(#_Linear128);fill-rule:nonzero;"/><path d="M175.573,6.094l0,15.479c0,1.332 -0.516,2.61 -2.041,2.61c-1.522,0 -2.068,-1.251 -2.068,-2.61l0,-15.479l-4.189,0l0,15.724c0,3.807 2.693,5.603 6.257,5.603c3.562,0 6.229,-1.824 6.229,-5.603l0,-15.724l-4.188,0Z" style="fill:url(#_Linear129);fill-rule:nonzero;"/><path d="M182.971,6.094l0,21.001l6.854,0c3.782,0 5.249,-1.606 5.249,-5.713c0,-2.856 -0.678,-4.162 -2.584,-4.924l0,-0.082c1.578,-0.951 2.177,-2.531 2.04,-5.222c-0.134,-2.776 -1.143,-4.353 -3.101,-4.842c-0.708,-0.164 -1.305,-0.218 -3.236,-0.218l-5.222,0Zm4.188,7.808l0,-3.455c0,-0.299 0,-0.381 -0.055,-0.681c0.3,0.055 0.382,0.055 0.681,0.055l0.979,0c1.171,0 1.606,0.626 1.606,2.23c0,1.144 -0.056,1.469 -0.273,1.823c-0.246,0.408 -0.735,0.653 -1.333,0.653l-0.979,0c-0.299,0 -0.381,0 -0.681,0.053c0.055,-0.298 0.055,-0.38 0.055,-0.678Zm0,8.841l0,-4.026c0,-0.302 0,-0.381 -0.055,-0.681c0.3,0.054 0.382,0.054 0.681,0.054l1.333,0c1.278,0 1.685,0.707 1.685,2.828c0,1.742 -0.461,2.45 -1.821,2.45l-1.197,0c-0.299,0 -0.381,0 -0.681,0.054c0.055,-0.3 0.055,-0.381 0.055,-0.679Z" style="fill:url(#_Linear130);fill-rule:nonzero;"/></g><defs><radialGradient id="_Radial2" cx="0" cy="0" r="1" gradientUnits="userSpaceOnUse" gradientTransform="matrix(20.3747,4.23619,-4.23619,20.3747,19.7311,12.695)"><stop offset="0" style="stop-color:#fff;stop-opacity:1"/><stop offset="1" style="stop-color:#949699;stop-opacity:1"/></radialGradient><linearGradient id="_Linear127" x1="0" y1="0" x2="1" y2="0" gradientUnits="userSpaceOnUse" gradientTransform="matrix(64.4108,0,0,64.4108,135.509,16.5938)"><stop offset="0" style="stop-color:#eebd47;stop-opacity:1"/><stop offset="0.33" style="stop-color:#efa54d;stop-opacity:1"/><stop offset="0.55" style="stop-color:#a26326;stop-opacity:1"/><stop offset="1" style="stop-color:#eebd47;stop-opacity:1"/></linearGradient><linearGradient id="_Linear128" x1="0" y1="0" x2="1" y2="0" gradientUnits="userSpaceOnUse" gradientTransform="matrix(64.406,0,0,64.406,135.51,16.594)"><stop offset="0" style="stop-color:#eebd47;stop-opacity:1"/><stop offset="0.33" style="stop-color:#efa54d;stop-opacity:1"/><stop offset="0.55" style="stop-color:#a26326;stop-opacity:1"/><stop offset="1" style="stop-color:#eebd47;stop-opacity:1"/></linearGradient><linearGradient id="_Linear129" x1="0" y1="0" x2="1" y2="0" gradientUnits="userSpaceOnUse" gradientTransform="matrix(64.406,0,0,64.406,135.511,16.7571)"><stop offset="0" style="stop-color:#eebd47;stop-opacity:1"/><stop offset="0.33" style="stop-color:#efa54d;stop-opacity:1"/><stop offset="0.55" style="stop-color:#a26326;stop-opacity:1"/><stop offset="1" style="stop-color:#eebd47;stop-opacity:1"/></linearGradient><linearGradient id="_Linear130" x1="0" y1="0" x2="1" y2="0" gradientUnits="userSpaceOnUse" gradientTransform="matrix(64.4013,0,0,64.4013,135.515,16.594)"><stop offset="0" style="stop-color:#eebd47;stop-opacity:1"/><stop offset="0.33" style="stop-color:#efa54d;stop-opacity:1"/><stop offset="0.55" style="stop-color:#a26326;stop-opacity:1"/><stop offset="1" style="stop-color:#eebd47;stop-opacity:1"/></linearGradient></defs></svg>