<svg width="379" height="304" viewBox="0 0 379 304" fill="none" xmlns="http://www.w3.org/2000/svg">
<path d="M0.5 100.114C0.5 110.055 1.96083 119.657 4.67905 128.717C14.4093 176.198 56.2808 219.754 98.035 251.407C118.929 267.247 139.823 280.128 156.708 289.05C165.15 293.511 172.595 296.986 178.542 299.347C181.515 300.527 184.119 301.432 186.289 302.042C188.451 302.649 190.213 302.974 191.492 302.974C192.76 302.974 194.485 302.634 196.586 302.002C198.695 301.368 201.216 300.43 204.087 299.208C209.83 296.764 216.999 293.178 225.122 288.602C241.369 279.448 261.457 266.319 281.621 250.405C321.918 218.603 362.63 175.596 373.477 130.911C376.635 121.213 378.342 110.862 378.342 100.114C378.342 45.0973 333.62 0.5 278.455 0.5C239.608 0.5 205.94 22.6159 189.421 54.9105C172.902 22.6159 139.234 0.5 100.387 0.5C45.222 0.5 0.5 45.0973 0.5 100.114Z" fill="white" stroke="white"/>
</svg>
