<svg width="512" height="512" viewBox="0 0 512 512" fill="none" xmlns="http://www.w3.org/2000/svg">
<path d="M88.8516 281.742H27.043V250.855C27.043 245.168 31.6523 240.555 37.3398 240.555H78.5547C84.2422 240.555 88.8516 245.168 88.8516 250.855V281.742Z" fill="#FAFAFA"/>
<path d="M251.879 395H4.12109C1.84375 395 0 393.156 0 390.879V275.566C0 273.289 1.84375 271.445 4.12109 271.445H251.879C254.156 271.445 256 273.289 256 275.566V390.879C256 393.156 254.156 395 251.879 395Z" fill="white"/>
<path d="M484.956 281.742H423.147V250.855C423.147 245.168 427.757 240.555 433.444 240.555H474.659C480.347 240.555 484.956 245.168 484.956 250.855V281.742Z" fill="#F5F5F5"/>
<path d="M507.878 395H260.12C257.843 395 255.999 393.156 255.999 390.879V275.566C255.999 273.289 257.843 271.445 260.12 271.445H507.878C510.155 271.445 511.999 273.289 511.999 275.566V390.879C511.999 393.156 510.155 395 507.878 395Z" fill="#FAFAFA"/>
<path d="M356.956 158.184H295.147V127.301C295.147 121.614 299.757 117 305.444 117H346.659C352.347 117 356.956 121.614 356.956 127.301V158.184Z" fill="#E5E5E5"/>
<path d="M216.852 158.184H155.043V127.301C155.043 121.614 159.652 117 165.34 117H206.555C212.242 117 216.852 121.614 216.852 127.301V158.184Z" fill="#E5E5E5"/>
<path d="M379.879 271.445H132.121C129.844 271.445 128 269.602 128 267.324V152.008C128 149.734 129.844 147.891 132.121 147.891H379.879C382.156 147.891 384 149.734 384 152.008V267.324C384 269.602 382.156 271.445 379.879 271.445Z" fill="#F0F0F0"/>
</svg>
