<svg width="400" height="400" viewBox="0 0 400 400" fill="none" xmlns="http://www.w3.org/2000/svg">
<path d="M399.52 186.667C392.96 86.8267 313.173 7.01333 213.333 0.453333V0H200H186.667V0.453333C86.8267 7.01333 7.01333 86.8267 0.453333 186.667H0V200V213.333H0.453333C7.01333 313.173 86.8267 392.96 186.667 399.52V400H200H213.333V399.52C313.173 392.96 392.96 313.173 399.52 213.333H400V200V186.667H399.52ZM125.2 43.6C112.32 60.72 101.627 82.1867 93.84 106.667H53.8933C71.28 79.5467 95.9733 57.6 125.2 43.6ZM39.9467 133.333H86.8267C83.2533 150.187 80.9867 168.08 80.2667 186.667H27.1733C28.5867 167.893 33.0133 149.947 39.9467 133.333ZM27.1733 213.333H80.2667C80.9867 231.92 83.2533 249.813 86.8267 266.667H39.9467C33.0133 250.053 28.5867 232.107 27.1733 213.333ZM53.8933 293.333H93.8133C101.6 317.813 112.293 339.28 125.2 356.4C95.9733 342.4 71.28 320.48 53.8933 293.333ZM186.667 371.627C159.253 364.293 135.653 334.853 121.333 293.333H186.667V371.627ZM186.667 266.667H113.84C110.08 250.053 107.707 232.107 106.933 213.333H186.667V266.667ZM186.667 186.667H106.933C107.707 167.893 110.08 149.947 113.84 133.333H186.667V186.667ZM186.667 106.667H121.333C135.653 65.1467 159.253 35.7067 186.667 28.4V106.667ZM346.107 106.667H306.213C298.4 82.1867 287.733 60.72 274.8 43.6C304 57.6 328.72 79.5467 346.107 106.667ZM213.333 28.4C240.72 35.7067 264.347 65.1467 278.667 106.667H213.333V28.4ZM213.333 133.333H286.133C289.92 149.947 292.24 167.893 293.067 186.667H213.333V133.333ZM213.333 213.333H293.067C292.293 232.107 289.92 250.053 286.133 266.667H213.333V213.333ZM213.333 371.627V293.333H278.667C264.347 334.853 240.72 364.293 213.333 371.627ZM274.8 356.4C287.68 339.253 298.4 317.813 306.213 293.333H346.107C328.72 320.48 304 342.4 274.8 356.4ZM360.053 266.667H313.173C316.747 249.813 319.013 231.92 319.733 213.333H372.8C371.413 232.107 366.987 250.053 360.053 266.667ZM319.733 186.667C319.013 168.08 316.747 150.187 313.173 133.333H360.053C366.987 149.947 371.413 167.893 372.827 186.667H319.733Z" fill="white"/>
</svg>
